<svg width="15" height="15" viewBox="0 0 15 15" fill="none" xmlns="http://www.w3.org/2000/svg">
<path d="M15 9.36302C15 8.6004 14.6282 7.92827 14.0625 7.49998V6.56248C14.0625 3.46068 11.5393 0.937485 8.43749 0.937485H6.5625C3.4607 0.937485 0.937508 3.46068 0.937508 6.56248V7.49998C0.371767 7.9283 0 8.6004 0 9.36302C0 10.1324 0.377646 10.8105 0.951963 11.238H0.937481V11.7187C0.937481 13.011 1.98895 14.0625 3.28124 14.0625H11.7187C13.011 14.0625 14.0625 13.011 14.0625 11.7187V11.238H14.048C14.6224 10.8105 15 10.1324 15 9.36302ZM2.34376 8.42554H12.6563C13.1731 8.42554 13.5938 8.84623 13.5938 9.36305C13.5938 9.87987 13.1731 10.3006 12.6563 10.3006H2.34376C1.82693 10.3006 1.40625 9.87987 1.40625 9.36305C1.40625 8.84623 1.82693 8.42554 2.34376 8.42554ZM11.7188 5.62499C11.9776 5.62499 12.1875 5.83482 12.1875 6.09373C12.1875 6.35259 11.9776 6.56248 11.7188 6.56248C11.4599 6.56248 11.25 6.35259 11.25 6.09373C11.25 5.83482 11.4599 5.62499 11.7188 5.62499ZM8.90626 2.8125C9.16512 2.8125 9.375 3.02233 9.375 3.28124C9.375 3.5401 9.16512 3.74998 8.90626 3.74998C8.64741 3.74998 8.43752 3.5401 8.43752 3.28124C8.43749 3.02233 8.64738 2.8125 8.90626 2.8125ZM6.09374 5.62499C6.35259 5.62499 6.56248 5.83482 6.56248 6.09373C6.56248 6.35259 6.35259 6.56248 6.09374 6.56248C5.83488 6.56248 5.625 6.35259 5.625 6.09373C5.625 5.83482 5.83488 5.62499 6.09374 5.62499ZM3.28124 3.75001C3.5401 3.75001 3.74998 3.95984 3.74998 4.21875C3.74998 4.4776 3.5401 4.68749 3.28124 4.68749C3.02238 4.68749 2.8125 4.4776 2.8125 4.21875C2.8125 3.95984 3.02238 3.75001 3.28124 3.75001Z" fill="#FFB72B"/>
</svg>
