<svg width="40" height="40" viewBox="0 0 40 40" fill="none" xmlns="http://www.w3.org/2000/svg">
<path d="M21.2778 12.6443H19.9644V15.0125H21.2778C21.9324 15.0125 22.4622 14.4821 22.4622 13.8284C22.4622 13.1738 21.9324 12.6443 21.2778 12.6443Z" fill="#FF5C00"/>
<path d="M18.1439 24.5984C17.8027 24.3814 17.5961 24.0048 17.5961 23.5999V20.4355H14.8496V26.344C17.2788 26.8854 19.0991 29.0573 19.0991 31.6476C19.0991 34.6436 16.6614 37.0807 13.6652 37.0807C10.6693 37.0807 8.23121 34.6436 8.23121 31.6476C8.23121 29.0573 10.0519 26.8854 12.4811 26.344V4.13849C12.4811 3.4848 13.0109 2.9541 13.6652 2.9541C14.3189 2.9541 14.8496 3.4848 14.8496 4.13849V12.6443H17.5961V3.93158C17.5961 1.76361 15.8322 0 13.6652 0C11.4975 0 9.7345 1.76361 9.7345 3.93158V23.5999C9.7345 24.0048 9.52759 24.3814 9.1858 24.5984C6.71875 26.1704 5.2707 28.8522 5.31342 31.7725C5.37812 36.217 8.90564 39.8282 13.3438 39.9939C18.1308 40.1733 22.0178 36.3498 22.0178 31.6476C22.0178 28.7787 20.5701 26.1435 18.1439 24.5984Z" fill="#FF5C00"/>
<path d="M14.8496 15.0125H17.5962V18.067H14.8496V15.0125Z" fill="#FF5C00"/>
<path d="M10.5996 31.6476C10.5996 33.338 11.975 34.7122 13.6651 34.7122C15.3555 34.7122 16.7306 33.338 16.7306 31.6476C16.7306 29.9573 15.3555 28.5822 13.6651 28.5822C11.975 28.5822 10.5996 29.9573 10.5996 31.6476Z" fill="#FF5C00"/>
<path d="M34.7541 9.23401C34.7541 12.1661 32.3777 14.5425 29.4456 14.5425C26.5143 14.5425 24.1367 12.1661 24.1367 9.23401C24.1367 7.11579 26.9074 3.13508 28.4452 1.08887C28.6295 0.84351 29.0198 0.951542 29.0507 1.25672C29.2643 3.36853 29.6665 5.41321 29.8456 6.26587C29.8905 6.4795 30.123 6.59516 30.3205 6.50177C30.8213 6.26465 31.7612 5.80719 32.8455 5.22034C33.0073 5.13276 33.2093 5.19074 33.3008 5.35035C34.1254 6.79413 34.7541 8.22571 34.7541 9.23401Z" fill="#FF5C00"/>
</svg>
