<svg width="20" height="20" viewBox="0 0 20 20" fill="none" xmlns="http://www.w3.org/2000/svg">
<path d="M19.3344 4.07648C19.702 4.07648 20 3.7785 20 3.41096V1.21459C20 0.847052 19.702 0.549072 19.3344 0.549072H0.665589C0.298047 0.549072 0 0.847052 0 1.21459V3.41096C0 3.7785 0.298047 4.07648 0.665589 4.07648H1.09818V15.9234H0.665589C0.298047 15.9234 0 16.2215 0 16.589V18.7854C0 19.1529 0.298047 19.4509 0.665589 19.4509H19.3344C19.702 19.4509 20 19.1529 20 18.7854V16.589C20 16.2215 19.702 15.9234 19.3344 15.9234H18.9018V12.851C19.2137 12.7959 19.4508 12.5241 19.4508 12.1963V7.80369C19.4508 7.47587 19.2137 7.20409 18.9018 7.14894V4.07648H19.3344ZM4.39266 15.9234H2.42929V10.6656H4.39266V15.9234ZM4.39266 9.33439H2.42929V4.07648H4.39266V9.33439ZM7.68714 15.9234H5.72377V10.6656H7.68714V15.9234ZM7.68714 9.33439H5.72377V4.07648H7.68714V9.33439ZM10.9817 15.9234H9.01832V10.6656H10.9817V15.9234ZM10.9817 9.33439H9.01832V4.07648H10.9817V9.33439ZM14.2762 15.9234H12.3128V10.6656H13.7271V12.1963C13.7271 12.5241 13.9643 12.7959 14.2762 12.851V15.9234ZM14.2762 7.14894C13.9643 7.20402 13.7271 7.47581 13.7271 7.80369V9.33439H12.3128V4.07648H14.2762V7.14894ZM17.5707 15.9234H15.6073V12.8619H17.5707V15.9234ZM15.7238 9.66725C15.7238 9.19015 16.112 8.802 16.589 8.802C17.0661 8.802 17.4543 9.19015 17.4543 9.66725C17.4543 9.94348 17.3237 10.1893 17.1215 10.3478V10.6656C17.1215 10.9596 16.8832 11.198 16.5891 11.198C16.2951 11.198 16.0567 10.9596 16.0567 10.6656V10.3478C15.8544 10.1893 15.7238 9.94342 15.7238 9.66725ZM17.5707 7.1381H15.6073V4.07648H17.5707V7.1381Z" fill="white"/>
</svg>
