<svg width="28" height="28" viewBox="0 0 28 28" fill="none" xmlns="http://www.w3.org/2000/svg">
<path d="M14 0C6.28062 0 0 6.28008 0 14C0 21.7199 6.28062 28 14 28C21.7194 28 28 21.7199 28 14C28 6.28008 21.7194 0 14 0ZM14 26.9231C6.87454 26.9231 1.07692 21.1255 1.07692 14C1.07692 6.87454 6.87454 1.07692 14 1.07692C21.1255 1.07692 26.9231 6.87454 26.9231 14C26.9231 21.1255 21.1255 26.9231 14 26.9231Z" fill="#D90000"/>
<path d="M19.2268 8.77314C19.0163 8.5626 18.676 8.5626 18.4654 8.77314L14 13.2386L9.53452 8.77314C9.32399 8.5626 8.98368 8.5626 8.77314 8.77314C8.5626 8.98368 8.5626 9.32398 8.77314 9.53452L13.2386 14L8.77314 18.4654C8.5626 18.676 8.5626 19.0163 8.77314 19.2268C8.87814 19.3318 9.01598 19.3846 9.15383 19.3846C9.29168 19.3846 9.42952 19.3318 9.53452 19.2268L14 14.7614L18.4654 19.2268C18.5704 19.3318 18.7083 19.3846 18.8461 19.3846C18.984 19.3846 19.1218 19.3318 19.2268 19.2268C19.4374 19.0163 19.4374 18.676 19.2268 18.4654L14.7614 14L19.2268 9.53452C19.4374 9.32398 19.4374 8.98368 19.2268 8.77314Z" fill="#D90000"/>
</svg>
