<svg width="150" height="150" viewBox="0 0 150 150" fill="none" xmlns="http://www.w3.org/2000/svg">
<circle cx="75" cy="75" r="53" fill="#1861F3"/>
<circle cx="75" cy="75" r="44" stroke="#4984FB" stroke-width="5"/>
<circle cx="75" cy="75" r="35" stroke="#4984FB" stroke-width="5"/>
<circle cx="75" cy="75" r="26" stroke="#4984FB" stroke-width="5"/>
<circle cx="75" cy="75" r="53" transform="rotate(45 75 75)" fill="url(#paint0_angular)"/>
<path d="M94.3367 63.6133H87.8301L84.7767 55.98H65.4232L62.3698 63.6133H61.36V59.7967H56.78V63.6133H55.8632C53.8426 63.6133 52.2 65.256 52.2 67.2766V89.6942C52.2 91.7284 53.8549 93.3833 55.8891 93.3833H94.3108C96.345 93.3833 98 91.7284 98 89.6942V67.2766C98 65.256 96.3573 63.6133 94.3367 63.6133ZM58.3066 61.3233H59.8333V63.6133H58.3066V61.3233ZM96.4733 89.6942C96.4733 90.8872 95.5031 91.8567 94.3108 91.8567H55.8891C54.6968 91.8567 53.7266 90.8865 53.7266 89.6942V67.2766C53.7266 66.0988 54.6854 65.14 55.8632 65.14H56.78H61.36H63.4034L66.4567 57.5067H83.7432L86.7965 65.14H94.3367C95.5145 65.14 96.4733 66.0988 96.4733 67.2766V89.6942Z" fill="white"/>
<path d="M75.0999 62.85C67.5238 62.85 61.3599 69.014 61.3599 76.59C61.3599 84.1661 67.5238 90.33 75.0999 90.33C82.676 90.33 88.8399 84.1661 88.8399 76.59C88.8399 69.014 82.676 62.85 75.0999 62.85ZM75.0999 88.8034C68.3658 88.8034 62.8866 83.3242 62.8866 76.59C62.8866 69.8559 68.3658 64.3767 75.0999 64.3767C81.8341 64.3767 87.3133 69.8559 87.3133 76.59C87.3133 83.3242 81.8341 88.8034 75.0999 88.8034Z" fill="white"/>
<path d="M75.1 67.43C70.049 67.43 65.94 71.539 65.94 76.59C65.94 81.641 70.049 85.75 75.1 85.75C80.1509 85.75 84.26 81.641 84.26 76.59C84.26 71.539 80.1509 67.43 75.1 67.43ZM75.1 84.2234C70.891 84.2234 67.4666 80.799 67.4666 76.59C67.4666 72.381 70.891 68.9567 75.1 68.9567C79.309 68.9567 82.7333 72.381 82.7333 76.59C82.7333 80.799 79.309 84.2234 75.1 84.2234Z" fill="white"/>
<path d="M91.8933 66.6667C90.2094 66.6667 88.8399 68.0361 88.8399 69.72C88.8399 71.4039 90.2094 72.7733 91.8933 72.7733C93.5772 72.7733 94.9466 71.4039 94.9466 69.72C94.9466 68.0361 93.5772 66.6667 91.8933 66.6667ZM91.8933 71.2467C91.0513 71.2467 90.3666 70.5619 90.3666 69.72C90.3666 68.878 91.0513 68.1933 91.8933 68.1933C92.7352 68.1933 93.4199 68.878 93.4199 69.72C93.4199 70.5619 92.7352 71.2467 91.8933 71.2467Z" fill="white"/>
<defs>
<radialGradient id="paint0_angular" cx="0" cy="0" r="1" gradientUnits="userSpaceOnUse" gradientTransform="translate(75 75) rotate(90) scale(53)">
<stop stop-color="#598FFD" stop-opacity="0.5"/>
<stop offset="1" stop-color="#1861F3" stop-opacity="0"/>
</radialGradient>
</defs>
</svg>
