<svg width="33" height="33" viewBox="0 0 33 33" fill="none" xmlns="http://www.w3.org/2000/svg">
<g clip-path="url(#clip0)">
<path d="M28.5656 5.22706L29.7115 4.08122C29.9341 3.85854 29.9341 3.49861 29.7115 3.27594C29.4888 3.05326 29.1289 3.05326 28.9062 3.27594L27.7615 4.42064C22.0812 -0.878606 13.3416 -1.48399 6.9956 2.98834C5.87881 1.98999 4.16345 2.01619 3.09165 3.08857C2.01984 4.16038 1.99307 5.8763 2.99141 6.99253C-1.59026 13.4929 -0.845916 22.5076 4.81725 28.1707C8.03666 31.3901 12.2664 33.0001 16.4955 33.0001C20.7247 33.0001 24.9544 31.3901 28.1738 28.1707C34.4771 21.8663 34.6052 11.6938 28.5656 5.22706ZM3.89693 3.89385C4.21927 3.57094 4.6481 3.39382 5.10485 3.39382C5.56159 3.39382 5.99043 3.57151 6.31277 3.89385C6.35833 3.93941 6.39307 3.99067 6.43236 4.04021L6.4654 4.08407C6.65504 4.33693 6.76439 4.62965 6.79628 4.9275C6.79628 4.9275 6.79628 4.92978 6.79685 4.93092C6.8071 5.0266 6.80824 5.12284 6.80197 5.21909C6.8014 5.2282 6.80026 5.23674 6.7997 5.24586C6.79172 5.33413 6.77805 5.42183 6.75755 5.50783C6.75243 5.52833 6.74559 5.54826 6.73933 5.56877C6.71883 5.64394 6.69434 5.71798 6.66358 5.7903C6.6465 5.82903 6.62429 5.86605 6.60436 5.90307C6.57645 5.95603 6.55082 6.00956 6.51722 6.05968C6.45742 6.14795 6.39079 6.23224 6.31277 6.31026C6.23304 6.38999 6.1459 6.45947 6.05364 6.51927C6.04681 6.52383 6.03941 6.52667 6.03314 6.53066C5.66581 6.76131 5.21533 6.8399 4.79105 6.7653C4.77966 6.76302 4.7677 6.76074 4.75631 6.75846C4.67943 6.74309 4.60425 6.71917 4.52965 6.69411C4.48409 6.67759 4.43853 6.66222 4.39467 6.64171C4.36221 6.62748 4.33203 6.60982 4.30071 6.59388C4.22724 6.55458 4.15491 6.51358 4.08657 6.46289L4.07746 6.45606C4.01538 6.40993 3.95217 6.36607 3.89693 6.31026C3.2306 5.64394 3.2306 4.56017 3.89693 3.89385ZM27.368 27.3655C21.3728 33.3606 11.6177 33.3606 5.62196 27.3655C0.357449 22.1004 -0.344751 13.7224 3.90034 7.67309C4.02108 7.72947 4.1458 7.77389 4.27337 7.81262C4.29501 7.81888 4.31665 7.82629 4.33829 7.83198C4.46131 7.86672 4.58603 7.89349 4.71417 7.91114C4.73695 7.91399 4.75973 7.91513 4.78251 7.91798C4.88957 7.92994 4.9955 7.9493 5.10485 7.9493C5.37935 7.9493 5.64417 7.89804 5.90045 7.82287C5.95398 7.80749 6.00694 7.79326 6.05934 7.77503C6.14818 7.74314 6.23475 7.70783 6.3196 7.66739C6.39649 7.63152 6.47052 7.58994 6.54456 7.54723C6.60777 7.51021 6.67156 7.47547 6.73192 7.43333C6.86747 7.33936 6.99845 7.23571 7.11805 7.11554C7.24163 6.99196 7.34756 6.85699 7.44381 6.71632C7.48025 6.66336 7.51044 6.60811 7.5429 6.55344C7.59416 6.46688 7.64086 6.37917 7.68243 6.28805C7.71603 6.21459 7.74735 6.14169 7.77412 6.06651C7.79918 5.99647 7.81797 5.92471 7.83733 5.85295C7.9313 5.5084 7.95921 5.15303 7.92162 4.79936C7.9182 4.76804 7.91707 4.73729 7.91251 4.70597C7.89599 4.58751 7.87037 4.47247 7.83904 4.35686C7.82993 4.32269 7.81968 4.28852 7.80886 4.25378C7.77241 4.13589 7.73084 4.02085 7.67844 3.90809C7.67673 3.90467 7.67616 3.90125 7.67503 3.89841C13.57 -0.237913 21.6661 0.33501 26.9477 5.23504L24.9322 7.25109C20.0219 2.76623 12.3854 2.88412 7.6363 7.63322C2.75108 12.5184 2.75108 20.4665 7.6363 25.3517C10.0789 27.7943 13.2875 29.0159 16.4961 29.0159C19.7047 29.0159 22.9133 27.7943 25.3559 25.3517C27.327 23.3812 28.5713 20.7905 28.9107 18.0216C29.3783 17.8969 29.8225 17.6639 30.1881 17.2977C31.2975 16.1878 31.2975 14.3807 30.1881 13.2708C29.6767 12.7593 29.0172 12.4951 28.3464 12.4547C27.7934 10.8259 26.905 9.31953 25.7454 8.04839L27.7615 6.03234C33.3563 12.0549 33.2282 21.5052 27.368 27.3655ZM28.1738 13.5766C28.6112 13.5766 29.0486 13.7434 29.3817 14.076C30.0475 14.7424 30.0475 15.8261 29.3817 16.4925C29.134 16.7396 28.8287 16.894 28.5087 16.9577L28.343 16.9743C28.089 16.9993 27.8384 16.9686 27.6071 16.8894C27.6015 16.8877 27.5958 16.8866 27.5901 16.8843C27.4858 16.8478 27.3873 16.7983 27.2928 16.7419C27.2803 16.7339 27.266 16.7294 27.2535 16.7214C27.1504 16.6565 27.0536 16.5802 26.9659 16.4925C26.2996 15.8261 26.2996 14.7424 26.9659 14.076C27.3104 13.7321 27.7165 13.6244 27.9973 13.5948L28.1636 13.5777C28.1658 13.5777 28.1698 13.5766 28.1738 13.5766ZM27.1834 12.6221C27.0257 12.6808 26.8736 12.7559 26.7261 12.8436C26.6954 12.8613 26.6623 12.8738 26.6322 12.8926C26.4653 13.0002 26.3058 13.1244 26.1595 13.2708C25.0495 14.3807 25.0495 16.1878 26.1595 17.2977C26.2836 17.4219 26.4197 17.529 26.5615 17.6258C26.6168 17.6639 26.6749 17.6947 26.7318 17.7283C26.8178 17.7784 26.9049 17.8262 26.9955 17.8667C27.073 17.902 27.1504 17.9322 27.2301 17.9601C27.2996 17.984 27.3697 18.0039 27.4409 18.0221C27.5394 18.0483 27.6373 18.0728 27.7376 18.0882C27.7461 18.0893 27.7541 18.0928 27.7621 18.0939C27.4181 20.532 26.2899 22.8043 24.5483 24.5458C20.1068 28.9874 12.8814 28.9874 8.43987 24.5458C3.99887 20.1048 3.99887 12.8789 8.43987 8.43794C10.6604 6.21743 13.5774 5.10747 16.4944 5.10747C19.2326 5.10747 21.9639 6.09898 24.1258 8.0558L21.7099 10.4716C20.2628 9.21531 18.4347 8.52336 16.4944 8.52336C14.3622 8.52336 12.3598 9.35142 10.8569 10.8549C9.35393 12.3584 8.5253 14.3602 8.5253 16.4925C8.5253 18.6247 9.35336 20.6271 10.8569 22.13C12.3603 23.6329 14.3622 24.4615 16.4944 24.4615C18.6266 24.4615 20.629 23.6335 22.1319 22.13C23.6348 20.6265 24.4635 18.6247 24.4635 16.4925C24.4635 14.5521 23.7715 12.724 22.5152 11.2769L24.9293 8.86279C25.9174 9.95624 26.6999 11.2285 27.2 12.6136C27.1943 12.6158 27.1891 12.6198 27.1834 12.6221ZM16.0923 16.8951C16.2034 17.0061 16.3492 17.062 16.495 17.062C16.6408 17.062 16.7865 17.0061 16.8976 16.8951L21.7105 12.0822C22.7533 13.3123 23.325 14.8563 23.325 16.4925C23.325 18.3206 22.6154 20.0371 21.3272 21.3247C20.039 22.6124 18.3231 23.3225 16.495 23.3225C14.6668 23.3225 12.9504 22.6129 11.6627 21.3247C10.3751 20.0365 9.66488 18.3206 9.66488 16.4925C9.66488 14.6643 10.3745 12.9479 11.6627 11.6602C12.9509 10.3725 14.6668 9.66237 16.495 9.66237C18.1311 9.66237 19.6751 10.2342 20.9052 11.2769L16.0923 16.0898C15.8696 16.3125 15.8696 16.6724 16.0923 16.8951Z" fill="white"/>
</g>
<defs>
<clipPath id="clip0">
<rect width="33" height="33" fill="white"/>
</clipPath>
</defs>
</svg>
