<svg width="33" height="35" viewBox="0 0 33 35" fill="none" xmlns="http://www.w3.org/2000/svg">
<g clip-path="url(#clip0)">
<path d="M32.0831 3.36493C32.0831 2.14849 31.1319 1.15924 29.9622 1.15924H2.39103C1.22138 1.15924 0.270172 2.14849 0.270172 3.36493C0.270172 4.39003 0.948847 5.24584 1.86082 5.49233V32.2672L3.45146 30.613L6.63275 33.9215L9.81404 30.613L12.9953 33.9215L16.1766 30.613L19.3579 33.9215L22.5392 30.613L25.7205 33.9215L28.9018 30.613L30.4924 32.2672V5.49233C31.4044 5.24584 32.0831 4.39003 32.0831 3.36493ZM29.432 29.605L28.9018 29.0535L25.7205 32.3621L22.5392 29.0535L19.3579 32.3621L16.1766 29.0535L12.9953 32.3621L9.81404 29.0535L6.63275 32.3621L3.45146 29.0535L2.92125 29.605V5.57063V3.91636H29.432V5.57063V29.605ZM30.4924 4.31945V2.81351H1.86082V4.31945C1.54428 4.12921 1.3306 3.77244 1.3306 3.36493C1.3306 2.75671 1.8062 2.26209 2.39103 2.26209H29.9622C30.547 2.26209 31.0226 2.75671 31.0226 3.36493C31.0226 3.77244 30.809 4.12921 30.4924 4.31945Z" fill="white"/>
<path d="M23.5996 23.2162H15.6464C15.3537 23.2162 15.1162 23.4627 15.1162 23.7676C15.1162 24.0725 15.3537 24.319 15.6464 24.319H23.5996C23.8923 24.319 24.1298 24.0725 24.1298 23.7676C24.1298 23.4627 23.8923 23.2162 23.5996 23.2162Z" fill="white"/>
<path d="M25.8743 23.3761C25.7788 23.4803 25.7205 23.6182 25.7205 23.7676C25.7205 23.911 25.7788 24.0544 25.8743 24.1591C25.975 24.2584 26.1128 24.319 26.2507 24.319C26.3886 24.319 26.5264 24.2584 26.6272 24.1591C26.7226 24.0544 26.7809 23.911 26.7809 23.7676C26.7809 23.6182 26.7226 23.4803 26.6272 23.3761C26.4257 23.1721 26.0757 23.1721 25.8743 23.3761Z" fill="white"/>
<path d="M26.2507 15.4962H18.2975C18.0048 15.4962 17.7673 15.7427 17.7673 16.0476C17.7673 16.3526 18.0048 16.5991 18.2975 16.5991H26.2507C26.5434 16.5991 26.7809 16.3526 26.7809 16.0476C26.7809 15.7427 26.5434 15.4962 26.2507 15.4962Z" fill="white"/>
<path d="M26.2507 19.3562H20.9485C20.6559 19.3562 20.4183 19.6027 20.4183 19.9076C20.4183 20.2126 20.6559 20.459 20.9485 20.459H26.2507C26.5434 20.459 26.7809 20.2126 26.7809 19.9076C26.7809 19.6027 26.5434 19.3562 26.2507 19.3562Z" fill="white"/>
<path d="M15.1162 19.9076C15.1162 20.2126 15.3537 20.459 15.6464 20.459H16.7068C16.9995 20.459 17.237 20.2126 17.237 19.9076C17.237 19.6027 16.9995 19.3562 16.7068 19.3562H15.6464C15.3537 19.3562 15.1162 19.6027 15.1162 19.9076Z" fill="white"/>
<path d="M24.1298 12.1877C24.1298 11.8828 23.8923 11.6363 23.5996 11.6363H15.6464C15.3537 11.6363 15.1162 11.8828 15.1162 12.1877C15.1162 12.4927 15.3537 12.7391 15.6464 12.7391H23.5996C23.8923 12.7391 24.1298 12.4927 24.1298 12.1877Z" fill="white"/>
<path d="M25.8743 11.7962C25.7788 11.9004 25.7205 12.0383 25.7205 12.1877C25.7205 12.3311 25.7788 12.4745 25.8743 12.5792C25.975 12.6785 26.1128 12.7391 26.2507 12.7391C26.3939 12.7391 26.5264 12.6785 26.6272 12.5792C26.7226 12.4745 26.7809 12.3311 26.7809 12.1877C26.7809 12.0443 26.7226 11.9004 26.6272 11.7962C26.431 11.5922 26.0704 11.5922 25.8743 11.7962Z" fill="white"/>
<path d="M16.5531 16.4392C16.6485 16.3344 16.7068 16.1966 16.7068 16.0477C16.7068 15.8983 16.6485 15.7604 16.5531 15.6562C16.3569 15.4522 16.0016 15.4522 15.8002 15.6562C15.7047 15.7604 15.6464 15.8983 15.6464 16.0477C15.6464 16.1966 15.7047 16.3344 15.8002 16.4392C15.9009 16.5385 16.0388 16.5991 16.1766 16.5991C16.3145 16.5991 16.4523 16.5385 16.5531 16.4392Z" fill="white"/>
<path d="M19.2042 20.2991C19.2996 20.1944 19.3579 20.0565 19.3579 19.9076C19.3579 19.7582 19.2996 19.6154 19.2042 19.5161C19.008 19.3121 18.6527 19.3121 18.4512 19.5161C18.3558 19.6203 18.2975 19.7643 18.2975 19.9076C18.2975 20.051 18.3558 20.1944 18.4512 20.2991C18.552 20.3984 18.6898 20.4591 18.8277 20.4591C18.9656 20.4591 19.1034 20.3984 19.2042 20.2991Z" fill="white"/>
<path d="M9.28383 12.7948V12.1877C9.28383 11.8828 9.04629 11.6363 8.75361 11.6363C8.46093 11.6363 8.2234 11.8828 8.2234 12.1877V12.7965C7.64493 12.9189 7.1179 13.2382 6.72925 13.7163C6.40529 14.1144 6.25524 14.6239 6.30826 15.1516C6.36234 15.6915 6.62957 16.1922 7.04155 16.5252L8.2234 17.4814V20.48C7.60782 20.2517 7.16297 19.6452 7.16297 18.9272C7.16297 18.6223 6.92543 18.3758 6.63275 18.3758C6.34008 18.3758 6.10254 18.6223 6.10254 18.9272C6.10254 20.2583 7.01504 21.3722 8.2234 21.6286V22.1128C8.2234 22.4177 8.46093 22.6642 8.75361 22.6642C9.04629 22.6642 9.28383 22.4177 9.28383 22.1128V21.6264C9.86229 21.504 10.3893 21.1847 10.7785 20.7067C11.1025 20.3074 11.252 19.7979 11.199 19.2702C11.1444 18.7309 10.8777 18.2308 10.4657 17.8983L9.28383 16.9426V13.944C9.89941 14.1723 10.3443 14.7789 10.3443 15.4968C10.3443 15.8017 10.5818 16.0482 10.8745 16.0482C11.1672 16.0482 11.4047 15.8017 11.4047 15.4968C11.4047 14.1651 10.4922 13.0512 9.28383 12.7948ZM9.81457 18.769C9.99962 18.9184 10.12 19.1439 10.1444 19.3854C10.1672 19.6115 10.1046 19.8282 9.96887 19.9948C9.78435 20.2214 9.54575 20.3802 9.28383 20.4773V18.3388L9.81457 18.769ZM7.69265 15.6551C7.50708 15.5051 7.38725 15.2795 7.36286 15.0375C7.34059 14.8119 7.40263 14.5958 7.53836 14.4287C7.72288 14.2021 7.96147 14.0433 8.2234 13.9462V16.0841L7.69265 15.6551Z" fill="white"/>
<path d="M21.4788 7.77625C21.7716 7.77625 22.009 7.52937 22.009 7.22482C22.009 6.92028 21.7716 6.6734 21.4788 6.6734C21.1859 6.6734 20.9485 6.92028 20.9485 7.22482C20.9485 7.52937 21.1859 7.77625 21.4788 7.77625Z" fill="white"/>
<path d="M19.3579 7.77625C19.6507 7.77625 19.8881 7.52937 19.8881 7.22482C19.8881 6.92028 19.6507 6.6734 19.3579 6.6734C19.0651 6.6734 18.8277 6.92028 18.8277 7.22482C18.8277 7.52937 19.0651 7.77625 19.3579 7.77625Z" fill="white"/>
<path d="M23.5996 7.77625C23.8924 7.77625 24.1298 7.52937 24.1298 7.22482C24.1298 6.92028 23.8924 6.6734 23.5996 6.6734C23.3068 6.6734 23.0694 6.92028 23.0694 7.22482C23.0694 7.52937 23.3068 7.77625 23.5996 7.77625Z" fill="white"/>
<path d="M17.237 7.77625C17.5299 7.77625 17.7672 7.52937 17.7672 7.22482C17.7672 6.92028 17.5299 6.6734 17.237 6.6734C16.9442 6.6734 16.7068 6.92028 16.7068 7.22482C16.7068 7.52937 16.9442 7.77625 17.237 7.77625Z" fill="white"/>
<path d="M25.7205 7.77625C26.0133 7.77625 26.2507 7.52937 26.2507 7.22482C26.2507 6.92028 26.0133 6.6734 25.7205 6.6734C25.4277 6.6734 25.1903 6.92028 25.1903 7.22482C25.1903 7.52937 25.4277 7.77625 25.7205 7.77625Z" fill="white"/>
<path d="M10.8745 7.77625C11.1673 7.77625 11.4047 7.52937 11.4047 7.22482C11.4047 6.92028 11.1673 6.6734 10.8745 6.6734C10.5816 6.6734 10.3442 6.92028 10.3442 7.22482C10.3442 7.52937 10.5816 7.77625 10.8745 7.77625Z" fill="white"/>
<path d="M12.9953 7.77625C13.2882 7.77625 13.5255 7.52937 13.5255 7.22482C13.5255 6.92028 13.2882 6.6734 12.9953 6.6734C12.7025 6.6734 12.4651 6.92028 12.4651 7.22482C12.4651 7.52937 12.7025 7.77625 12.9953 7.77625Z" fill="white"/>
<path d="M15.1162 7.77625C15.409 7.77625 15.6464 7.52937 15.6464 7.22482C15.6464 6.92028 15.409 6.6734 15.1162 6.6734C14.8234 6.6734 14.586 6.92028 14.586 7.22482C14.586 7.52937 14.8234 7.77625 15.1162 7.77625Z" fill="white"/>
<path d="M27.8413 7.77625C28.1342 7.77625 28.3716 7.52937 28.3716 7.22482C28.3716 6.92028 28.1342 6.6734 27.8413 6.6734C27.5485 6.6734 27.3111 6.92028 27.3111 7.22482C27.3111 7.52937 27.5485 7.77625 27.8413 7.77625Z" fill="white"/>
<path d="M8.7536 7.77625C9.04643 7.77625 9.28382 7.52937 9.28382 7.22482C9.28382 6.92028 9.04643 6.6734 8.7536 6.6734C8.46077 6.6734 8.22339 6.92028 8.22339 7.22482C8.22339 7.52937 8.46077 7.77625 8.7536 7.77625Z" fill="white"/>
<path d="M6.63275 7.77625C6.92558 7.77625 7.16297 7.52937 7.16297 7.22482C7.16297 6.92028 6.92558 6.6734 6.63275 6.6734C6.33992 6.6734 6.10254 6.92028 6.10254 7.22482C6.10254 7.52937 6.33992 7.77625 6.63275 7.77625Z" fill="white"/>
<path d="M4.5119 7.77625C4.80473 7.77625 5.04212 7.52937 5.04212 7.22482C5.04212 6.92028 4.80473 6.6734 4.5119 6.6734C4.21907 6.6734 3.98169 6.92028 3.98169 7.22482C3.98169 7.52937 4.21907 7.77625 4.5119 7.77625Z" fill="white"/>
</g>
<defs>
<clipPath id="clip0">
<rect width="31.8129" height="33.0854" fill="white" transform="translate(0.270172 0.997681)"/>
</clipPath>
</defs>
</svg>
