<svg width="24" height="24" viewBox="0 0 24 24" fill="none" xmlns="http://www.w3.org/2000/svg">
<g clip-path="url(#clip0)">
<path d="M18.0391 8.47028C18.0063 8.47028 1.69222 8.47028 1.69222 8.47028L5.12937 4.61777C5.35226 4.36793 5.33042 3.98472 5.08057 3.76183C4.83082 3.53899 4.44753 3.56074 4.22464 3.81063L0.353613 8.14937C-0.117902 8.67803 -0.117855 9.47509 0.35366 10.0036L4.22468 14.3424C4.3445 14.4767 4.51048 14.545 4.67721 14.545C4.82084 14.545 4.96498 14.4943 5.08062 14.3912C5.33046 14.1683 5.35226 13.7851 5.12942 13.5353L1.69227 9.6827C1.69227 9.6827 18.0063 9.6827 18.0391 9.6827C20.6574 9.6827 22.7875 11.8129 22.7875 14.4311C22.7875 17.0494 20.6574 19.1796 18.0391 19.1796H15.1525C14.8177 19.1796 14.5463 19.451 14.5463 19.7858C14.5463 20.1206 14.8177 20.392 15.1525 20.392H18.0391C21.326 20.392 24 17.718 24 14.4311C23.9999 11.1443 21.3259 8.47028 18.0391 8.47028Z" fill="white"/>
</g>
<defs>
<clipPath id="clip0">
<rect width="24" height="24" fill="white"/>
</clipPath>
</defs>
</svg>
