<svg width="15" height="11" viewBox="0 0 15 11" fill="none" xmlns="http://www.w3.org/2000/svg">
<path d="M14.7855 9.21697L11.3487 0.612679C11.3047 0.508267 11.2333 0.417625 11.1345 0.340781C11.0355 0.263764 10.931 0.225342 10.8212 0.225342H8.02727C8.09863 0.225342 8.16182 0.25138 8.21675 0.303543C8.27166 0.35585 8.30188 0.417538 8.30745 0.488955L8.43112 2.07147C8.43663 2.1484 8.41472 2.21159 8.36545 2.26095C8.31585 2.3104 8.25546 2.33508 8.18396 2.33508H6.81584C6.74442 2.33508 6.68406 2.3104 6.63458 2.26095C6.58513 2.21162 6.56317 2.1484 6.56874 2.07147L6.69237 0.488955C6.6978 0.417538 6.72797 0.35585 6.78302 0.303543C6.83795 0.251467 6.90108 0.225342 6.97259 0.225342H4.17858C4.06871 0.225342 3.9643 0.263764 3.86537 0.340781C3.76653 0.417538 3.69517 0.508267 3.65115 0.612679L0.21428 9.21697C0.0714169 9.5576 0 9.87626 0 10.173C0 10.5741 0.126351 10.7746 0.379139 10.7746H6.18128C6.10987 10.7746 6.04951 10.7486 6 10.6964C5.95055 10.6441 5.92858 10.5824 5.93415 10.5109L6.09893 8.40128C6.10441 8.32974 6.13464 8.268 6.18957 8.21575C6.24447 8.16347 6.30772 8.1376 6.37914 8.1376H8.62077C8.69231 8.1376 8.75532 8.16347 8.81043 8.21575C8.86536 8.268 8.89559 8.32974 8.90104 8.40128L9.06602 10.5109C9.07165 10.5824 9.04942 10.644 9.00014 10.6964C8.95075 10.7486 8.89028 10.7746 8.81877 10.7746H14.6208C14.8735 10.7746 15 10.5741 15 10.173C15 9.87638 14.9285 9.55769 14.7855 9.21697ZM8.74456 6.32407C8.7499 6.39006 8.72796 6.44496 8.67857 6.48884C8.62926 6.53289 8.57138 6.55483 8.50551 6.55483H6.49449C6.42853 6.55483 6.37074 6.53289 6.3214 6.48884C6.2719 6.44479 6.24996 6.38985 6.25541 6.32407V6.29107L6.45327 3.6539C6.45875 3.58245 6.48898 3.52068 6.54391 3.46846C6.59885 3.41624 6.66206 3.39017 6.73348 3.39017H8.26632C8.33785 3.39017 8.40107 3.41615 8.45597 3.46846C8.51088 3.52068 8.54113 3.58245 8.54667 3.6539L8.74447 6.29107V6.32407H8.74456Z" fill="#202020"/>
</svg>
