<svg width="28" height="28" viewBox="0 0 28 28" fill="none" xmlns="http://www.w3.org/2000/svg">
<path d="M14 0C6.28062 0 0 6.28008 0 14C0 21.7199 6.28062 28 14 28C21.7194 28 28 21.7199 28 14C28 6.28008 21.7194 0 14 0ZM14 26.9231C6.87454 26.9231 1.07692 21.1255 1.07692 14C1.07692 6.87454 6.87454 1.07692 14 1.07692C21.1255 1.07692 26.9231 6.87454 26.9231 14C26.9231 21.1255 21.1255 26.9231 14 26.9231Z" fill="#1AB600"/>
<path d="M20.5972 8.25784L12.3216 17.5678L7.336 13.5795C7.10446 13.3937 6.76469 13.4319 6.57946 13.6635C6.39369 13.8961 6.43138 14.2348 6.66346 14.4205L12.0481 18.7282C12.1472 18.8074 12.2662 18.8461 12.3846 18.8461C12.5332 18.8461 12.6813 18.7848 12.7874 18.6652L21.4028 8.97292C21.6004 8.75107 21.5805 8.41022 21.3581 8.21315C21.1352 8.01499 20.7954 8.03492 20.5972 8.25784Z" fill="#1AB600"/>
</svg>
