<svg width="50" height="50" viewBox="0 0 50 50" fill="none" xmlns="http://www.w3.org/2000/svg">
<g clip-path="url(#clip0)">
<path d="M7.30824 22.6917C6.92193 23.7221 7.22358 24.8845 8.06294 25.5965C9.65318 27.1878 12.9237 32.9326 14.5425 36.9806C15.6473 39.7416 18.0731 42.4515 19.9135 44.2393C20.7056 45.0188 21.1502 46.0843 21.1479 47.1959V47.5006C21.1479 48.8811 22.2668 50 23.6473 50H36.9764C38.3569 50 39.4758 48.8811 39.4758 47.5006V44.9414C39.4682 44.7297 39.5486 44.5242 39.6981 44.3743C42.773 41.5626 42.8081 36.8689 42.8081 36.6706V23.4822C42.839 21.6983 41.4939 20.19 39.7183 20.0176C39.051 19.9738 38.3859 20.132 37.8097 20.4714V19.176C37.8165 17.9755 37.1736 16.8654 36.1287 16.2739C35.0841 15.6824 33.8013 15.7022 32.7754 16.3261C32.6686 15.2023 31.9936 14.2115 30.9872 13.7009C29.9805 13.1903 28.7826 13.2303 27.8125 13.8077V12.4279C29.8802 11.2545 31.1539 9.05715 31.1451 6.67979C31.1451 2.99897 28.161 0.0152588 24.4802 0.0152588C20.7994 0.0152588 17.8157 2.99897 17.8157 6.67979C17.8069 9.05715 19.0806 11.2545 21.1479 12.4279V25.8405C21.1716 26.824 21.0377 27.8045 20.7513 28.7457C20.6621 29.0237 20.4344 29.2357 20.1507 29.3055C19.8838 29.373 19.6008 29.2986 19.401 29.1087C18.7504 28.4883 18.1722 27.7957 17.6784 27.0445C16.2327 24.8818 12.5949 20.8421 10.3179 20.8421C9.03882 20.8154 7.86235 21.5385 7.30824 22.6917ZM19.4818 6.67979C19.4818 3.91918 21.7196 1.68139 24.4802 1.68139C27.2408 1.68139 29.4786 3.91918 29.4786 6.67979C29.4866 8.10529 28.8795 9.46482 27.8125 10.4106V6.67979C27.8125 4.83938 26.3206 3.34753 24.4802 3.34753C22.6398 3.34753 21.1479 4.83938 21.1479 6.67979V10.4106C20.0813 9.46482 19.4738 8.10529 19.4818 6.67979ZM16.2895 27.9692C16.8543 28.8258 17.5148 29.6152 18.258 30.3226C18.8709 30.9022 19.7377 31.1284 20.5557 30.9217C21.3893 30.7138 22.0586 30.0938 22.3301 29.2788C22.6749 28.166 22.8385 27.0052 22.8141 25.8405V6.67979C22.8141 5.75959 23.56 5.01366 24.4802 5.01366C25.4004 5.01366 26.1463 5.75959 26.1463 6.67979V24.1744C26.1463 24.6347 26.5193 25.0076 26.9796 25.0076C27.4395 25.0076 27.8125 24.6347 27.8125 24.1744V16.677C27.8125 15.7568 28.5588 15.0108 29.4786 15.0108C30.3988 15.0108 31.1451 15.7568 31.1451 16.677V24.1744C31.1451 24.6347 31.5181 25.0076 31.978 25.0076C32.4383 25.0076 32.8113 24.6347 32.8113 24.1744V19.176C32.8113 18.2558 33.5572 17.5099 34.4774 17.5099C35.3976 17.5099 36.1435 18.2558 36.1435 19.176V25.0076C36.1435 25.4676 36.5165 25.8405 36.9764 25.8405C37.4367 25.8405 37.8097 25.4676 37.8097 25.0076V23.3415C37.8085 22.8995 37.9847 22.4755 38.2986 22.1643C38.6422 21.8237 39.1154 21.6472 39.5982 21.6796C40.4982 21.797 41.1641 22.575 41.1419 23.4822V36.6706C41.1419 36.7114 41.0996 40.8361 38.5728 43.1456C38.0789 43.6112 37.802 44.2626 37.8097 44.9414V47.5006C37.8097 47.9609 37.4367 48.3339 36.9764 48.3339H23.6473C23.187 48.3339 22.8141 47.9609 22.8141 47.5006V47.1959C22.8152 45.6343 22.1879 44.1379 21.074 43.0438C19.6626 41.6736 17.1384 38.9816 16.0904 36.3609C14.3759 32.0772 10.9837 26.1612 9.24094 24.4185C8.84433 24.0222 8.71162 23.6554 8.84662 23.3289C9.14865 22.8057 9.71382 22.4903 10.3179 22.5083C11.4501 22.5083 14.52 25.315 16.2895 27.9692Z" fill="white"/>
<path d="M38.6425 35.8377C39.1028 35.8377 39.4758 35.4647 39.4758 35.0044V30.006C39.4758 29.5461 39.1028 29.1732 38.6425 29.1732C38.1826 29.1732 37.8097 29.5461 37.8097 30.006V35.0044C37.8097 35.4647 38.1826 35.8377 38.6425 35.8377Z" fill="white"/>
<path d="M37.8097 40.8361C38.0305 40.8361 38.2425 40.7484 38.3985 40.592C39.0323 40.0055 39.4178 39.1986 39.4758 38.3367C39.475 37.8867 39.1127 37.521 38.6628 37.5157C38.2078 37.5069 37.8291 37.8631 37.8097 38.3176C37.7471 38.7406 37.5389 39.1284 37.2205 39.414C36.9825 39.6524 36.9112 40.0105 37.0401 40.3217C37.169 40.6332 37.4725 40.8361 37.8097 40.8361Z" fill="white"/>
<path d="M25.3135 46.6677H26.1464C26.6066 46.6677 26.9796 46.2948 26.9796 45.8345C26.9796 45.3745 26.6066 45.0016 26.1464 45.0016H25.3135C24.8532 45.0016 24.4802 45.3745 24.4802 45.8345C24.4802 46.2948 24.8532 46.6677 25.3135 46.6677Z" fill="white"/>
<path d="M29.4786 46.6677H35.3103C35.7706 46.6677 36.1435 46.2948 36.1435 45.8345C36.1435 45.3745 35.7706 45.0016 35.3103 45.0016H29.4786C29.0187 45.0016 28.6458 45.3745 28.6458 45.8345C28.6458 46.2948 29.0187 46.6677 29.4786 46.6677Z" fill="white"/>
<path d="M17.8157 13.7936C18.1482 13.7936 18.4487 13.5964 18.5807 13.2913C18.7126 12.9862 18.6508 12.6319 18.4232 12.3898C15.5367 9.33896 15.38 4.61437 18.0582 1.37896C18.2561 1.15053 18.3149 0.832865 18.2119 0.548757C18.1086 0.264648 17.8595 0.0587173 17.5609 0.0106668C17.2623 -0.0373837 16.9614 0.0800731 16.7742 0.317656C13.5617 4.19984 13.7478 9.86828 17.2086 13.5312C17.3661 13.6986 17.5857 13.7936 17.8157 13.7936Z" fill="white"/>
<path d="M32.2556 11.5867C32.452 11.6873 32.6808 11.706 32.891 11.6381C33.1015 11.5703 33.2761 11.4219 33.3768 11.2251C35.1982 7.67854 34.7299 3.38755 32.1862 0.317656C31.9994 0.0800731 31.6981 -0.0373837 31.3995 0.0106668C31.1013 0.0587173 30.8523 0.264648 30.7489 0.548757C30.6456 0.832865 30.7043 1.15053 30.9026 1.37896C33.0222 3.93632 33.4123 7.51113 31.8949 10.4655C31.6848 10.8747 31.8464 11.3765 32.2556 11.5867Z" fill="white"/>
</g>
<defs>
<clipPath id="clip0">
<rect width="50" height="50" fill="white"/>
</clipPath>
</defs>
</svg>
