<svg width="14" height="14" viewBox="0 0 14 14" fill="none" xmlns="http://www.w3.org/2000/svg">
<path d="M13.8385 4.46923C12.0615 2.69231 9.69231 1.61539 7 1.61539C4.30769 1.61539 1.88462 2.69231 0.161538 4.46923C0.0538462 4.57693 0 4.68462 0 4.84616C0 5.00769 0.0538462 5.11539 0.161538 5.22308L0.915385 5.97693C1.13077 6.19231 1.45385 6.19231 1.66923 5.97693C3.01538 4.63077 4.9 3.76923 7 3.76923C9.1 3.76923 10.9846 4.63077 12.3308 5.97693C12.5462 6.19231 12.8692 6.19231 13.0846 5.97693L13.8385 5.22308C13.9462 5.11539 14 5.00769 14 4.84616C14 4.68462 13.9462 4.52308 13.8385 4.46923Z" fill="black"/>
<path d="M6.99998 5.92307C5.49229 5.92307 4.19998 6.51537 3.23075 7.4846C3.01537 7.69999 3.01537 8.02306 3.23075 8.23845L3.9846 8.99229C4.19998 9.20768 4.52306 9.20768 4.73844 8.99229C5.33075 8.39999 6.13844 8.07691 6.99998 8.07691C7.86152 8.07691 8.66921 8.45383 9.26152 8.99229C9.47691 9.20768 9.79998 9.20768 10.0154 8.99229L10.7692 8.23845C10.9846 8.02306 10.9846 7.69999 10.7692 7.4846C9.79998 6.51537 8.50768 5.92307 6.99998 5.92307Z" fill="black"/>
<path d="M7.00002 12.3846C7.59479 12.3846 8.07694 11.9025 8.07694 11.3077C8.07694 10.7129 7.59479 10.2308 7.00002 10.2308C6.40525 10.2308 5.9231 10.7129 5.9231 11.3077C5.9231 11.9025 6.40525 12.3846 7.00002 12.3846Z" fill="black"/>
</svg>
