<svg width="109" height="49" viewBox="0 0 109 49" fill="none" xmlns="http://www.w3.org/2000/svg">
<path d="M28.7207 7.2L23.2247 24H19.0487L15.3527 12.624L11.5367 24H7.38472L1.86472 7.2H5.89672L9.68872 19.008L13.6487 7.2H17.2487L21.0887 19.104L25.0007 7.2H28.7207ZM43.4192 20.88V24H30.4112V7.2H43.1072V10.32H34.2752V13.968H42.0752V16.992H34.2752V20.88H43.4192ZM57.0968 20.4H49.2968L47.8088 24H43.8248L51.3128 7.2H55.1528L62.6648 24H58.5848L57.0968 20.4ZM55.8728 17.448L53.2088 11.016L50.5448 17.448H55.8728ZM77.5358 20.832V24H62.8478V21.48L72.0638 10.368H63.0398V7.2H77.1758V9.72L67.9838 20.832H77.5358ZM92.5573 20.88V24H79.5493V7.2H92.2453V10.32H83.4133V13.968H91.2133V16.992H83.4133V20.88H92.5573ZM95.1709 7.2H99.0589V20.832H107.483V24H95.1709V7.2Z" fill="white"/>
<path fill-rule="evenodd" clip-rule="evenodd" d="M62 29H0V49H62V29ZM16.9249 44.8621V33.2759H14.3086V40.3103L8.61828 33.2759H6.42715V44.8621H9.04342V37.8276L14.7501 44.8621H16.9249ZM28.4956 44.8621V42.7103H22.2656V40.029H27.5799V37.9434H22.2656V35.4276H28.2831V33.2759H19.633V44.8621H28.4956ZM43.9992 44.8621L47.7437 33.2759H45.2092L42.5439 41.4855L39.9276 33.2759H37.4748L34.7768 41.4193L32.1933 33.2759H29.4462L33.2071 44.8621H36.0359L38.6358 37.0166L41.154 44.8621H43.9992ZM50.3507 44.6966C51.201 44.9393 52.0786 45.0607 52.9834 45.0607C54.0299 45.0607 54.9183 44.9007 55.6487 44.5807C56.3791 44.2607 56.9241 43.8303 57.2839 43.2897C57.6545 42.7379 57.8398 42.131 57.8398 41.469C57.8398 40.6966 57.6381 40.0841 57.2348 39.6317C56.8424 39.1793 56.3682 38.8483 55.8122 38.6386C55.2562 38.429 54.5422 38.2193 53.6701 38.0097C52.8307 37.8221 52.2039 37.6345 51.7897 37.4469C51.3864 37.2483 51.1847 36.9503 51.1847 36.5531C51.1847 36.1559 51.3591 35.8359 51.7079 35.5931C52.0677 35.3503 52.6182 35.229 53.3595 35.229C54.4169 35.229 55.4743 35.5324 56.5317 36.1393L57.3493 34.1034C56.826 33.7724 56.2155 33.5186 55.5179 33.3421C54.8202 33.1655 54.1062 33.0772 53.3758 33.0772C52.3293 33.0772 51.4409 33.2372 50.7105 33.5572C49.991 33.8772 49.4514 34.3131 49.0917 34.8648C48.7319 35.4055 48.5521 36.0124 48.5521 36.6855C48.5521 37.4579 48.7483 38.0759 49.1407 38.5393C49.5441 39.0028 50.0237 39.3393 50.5797 39.549C51.1356 39.7586 51.8497 39.9683 52.7217 40.1779C53.2886 40.3103 53.7355 40.4317 54.0626 40.5421C54.4005 40.6524 54.673 40.8014 54.8802 40.989C55.0982 41.1655 55.2072 41.3917 55.2072 41.6676C55.2072 42.0428 55.0273 42.3462 54.6676 42.5779C54.3078 42.7986 53.7519 42.909 52.9997 42.909C52.3239 42.909 51.648 42.7986 50.9721 42.5779C50.2962 42.3572 49.713 42.0648 49.2225 41.7007L48.3231 43.72C48.8355 44.1172 49.5114 44.4428 50.3507 44.6966Z" fill="white"/>
<rect x="66" y="45" width="43" height="4" fill="white"/>
<rect x="66" y="37" width="43" height="4" fill="white"/>
<rect x="66" y="29" width="43" height="4" fill="white"/>
</svg>
