<svg width="16" height="16" viewBox="0 0 16 16" fill="none" xmlns="http://www.w3.org/2000/svg">
<path d="M3.739 3.24421L10.1174 1.50317L9.77965 0.820403C9.55865 0.376608 9.01963 0.19334 8.57583 0.414339L2.86578 3.24421H3.739Z" fill="white"/>
<path d="M12.0975 1.55347C12.0184 1.55347 11.9394 1.56425 11.8603 1.58581L10.3618 1.99546L5.78552 3.2442H10.9799H13.2438L12.9635 2.21646C12.8557 1.81579 12.4928 1.55347 12.0975 1.55347Z" fill="white"/>
<path d="M14.1799 3.87305H13.9751H13.6966H13.4181H11.2925H3.48209H2.45795H1.59551H1.4356H0.900168C0.616283 3.87305 0.362942 4.00421 0.197642 4.21083C0.122179 4.30606 0.0646828 4.41566 0.0323414 4.53605C0.0125772 4.61151 0 4.69057 0 4.77142V4.87922V5.90337V14.7811C0 15.277 0.402471 15.6794 0.898372 15.6794H14.1781C14.674 15.6794 15.0765 15.277 15.0765 14.7811V12.2746H9.74554C8.90286 12.2746 8.2183 11.5901 8.2183 10.7474V9.92448V9.64598V9.36749V8.74941C8.2183 8.33616 8.38359 7.96066 8.65132 7.68575C8.88849 7.44138 9.20651 7.27608 9.56227 7.23475C9.62156 7.22759 9.68265 7.22397 9.74374 7.22397H14.329H14.6075H14.886H15.0765V4.77142C15.0783 4.27552 14.6758 3.87305 14.1799 3.87305Z" fill="white"/>
<path d="M15.7071 8.08277C15.6173 8.00012 15.5113 7.93723 15.3927 7.89591C15.301 7.86538 15.204 7.84741 15.1016 7.84741H15.0782H15.0603H14.7818H13.7774H9.74548C9.24956 7.84741 8.84711 8.24986 8.84711 8.74578V9.19316V9.47165V9.75015V10.7455C8.84711 11.2414 9.24956 11.6439 9.74548 11.6439H15.0782H15.1016C15.204 11.6439 15.301 11.6259 15.3927 11.5954C15.5113 11.5559 15.6173 11.4912 15.7071 11.4085C15.8868 11.245 16 11.0079 16 10.7456V8.74578C16 8.48344 15.8868 8.24625 15.7071 8.08277ZM11.6213 9.92443C11.6213 10.1724 11.4201 10.3736 11.1721 10.3736H10.8738C10.6259 10.3736 10.4247 10.1724 10.4247 9.92443V9.62617C10.4247 9.48243 10.4911 9.35484 10.5971 9.27399C10.6744 9.2147 10.7696 9.17699 10.8738 9.17699H10.9493H11.1721C11.4201 9.17699 11.6213 9.3782 11.6213 9.62617V9.92443Z" fill="white"/>
</svg>
