<svg width="16" height="16" viewBox="0 0 16 16" fill="none" xmlns="http://www.w3.org/2000/svg">
<g clip-path="url(#clip0)">
<path d="M16 9.67676V6.32324L14.6314 5.77539C14.5288 5.46973 14.4053 5.17186 14.2622 4.8838L14.8428 3.5293L12.4712 1.15625L11.1157 1.73827C10.8281 1.59471 10.5303 1.47165 10.2246 1.36912L9.67726 0H6.32274L5.77539 1.36915C5.46973 1.47169 5.17186 1.59474 4.88427 1.7383L3.5288 1.15628L1.15721 3.52933L1.73777 4.88383C1.59471 5.17192 1.47116 5.46976 1.36862 5.77542L0 6.32324V9.67676L1.36865 10.2246C1.47119 10.5303 1.59474 10.8281 1.73781 11.1162L1.15724 12.4707L3.52884 14.8438L4.8843 14.2617C5.17189 14.4053 5.46973 14.5283 5.77542 14.6309L6.32277 16H9.67726L10.2246 14.6309C10.5303 14.5283 10.8281 14.4053 11.1157 14.2617L12.4712 14.8438L14.8428 12.4707L14.2622 11.1162C14.4053 10.8281 14.5288 10.5303 14.6314 10.2246L16 9.67676ZM8 12C5.79444 12 4 10.2061 4 8C4 5.79395 5.79444 4 8 4C10.2056 4 12 5.79395 12 8C12 10.2061 10.2056 12 8 12Z" fill="white"/>
</g>
<defs>
<clipPath id="clip0">
<rect width="16" height="16" fill="white"/>
</clipPath>
</defs>
</svg>
