<svg width="16" height="14" viewBox="0 0 16 14" fill="none" xmlns="http://www.w3.org/2000/svg">
<path d="M15.6082 1.27394C15.3472 1.01285 15.0333 0.882324 14.6667 0.882324H1.33332C0.966668 0.882324 0.652871 1.01282 0.391611 1.27394C0.130498 1.53508 0 1.84888 0 2.21556V3.0469H16V2.21556C16 1.84888 15.8693 1.53508 15.6082 1.27394Z" fill="white"/>
<path fill-rule="evenodd" clip-rule="evenodd" d="M16 4.92926H0V12.3487C0 12.7155 0.130498 13.0293 0.391611 13.2905C0.652871 13.5516 0.966668 13.6821 1.33332 13.6821H14.6667C15.0333 13.6821 15.3471 13.5516 15.6082 13.2905C15.8693 13.0294 16 12.7155 16 12.3487V4.92926ZM2.13339 10.4821H4.26668V11.5489H2.13339V10.4821ZM8.53338 10.4821H5.33341V11.5489H8.53338V10.4821Z" fill="white"/>
</svg>
