<?xml version="1.0"?>
<svg xmlns="http://www.w3.org/2000/svg" xmlns:xlink="http://www.w3.org/1999/xlink" version="1.1" id="Capa_1" x="0px" y="0px" viewBox="0 0 512.007 512.007" style="enable-background:new 0 0 512.007 512.007;" xml:space="preserve" width="512px" height="512px"><g><g>
	<path d="M339.351,117.823c-18.035-18.035-41.85-30.3-68.347-33.696V71h35.999   c8.284,0,15-6.716,15-15V15c0-8.284-6.716-15-15-15h-51c-8.284,0-15,6.716-15,15l0,69.127   c-26.498,3.396-50.315,15.661-68.35,33.696c-16.392,16.393-28.017,37.561-32.549,61.178H371.9   C367.368,155.385,355.743,134.216,339.351,117.823z" data-original="#000000" class="active-path" data-old_color="#000000" fill="#FFFFFF"/>
	<path d="M0.004,224v243c0,8.284,6.716,15,15,15h92.955V209H15.004   C6.72,209,0.004,215.716,0.004,224z M44.959,269h18c8.284,0,15,6.716,15,15c0,8.284-6.716,15-15,15h-18c-8.284,0-15-6.716-15-15   C29.959,275.716,36.675,269,44.959,269z M44.959,329h18c8.284,0,15,6.716,15,15s-6.716,15-15,15h-18c-8.284,0-15-6.716-15-15   S36.675,329,44.959,329z M44.959,389h18c8.284,0,15,6.716,15,15s-6.716,15-15,15h-18c-8.284,0-15-6.716-15-15   S36.675,389,44.959,389z" data-original="#000000" class="active-path" data-old_color="#000000" fill="#FFFFFF"/>
	<path d="M226.526,411c-7.996,0-14.478,6.482-14.478,14.478v72.045   c0,7.996,6.482,14.478,14.478,14.478c7.996,0,14.477-6.482,14.477-14.478v-72.045C241.003,417.482,234.521,411,226.526,411z" data-original="#000000" class="active-path" data-old_color="#000000" fill="#FFFFFF"/>
	<path d="M285.481,411c-7.996,0-14.478,6.482-14.478,14.478v72.044   c0,7.996,6.482,14.478,14.478,14.478c7.996,0,14.478-6.482,14.478-14.478v-72.044C299.959,417.482,293.477,411,285.481,411z" data-original="#000000" class="active-path" data-old_color="#000000" fill="#FFFFFF"/>
	<path d="M497.003,209H403.96v273h93.043c8.284,0,15-6.716,15-15V224   C512.003,215.716,505.287,209,497.003,209z M466.959,419h-18c-8.284,0-15-6.716-15-15s6.716-15,15-15h18c8.284,0,15,6.716,15,15   S475.243,419,466.959,419z M466.959,359.001h-18c-8.284,0-15-6.716-15-15s6.716-15,15-15h18c8.284,0,15,6.716,15,15   S475.243,359.001,466.959,359.001z M466.959,299.001h-18c-8.284,0-15-6.716-15-15c0-8.284,6.716-15,15-15h18   c8.284,0,15,6.716,15,15C481.959,292.285,475.243,299.001,466.959,299.001z" data-original="#000000" class="active-path" data-old_color="#000000" fill="#FFFFFF"/>
	<path d="M138.003,497.008c0,8.827,7.561,15.704,16.324,14.941l27.717-0.001   L182.048,396c0-8.284,6.716-15,15-15h117.911c8.284,0,15,6.716,15,15l0.02,115.945l29.023-0.001c8.252,0,14.941-6.69,14.941-14.941   l0.057-288.002H138.003V497.008z M197.046,251h117.913c8.284,0,15,6.716,15,15s-6.716,15-15,15H197.046c-8.284,0-15-6.716-15-15   S188.762,251,197.046,251z M197.046,311h117.913c8.284,0,15,6.716,15,15c0,8.284-6.716,15-15,15H197.046c-8.284,0-15-6.716-15-15   C182.046,317.716,188.762,311,197.046,311z" data-original="#000000" class="active-path" data-old_color="#000000" fill="#FFFFFF"/>
</g></g> </svg>
