<?xml version="1.0"?>
<svg xmlns="http://www.w3.org/2000/svg" xmlns:xlink="http://www.w3.org/1999/xlink" version="1.1" id="Capa_1" x="0px" y="0px" width="512px" height="512px" viewBox="0 0 120.962 120.962" style="enable-background:new 0 0 120.962 120.962;" xml:space="preserve" class=""><g><g>
	<path d="M83.683,45.641l-0.268-0.314L69.6,29.125c-0.088-0.102-0.188-0.213-0.285-0.309c-0.341-0.299-0.758-0.561-1.216-0.793   c1.196,2.673,2.798,9.189,2.798,9.189l-3.731-3.344l1.399,2.635c-0.128,3.514-4.814,6.826-6.442,7.872h0.269v21.128h-0.81V44.712   c-0.003,0.002-0.017,0.01-0.017,0.01s-6.845-3.967-7.001-8.219l1.4-2.635l-3.733,3.344c0,0,1.515-6.158,2.697-8.959   c-0.211,0.121-0.421,0.25-0.628,0.346l-6.551,3.037l0.408-1.902l1.261-5.684l0.649-2.81l0.333-1.364l0.161-0.623l0.04-0.15   c0.112-0.223,0.192-0.459,0.26-0.7l1.577,0.577c2.505,4.991,8.045,8,13.844,7.039c7.137-1.18,11.964-7.923,10.782-15.058   c-1.18-7.137-7.922-11.964-15.057-10.784c-7.137,1.184-11.965,7.925-10.783,15.06c0.021,0.128,0.057,0.251,0.081,0.377l-1.123-0.41   c-0.231-0.29-0.489-0.556-0.764-0.744c-0.216-0.144-0.328-0.218-0.619-0.347c-0.296-0.127-0.673-0.242-1.11-0.282   c-0.339-0.042-0.702-0.001-1.058,0.074l-3.815-1.396c-0.716-0.259-1.514,0.107-1.777,0.825c-0.263,0.719,0.106,1.515,0.826,1.778   l2.167,0.793l-0.008,0.015l-0.093,0.191l-0.149,0.351L43.6,16.926l-0.282,0.77l-0.501,1.439l-0.942,2.817l-1.819,5.6L36.507,38.75   c-0.293,0.925-0.3,1.95,0.048,2.936c0.849,2.41,3.491,3.676,5.901,2.826l0.444-0.156l6.743-2.377l-0.075,21.858   c-0.006,1.835,0.412,3.568,1.144,5.127c-0.006,0.095-0.017,0.187-0.019,0.279l-0.586,46.847c-0.019,2.016,1.502,3.766,3.546,3.973   c2.166,0.219,4.1-1.359,4.319-3.525l3.867-38.272l3.751,39.133c0.199,2.007,1.902,3.582,3.957,3.564   c2.177-0.017,3.928-1.796,3.91-3.974l-0.381-47.213c-0.002-0.17-0.012-0.354-0.027-0.525c-0.039-0.408-0.119-0.802-0.233-1.179   c0.483-1.294,0.764-2.688,0.769-4.151l0.052-15.014l1.663,1.675l0.968,19.5c0.099,1.836,1.568,3.355,3.445,3.455   c2.008,0.104,3.721-1.438,3.826-3.446l1.127-21.551C84.717,47.522,84.395,46.477,83.683,45.641z M65.53,58.114   c-0.766,0-1.386-0.62-1.386-1.385c0-0.766,0.62-1.386,1.386-1.386s1.386,0.62,1.386,1.386   C66.916,57.495,66.295,58.114,65.53,58.114z M65.53,53.498c-0.766,0-1.386-0.621-1.386-1.387c0-0.764,0.62-1.385,1.386-1.385   s1.386,0.621,1.386,1.385C66.916,52.876,66.295,53.498,65.53,53.498z M61.582,44.71c-0.006,0.004-0.011,0.009-0.017,0.012   c-2.276-1.193-4.896-13.522-5.583-16.939c1.693-0.891,3.623-1.221,5.681-1.221c0.015,0,0.028,0,0.043,0   c0.939,0.004,3.419,0.277,5.474,1.059c-0.598,2.99-2.985,14.375-5.188,16.755h-0.409L61.582,44.71L61.582,44.71z M39.042,9.283   c-1.138-1.654,0.006-2.829,0.018-2.841l0.209,0.207c-0.042,0.042-0.978,1.02,0.017,2.465c0.447,0.652,0.599,1.186,0.451,1.59   c-0.144,0.393-0.519,0.5-0.534,0.503l-0.078-0.283c0.009-0.003,0.247-0.075,0.338-0.327C39.569,10.294,39.424,9.839,39.042,9.283z    M40.811,10.561c-1.137-1.654,0.006-2.828,0.017-2.84l0.209,0.207c-0.04,0.041-0.978,1.02,0.017,2.465   c0.447,0.651,0.6,1.186,0.453,1.588c-0.145,0.395-0.52,0.5-0.536,0.504l-0.077-0.283c0.009-0.004,0.248-0.074,0.337-0.326   C41.337,11.571,41.193,11.116,40.811,10.561z" data-original="#000000" class="active-path" data-old_color="#000000" fill="#FFFFFF"/>
</g></g> </svg>
