<?xml version="1.0"?>
<svg xmlns="http://www.w3.org/2000/svg" xmlns:xlink="http://www.w3.org/1999/xlink" version="1.1" id="Capa_1" x="0px" y="0px" width="512px" height="512px" viewBox="0 0 64.222 64.222" style="enable-background:new 0 0 64.222 64.222;" xml:space="preserve" class=""><g><g>
	<path d="M11.618,10.317l-3.225,3.225L3.964,9.117c0.45-0.405,0.917-0.778,1.413-1.103C7.544,8.477,9.644,9.245,11.618,10.317z    M13.129,11.209l-3.537,3.537l3.098,3.102l3.925-3.922C15.519,12.911,14.355,11.995,13.129,11.209z M15.336,6.597   c-2.499-0.762-5.204-0.673-7.659,0.257c1.799,0.54,3.531,1.282,5.18,2.222L15.336,6.597z M7.558,22.979l3.934-3.93L8.39,15.947   l-3.586,3.59C5.605,20.749,6.53,21.9,7.558,22.979z M17.812,12.726l2.794-2.794c-0.118-0.123-0.218-0.254-0.336-0.376   c-0.963-0.961-2.059-1.712-3.216-2.274l-2.71,2.707C15.565,10.792,16.724,11.708,17.812,12.726z M6.358,24.183   c-1.025-1.081-1.958-2.224-2.775-3.426l-2.38,2.38c0.56,1.161,1.312,2.254,2.277,3.214c0.119,0.119,0.25,0.222,0.369,0.339   L6.358,24.183z M0.48,14.587c-0.651,2.229-0.642,4.609,0.038,6.827l2.131-2.13C1.765,17.788,1.038,16.217,0.48,14.587z    M7.187,14.746l-4.415-4.413c-0.479,0.57-0.89,1.17-1.242,1.802c0.516,2.06,1.303,4.043,2.356,5.912L7.187,14.746z M15.385,30.669   c0.171-0.177,0.341-0.257,0.503-0.243c0.119,0.015,0.272,0.113,0.459,0.302l1.348,1.347l-3.488-0.397l-1.114,1.112l0.086,0.087   c0.096-0.096,0.183-0.149,0.259-0.178c0.075-0.021,0.189-0.025,0.341-0.009l0.147,0.016l2.213,2.214   c0.161,0.162,0.243,0.316,0.248,0.454c0,0.139-0.082,0.292-0.252,0.467l0.085,0.085l1.114-1.113l-0.079-0.084l-0.078,0.075   c-0.105,0.106-0.231,0.166-0.379,0.189c-0.145,0.018-0.31-0.062-0.488-0.242l-1.995-1.996l4.731,0.488l0.072-0.074l-2.605-2.609   c-0.147-0.147-0.242-0.266-0.275-0.35c-0.04-0.087-0.044-0.166-0.026-0.239c0.019-0.073,0.082-0.185,0.203-0.334l-0.083-0.087   l-1.036,1.036L15.385,30.669z M21.683,29.717c-0.042,0.31-0.211,0.613-0.503,0.909l-0.184,0.186   c-0.089,0.089-0.167,0.143-0.236,0.16c-0.062,0.016-0.122,0.009-0.173-0.013c-0.051-0.025-0.165-0.123-0.341-0.294l-0.883-0.883   c0.145-0.149,0.283-0.246,0.399-0.285c0.118-0.039,0.263-0.03,0.439,0.024c0.173,0.054,0.356,0.161,0.552,0.321l0.088-0.087   l-1.639-1.643l-0.091,0.089c0.224,0.268,0.348,0.506,0.388,0.721c0.032,0.218-0.049,0.423-0.248,0.619l-0.062,0.062l-1.275-1.275   l0.328-0.324c0.238-0.239,0.411-0.386,0.528-0.445c0.194-0.1,0.379-0.141,0.558-0.123c0.182,0.016,0.405,0.119,0.675,0.299   l0.087-0.089l-0.925-0.925l-2.621,2.621l0.086,0.087l0.103-0.103c0.1-0.101,0.201-0.159,0.303-0.178   c0.071-0.011,0.145,0,0.211,0.042c0.041,0.021,0.132,0.105,0.272,0.248l2.063,2.063c0.154,0.154,0.243,0.261,0.263,0.315   c0.033,0.075,0.038,0.143,0.016,0.203c-0.023,0.089-0.074,0.178-0.166,0.267l-0.1,0.103l0.082,0.087l2.707-2.708l-0.854-1.138   l-0.086,0.086C21.646,29.07,21.722,29.403,21.683,29.717z M23.565,22.489c0.125-0.119,0.229-0.185,0.307-0.189   c0.081-0.009,0.149,0.021,0.215,0.084c0.044,0.044,0.086,0.096,0.126,0.156c0.037,0.066,0.098,0.191,0.179,0.385l0.831,1.854   l-2.053-0.916c-0.252-0.111-0.397-0.186-0.432-0.221c-0.037-0.033-0.052-0.071-0.059-0.116c-0.007-0.042,0-0.084,0.024-0.129   c0.032-0.061,0.1-0.145,0.205-0.252l-0.087-0.087l-1.516,1.518l0.084,0.087c0.096-0.096,0.181-0.159,0.259-0.185   c0.078-0.025,0.161-0.025,0.261-0.002c0.098,0.026,0.274,0.091,0.528,0.203l0.465,0.202l0.693,1.679l-2.135-0.904   c-0.261-0.116-0.428-0.203-0.483-0.261c-0.047-0.047-0.063-0.1-0.056-0.166c0.005-0.066,0.061-0.16,0.169-0.269l-0.084-0.086   l-1.359,1.362l0.084,0.086c0.109-0.089,0.21-0.131,0.306-0.116c0.096,0.011,0.327,0.094,0.687,0.245l3.588,1.527l0.083-0.087   l-1.166-2.875l2.794,1.245l0.091-0.091l-1.603-3.569c-0.138-0.307-0.205-0.475-0.215-0.505c-0.027-0.087-0.032-0.166-0.023-0.23   c0.014-0.068,0.047-0.133,0.101-0.196l-0.087-0.086l-0.812,0.812L23.565,22.489z M27.035,21.223   c-0.39,0.133-0.648,0.211-0.769,0.231c-0.171,0.028-0.318,0.031-0.432,0c-0.087-0.021-0.166-0.065-0.241-0.133   c-0.109-0.11-0.156-0.252-0.147-0.427c0.009-0.178,0.091-0.344,0.245-0.5c0.203-0.206,0.47-0.312,0.804-0.33   c0.341-0.016,0.656,0.086,0.966,0.3l0.094-0.094l-1.072-1.021l-0.065,0.065c0.067,0.118,0.109,0.196,0.109,0.248   c0.005,0.044-0.014,0.086-0.054,0.129c-0.04,0.042-0.138,0.091-0.294,0.145c-0.152,0.059-0.274,0.105-0.366,0.161   c-0.118,0.069-0.231,0.156-0.332,0.259c-0.28,0.281-0.423,0.597-0.432,0.958c-0.009,0.357,0.114,0.662,0.361,0.911   c0.145,0.145,0.314,0.25,0.501,0.304c0.188,0.054,0.397,0.067,0.621,0.042c0.227-0.028,0.547-0.112,0.972-0.257   c0.307-0.104,0.53-0.166,0.67-0.182c0.145-0.017,0.269-0.009,0.374,0.018c0.114,0.031,0.201,0.084,0.272,0.156   c0.129,0.127,0.181,0.288,0.174,0.481c-0.007,0.196-0.098,0.383-0.27,0.554c-0.224,0.221-0.518,0.341-0.887,0.362   c-0.366,0.019-0.75-0.105-1.154-0.373L26.6,23.316l1.182,1.185l0.091-0.087c-0.042-0.089-0.049-0.173-0.038-0.247   c0.014-0.076,0.042-0.131,0.08-0.171c0.049-0.049,0.123-0.093,0.231-0.138c0.188-0.076,0.337-0.147,0.441-0.216   c0.109-0.069,0.212-0.152,0.308-0.248c0.317-0.316,0.479-0.668,0.497-1.063c0.014-0.393-0.109-0.72-0.371-0.981   c-0.207-0.205-0.452-0.327-0.739-0.359C27.996,20.962,27.585,21.036,27.035,21.223z M54.852,17.255   c-5.557,6.461-1.979,12.573,2.001,16.57c5.472,5.485,10.321,15.816,5.198,20.942c-2.389,2.388-5.333,3.544-8.524,3.349   c-1.544-0.096-3.079-0.618-4.599-1.349c-1.656,1.045-3.629,1.067-4.797-0.101L22.075,37.196l-4.109,4.11L7.112,30.45l1.189-1.187   c-1.094-0.342-2.144-0.83-3.116-1.498l2.385-2.385c0.81,0.751,1.669,1.424,2.552,2.06l1.215-1.212   c-0.885-0.628-1.748-1.301-2.565-2.048l3.924-3.922L15,22.564l1.206-1.204L13.9,19.056l3.936-3.934   c0.759,0.801,1.44,1.654,2.081,2.53l1.217-1.214c-0.649-0.869-1.333-1.722-2.095-2.519l2.654-2.65   c0.664,0.974,1.156,2.024,1.498,3.116l1.188-1.189l10.859,10.857l-4.108,4.107l19.466,22.058c0.97,0.969,1.118,2.486,0.548,3.928   c0.871,0.338,1.743,0.563,2.601,0.62c2.203,0.135,4.256-0.68,5.949-2.372c3.081-3.086-0.265-11.238-5.203-16.193   c-6.953-6.959-7.737-14.665-2.177-21.133L54.852,17.255z M33.309,24.049l-8.944-8.944L9.03,30.441l8.943,8.945L33.309,24.049z" data-original="#000000" class="active-path" data-old_color="#000000" fill="#FFFFFF"/>
</g></g> </svg>
