<svg xmlns="http://www.w3.org/2000/svg" height="575pt" version="1.1" viewBox="1 -119 575.961 575" width="575pt">
<g id="surface1">
<path d="M 153.886719 161.355469 C 152.597656 166.5 155.722656 171.714844 160.867188 173 C 161.628906 173.191406 162.414062 173.289062 163.199219 173.289062 L 201.597656 173.289062 C 206.902344 173.289062 211.199219 168.992188 211.199219 163.691406 L 211.199219 125.289062 C 211.199219 119.988281 206.898438 115.691406 201.597656 115.691406 L 172.800781 115.691406 C 168.394531 115.691406 164.558594 118.6875 163.488281 122.957031 Z M 180.296875 134.890625 L 192 134.890625 L 192 154.089844 L 175.5 154.089844 Z M 180.296875 134.890625 " style=" stroke:none;fill-rule:nonzero;fill:rgb(0%,0%,0%);fill-opacity:1;" />
<path d="M 172.800781 192.488281 L 211.199219 192.488281 L 211.199219 211.691406 L 172.800781 211.691406 Z M 172.800781 192.488281 " style=" stroke:none;fill-rule:nonzero;fill:rgb(0%,0%,0%);fill-opacity:1;" />
<path d="M 81.601562 269.289062 C 73.648438 269.289062 67.199219 275.738281 67.199219 283.691406 C 67.199219 291.640625 73.648438 298.089844 81.601562 298.089844 C 89.550781 298.089844 96 291.640625 96 283.691406 C 96 275.738281 89.554688 269.289062 81.601562 269.289062 Z M 81.601562 269.289062 " style=" stroke:none;fill-rule:nonzero;fill:rgb(0%,0%,0%);fill-opacity:1;" />
<path d="M 388.800781 269.289062 C 380.847656 269.289062 374.398438 275.738281 374.398438 283.691406 C 374.398438 291.640625 380.847656 298.089844 388.800781 298.089844 C 396.753906 298.089844 403.199219 291.640625 403.199219 283.691406 C 403.199219 275.738281 396.753906 269.289062 388.800781 269.289062 Z M 388.800781 269.289062 " style=" stroke:none;fill-rule:nonzero;fill:rgb(0%,0%,0%);fill-opacity:1;" />
<path d="M 553.988281 233.703125 C 552.1875 231.902344 549.746094 230.890625 547.199219 230.890625 L 288 230.890625 L 288 58.089844 L 297.601562 58.089844 C 302.003906 58.089844 305.839844 55.09375 306.910156 50.820312 L 316.511719 12.421875 C 317.800781 7.277344 314.675781 2.066406 309.53125 0.777344 C 308.769531 0.585938 307.984375 0.488281 307.199219 0.488281 L 278.398438 0.488281 C 251.902344 0.519531 230.429688 21.992188 230.398438 48.488281 L 230.398438 77.289062 L 165.464844 77.289062 C 154.546875 77.25 144.558594 83.425781 139.707031 93.207031 L 118.308594 135.992188 L 42.34375 151.210938 C 28.90625 153.925781 19.230469 165.722656 19.199219 179.433594 L 19.199219 190.769531 C 7.183594 199.027344 0.00390625 212.671875 0 227.25 L 0 278.890625 C 0 284.191406 4.296875 288.488281 9.601562 288.488281 L 29.039062 288.488281 C 31.816406 317.515625 57.601562 338.796875 86.628906 336.019531 C 111.816406 333.609375 131.75 313.675781 134.160156 288.488281 L 153.601562 288.488281 L 153.601562 317.289062 C 153.601562 322.589844 157.898438 326.886719 163.199219 326.886719 L 240 326.886719 C 245.304688 326.886719 249.601562 322.589844 249.601562 317.289062 L 249.601562 307.6875 L 341.828125 307.6875 C 355.015625 333.625 386.734375 343.957031 412.671875 330.769531 C 420.398438 326.839844 427.039062 321.058594 432 313.949219 C 448.671875 337.828125 481.542969 343.671875 505.425781 327.003906 C 518.191406 318.089844 526.367188 303.992188 527.761719 288.488281 L 566.402344 288.488281 C 571.703125 288.488281 576 284.191406 576 278.890625 L 576 259.6875 C 576 257.144531 574.988281 254.703125 573.1875 252.902344 Z M 40.664062 250.636719 C 38.703125 253.085938 36.964844 255.707031 35.472656 258.46875 C 35.347656 258.699219 35.164062 258.902344 35.050781 259.132812 C 33.457031 262.21875 32.171875 265.453125 31.210938 268.789062 C 31.210938 268.960938 31.066406 269.117188 31.007812 269.289062 L 19.199219 269.289062 L 19.199219 250.089844 L 41.019531 250.089844 C 40.886719 250.261719 40.800781 250.464844 40.664062 250.636719 Z M 81.601562 317.289062 C 63.042969 317.289062 48 302.246094 48 283.691406 C 48.023438 282.996094 48.097656 282.300781 48.210938 281.617188 L 48.429688 279.957031 C 50.355469 261.636719 66.765625 248.347656 85.082031 250.269531 C 100.746094 251.914062 113.121094 264.292969 114.769531 279.957031 L 114.988281 281.617188 C 115.105469 282.300781 115.175781 282.996094 115.199219 283.691406 C 115.199219 302.246094 100.15625 317.289062 81.601562 317.289062 Z M 153.601562 269.289062 L 132.191406 269.289062 C 132.132812 269.117188 132.039062 268.964844 131.988281 268.789062 C 131.027344 265.453125 129.742188 262.21875 128.148438 259.132812 C 128.035156 258.910156 127.871094 258.71875 127.746094 258.5 C 126.25 255.726562 124.503906 253.09375 122.535156 250.636719 C 122.398438 250.464844 122.3125 250.261719 122.179688 250.089844 L 153.601562 250.089844 Z M 230.398438 298.089844 L 230.398438 307.6875 L 172.800781 307.6875 L 172.800781 288.488281 L 230.398438 288.488281 Z M 230.398438 269.289062 L 172.800781 269.289062 L 172.800781 250.089844 L 230.398438 250.089844 Z M 230.398438 230.890625 L 19.199219 230.890625 L 19.199219 227.222656 C 19.214844 213.347656 30.460938 202.105469 44.332031 202.089844 L 84.136719 202.089844 C 93.664062 202.050781 102.382812 207.441406 106.609375 215.980469 L 123.792969 207.398438 C 116.3125 192.347656 100.941406 182.847656 84.136719 182.890625 L 44.332031 182.890625 C 42.34375 182.957031 40.363281 183.15625 38.402344 183.484375 L 38.402344 179.433594 C 38.394531 174.867188 41.605469 170.929688 46.082031 170.015625 L 126.71875 153.898438 C 129.628906 153.320312 132.109375 151.433594 133.441406 148.78125 L 156.933594 101.800781 C 158.550781 98.5625 161.847656 96.511719 165.464844 96.492188 L 230.402344 96.492188 L 230.402344 230.890625 Z M 249.601562 86.890625 L 249.601562 48.488281 C 249.601562 32.582031 262.496094 19.6875 278.398438 19.6875 L 294.902344 19.6875 L 290.101562 38.890625 L 278.398438 38.890625 C 273.097656 38.890625 268.800781 43.1875 268.800781 48.488281 L 268.800781 230.890625 L 249.597656 230.890625 L 249.597656 86.890625 Z M 336 278.890625 L 336 288.488281 L 249.601562 288.488281 L 249.601562 250.089844 L 336 250.089844 Z M 388.800781 317.289062 C 370.242188 317.289062 355.199219 302.246094 355.199219 283.691406 C 355.226562 282.996094 355.296875 282.300781 355.410156 281.617188 L 355.632812 279.957031 C 357.554688 261.636719 373.964844 248.347656 392.285156 250.269531 C 407.945312 251.914062 420.324219 264.292969 421.96875 279.957031 L 422.1875 281.617188 C 422.304688 282.300781 422.375 282.996094 422.398438 283.691406 C 422.398438 302.246094 407.355469 317.289062 388.800781 317.289062 Z M 433.996094 250.925781 L 433.429688 251.683594 C 432.949219 252.304688 432.472656 252.921875 432 253.601562 C 431.550781 252.949219 431.039062 252.335938 430.570312 251.683594 L 430.003906 250.925781 C 429.785156 250.644531 429.59375 250.359375 429.378906 250.089844 L 434.621094 250.089844 C 434.410156 250.359375 434.21875 250.644531 433.996094 250.925781 Z M 475.199219 317.289062 C 456.644531 317.289062 441.601562 302.246094 441.601562 283.691406 C 441.625 282.996094 441.695312 282.300781 441.8125 281.617188 L 442.03125 279.957031 C 443.957031 261.636719 460.363281 248.347656 478.683594 250.269531 C 494.347656 251.914062 506.722656 264.292969 508.367188 279.957031 L 508.589844 281.617188 C 508.703125 282.300781 508.773438 282.996094 508.800781 283.691406 C 508.800781 302.246094 493.757812 317.289062 475.199219 317.289062 Z M 556.800781 269.289062 L 525.792969 269.289062 C 525.734375 269.117188 525.636719 268.964844 525.589844 268.789062 C 524.628906 265.453125 523.34375 262.21875 521.75 259.132812 C 521.636719 258.910156 521.472656 258.71875 521.347656 258.5 C 519.851562 255.726562 518.105469 253.09375 516.136719 250.636719 C 516 250.464844 515.914062 250.261719 515.78125 250.089844 L 543.226562 250.089844 L 556.800781 263.664062 Z M 556.800781 269.289062 " style=" stroke:none;fill-rule:nonzero;fill:rgb(0%,0%,0%);fill-opacity:1;" />
<path d="M 475.199219 269.289062 C 467.246094 269.289062 460.800781 275.738281 460.800781 283.691406 C 460.800781 291.640625 467.246094 298.089844 475.199219 298.089844 C 483.152344 298.089844 489.601562 291.640625 489.601562 283.691406 C 489.601562 275.738281 483.152344 269.289062 475.199219 269.289062 Z M 475.199219 269.289062 " style=" stroke:none;fill-rule:nonzero;fill:rgb(0%,0%,0%);fill-opacity:1;" />
</g>
</svg>