<svg xmlns="http://www.w3.org/2000/svg" height="575pt" version="1.1" viewBox="0 0 575.973 575" width="575pt">
<g id="surface1">
<path d="M 4.445312 277.382812 L 110.042969 344.578125 C 111.582031 345.558594 113.371094 346.078125 115.195312 346.078125 L 234.0625 346.078125 L 125.804688 562.582031 C 123.433594 567.324219 125.359375 573.089844 130.101562 575.460938 C 131.433594 576.125 132.90625 576.472656 134.394531 576.472656 L 191.996094 576.472656 C 195.015625 576.472656 197.863281 575.046875 199.671875 572.632812 L 225.59375 538.070312 L 259.191406 538.070312 C 275.054688 538.101562 287.941406 525.269531 287.96875 509.40625 C 287.996094 496.785156 279.777344 485.625 267.714844 481.902344 L 297.589844 442.074219 L 326.390625 442.074219 C 342.265625 442.058594 355.117188 429.175781 355.101562 413.300781 C 355.089844 402.203125 348.6875 392.101562 338.660156 387.355469 L 369.589844 346.074219 L 536.71875 346.074219 C 558.402344 346.082031 575.988281 328.511719 575.996094 306.828125 C 576.003906 291.945312 567.59375 278.335938 554.277344 271.6875 L 533.640625 261.367188 C 513.539062 241.75 486.542969 230.800781 458.453125 230.878906 L 369.589844 230.878906 L 338.660156 189.601562 C 353.003906 182.804688 359.128906 165.667969 352.335938 151.324219 C 347.585938 141.292969 337.488281 134.894531 326.390625 134.882812 L 297.59375 134.882812 L 267.71875 95.054688 C 282.875 90.375 291.371094 74.296875 286.695312 59.140625 C 282.972656 47.078125 271.816406 38.859375 259.191406 38.886719 L 225.59375 38.886719 L 199.675781 4.328125 C 197.863281 1.910156 195.015625 0.488281 191.996094 0.488281 L 134.398438 0.488281 C 129.09375 0.484375 124.796875 4.78125 124.792969 10.082031 C 124.792969 11.574219 125.136719 13.042969 125.804688 14.378906 L 234.0625 230.878906 L 92.328125 230.878906 L 47.039062 140.191406 C 45.402344 136.921875 42.054688 134.863281 38.398438 134.882812 L 9.597656 134.882812 C 4.296875 134.882812 0 139.179688 0 144.484375 L 0 269.277344 C 0 272.5625 1.675781 275.621094 4.445312 277.382812 Z M 268.792969 509.273438 C 268.792969 514.574219 264.496094 518.871094 259.191406 518.871094 L 239.992188 518.871094 L 254.394531 499.671875 L 259.191406 499.671875 C 264.496094 499.675781 268.792969 503.972656 268.792969 509.273438 Z M 326.390625 422.875 L 311.992188 422.875 L 326.390625 403.675781 C 331.695312 403.675781 335.992188 407.972656 335.992188 413.277344 C 335.992188 418.578125 331.695312 422.875 326.390625 422.875 Z M 187.195312 557.273438 L 149.929688 557.273438 L 255.527344 346.078125 L 345.589844 346.078125 Z M 326.390625 154.082031 C 331.695312 154.082031 335.992188 158.382812 335.992188 163.683594 C 335.992188 168.984375 331.695312 173.28125 326.390625 173.28125 L 311.992188 154.082031 Z M 259.191406 58.085938 C 264.496094 58.085938 268.792969 62.382812 268.792969 67.683594 C 268.792969 72.988281 264.496094 77.285156 259.191406 77.285156 L 254.394531 77.285156 L 239.992188 58.085938 Z M 149.929688 19.6875 L 187.195312 19.6875 L 345.589844 230.878906 L 255.527344 230.878906 Z M 19.199219 154.082031 L 32.464844 154.082031 L 70.863281 230.882812 L 19.199219 230.882812 Z M 19.199219 250.082031 L 458.457031 250.082031 C 478.457031 250.039062 497.871094 256.8125 513.511719 269.28125 L 470.386719 269.28125 L 470.386719 288.480469 L 544.921875 288.480469 L 545.699219 288.875 C 555.609375 293.832031 559.621094 305.886719 554.660156 315.796875 C 551.261719 322.585938 544.320312 326.878906 536.722656 326.878906 L 117.988281 326.878906 L 19.199219 264.011719 Z M 19.199219 250.082031 " style=" stroke:none;fill-rule:nonzero;fill:rgb(0%,0%,0%);fill-opacity:1;" />
<path d="M 431.988281 269.28125 L 451.1875 269.28125 L 451.1875 288.480469 L 431.988281 288.480469 Z M 431.988281 269.28125 " style=" stroke:none;fill-rule:nonzero;fill:rgb(0%,0%,0%);fill-opacity:1;" />
<path d="M 393.589844 269.28125 L 412.789062 269.28125 L 412.789062 288.480469 L 393.589844 288.480469 Z M 393.589844 269.28125 " style=" stroke:none;fill-rule:nonzero;fill:rgb(0%,0%,0%);fill-opacity:1;" />
<path d="M 355.191406 269.28125 L 374.390625 269.28125 L 374.390625 288.480469 L 355.191406 288.480469 Z M 355.191406 269.28125 " style=" stroke:none;fill-rule:nonzero;fill:rgb(0%,0%,0%);fill-opacity:1;" />
<path d="M 316.792969 269.28125 L 335.992188 269.28125 L 335.992188 288.480469 L 316.792969 288.480469 Z M 316.792969 269.28125 " style=" stroke:none;fill-rule:nonzero;fill:rgb(0%,0%,0%);fill-opacity:1;" />
<path d="M 278.394531 269.28125 L 297.59375 269.28125 L 297.59375 288.480469 L 278.394531 288.480469 Z M 278.394531 269.28125 " style=" stroke:none;fill-rule:nonzero;fill:rgb(0%,0%,0%);fill-opacity:1;" />
<path d="M 239.992188 269.28125 L 259.191406 269.28125 L 259.191406 288.480469 L 239.992188 288.480469 Z M 239.992188 269.28125 " style=" stroke:none;fill-rule:nonzero;fill:rgb(0%,0%,0%);fill-opacity:1;" />
<path d="M 201.59375 269.28125 L 220.792969 269.28125 L 220.792969 288.480469 L 201.59375 288.480469 Z M 201.59375 269.28125 " style=" stroke:none;fill-rule:nonzero;fill:rgb(0%,0%,0%);fill-opacity:1;" />
<path d="M 163.195312 269.28125 L 182.394531 269.28125 L 182.394531 288.480469 L 163.195312 288.480469 Z M 163.195312 269.28125 " style=" stroke:none;fill-rule:nonzero;fill:rgb(0%,0%,0%);fill-opacity:1;" />
<path d="M 124.796875 269.28125 L 143.996094 269.28125 L 143.996094 288.480469 L 124.796875 288.480469 Z M 124.796875 269.28125 " style=" stroke:none;fill-rule:nonzero;fill:rgb(0%,0%,0%);fill-opacity:1;" />
</g>
</svg>