<svg xmlns="http://www.w3.org/2000/svg" height="575pt" version="1.1" viewBox="1 -158 575.955 575" width="575pt">
<g id="surface1">
<path d="M 537.109375 131.855469 C 535.804688 127.9375 532.136719 125.292969 528.007812 125.289062 L 505.859375 125.289062 L 479.402344 54.710938 C 477.992188 50.964844 474.40625 48.484375 470.40625 48.488281 L 453.316406 48.488281 L 460.613281 12.011719 C 461.675781 6.816406 458.324219 1.746094 453.128906 0.683594 C 452.496094 0.554688 451.851562 0.488281 451.203125 0.488281 L 422.40625 0.488281 C 419.488281 0.488281 416.730469 1.8125 414.90625 4.089844 L 379.386719 48.492188 L 355.203125 48.492188 L 355.203125 0.488281 L 336.003906 0.488281 L 336.003906 48.492188 L 201.601562 48.492188 C 198.582031 48.492188 195.734375 49.914062 193.921875 52.332031 L 139.203125 125.292969 L 9.601562 125.292969 C 4.296875 125.292969 0 129.589844 0 134.890625 C 0 137.292969 0.902344 139.609375 2.527344 141.382812 L 108.128906 256.582031 C 109.945312 258.566406 112.511719 259.691406 115.203125 259.691406 L 566.410156 259.691406 C 571.710938 259.6875 576.003906 255.386719 576 250.085938 C 576 249.054688 575.835938 248.035156 575.507812 247.058594 Z M 427.015625 19.691406 L 439.492188 19.691406 L 433.734375 48.488281 L 403.972656 48.488281 Z M 177.601562 106.089844 L 307.203125 106.089844 L 307.203125 86.890625 L 192.003906 86.890625 L 206.402344 67.691406 L 463.753906 67.691406 L 485.355469 125.289062 L 163.203125 125.289062 Z M 31.421875 144.492188 L 521.085938 144.492188 L 540.285156 202.089844 L 84.222656 202.089844 Z M 119.417969 240.492188 L 101.820312 221.289062 L 546.6875 221.289062 L 553.082031 240.492188 Z M 119.417969 240.492188 " style=" stroke:none;fill-rule:nonzero;fill:rgb(0%,0%,0%);fill-opacity:1;" />
<path d="M 105.601562 163.691406 L 124.804688 163.691406 L 124.804688 182.890625 L 105.601562 182.890625 Z M 105.601562 163.691406 " style=" stroke:none;fill-rule:nonzero;fill:rgb(0%,0%,0%);fill-opacity:1;" />
<path d="M 144.003906 163.691406 L 163.203125 163.691406 L 163.203125 182.890625 L 144.003906 182.890625 Z M 144.003906 163.691406 " style=" stroke:none;fill-rule:nonzero;fill:rgb(0%,0%,0%);fill-opacity:1;" />
<path d="M 182.402344 163.691406 L 201.601562 163.691406 L 201.601562 182.890625 L 182.402344 182.890625 Z M 182.402344 163.691406 " style=" stroke:none;fill-rule:nonzero;fill:rgb(0%,0%,0%);fill-opacity:1;" />
<path d="M 220.804688 163.691406 L 240.003906 163.691406 L 240.003906 182.890625 L 220.804688 182.890625 Z M 220.804688 163.691406 " style=" stroke:none;fill-rule:nonzero;fill:rgb(0%,0%,0%);fill-opacity:1;" />
<path d="M 326.402344 86.890625 L 345.605469 86.890625 L 345.605469 106.089844 L 326.402344 106.089844 Z M 326.402344 86.890625 " style=" stroke:none;fill-rule:nonzero;fill:rgb(0%,0%,0%);fill-opacity:1;" />
<path d="M 364.804688 86.890625 L 384.003906 86.890625 L 384.003906 106.089844 L 364.804688 106.089844 Z M 364.804688 86.890625 " style=" stroke:none;fill-rule:nonzero;fill:rgb(0%,0%,0%);fill-opacity:1;" />
<path d="M 403.207031 86.890625 L 422.40625 86.890625 L 422.40625 106.089844 L 403.207031 106.089844 Z M 403.207031 86.890625 " style=" stroke:none;fill-rule:nonzero;fill:rgb(0%,0%,0%);fill-opacity:1;" />
<path d="M 412.804688 163.691406 L 432.007812 163.691406 L 432.007812 182.890625 L 412.804688 182.890625 Z M 412.804688 163.691406 " style=" stroke:none;fill-rule:nonzero;fill:rgb(0%,0%,0%);fill-opacity:1;" />
<path d="M 451.207031 163.691406 L 470.40625 163.691406 L 470.40625 182.890625 L 451.207031 182.890625 Z M 451.207031 163.691406 " style=" stroke:none;fill-rule:nonzero;fill:rgb(0%,0%,0%);fill-opacity:1;" />
<path d="M 336.003906 163.691406 L 355.207031 163.691406 L 355.207031 182.890625 L 336.003906 182.890625 Z M 336.003906 163.691406 " style=" stroke:none;fill-rule:nonzero;fill:rgb(0%,0%,0%);fill-opacity:1;" />
<path d="M 297.605469 163.691406 L 316.804688 163.691406 L 316.804688 182.890625 L 297.605469 182.890625 Z M 297.605469 163.691406 " style=" stroke:none;fill-rule:nonzero;fill:rgb(0%,0%,0%);fill-opacity:1;" />
<path d="M 259.203125 163.691406 L 278.402344 163.691406 L 278.402344 182.890625 L 259.203125 182.890625 Z M 259.203125 163.691406 " style=" stroke:none;fill-rule:nonzero;fill:rgb(0%,0%,0%);fill-opacity:1;" />
<path d="M 374.40625 163.691406 L 393.605469 163.691406 L 393.605469 182.890625 L 374.40625 182.890625 Z M 374.40625 163.691406 " style=" stroke:none;fill-rule:nonzero;fill:rgb(0%,0%,0%);fill-opacity:1;" />
</g>
</svg>