<svg xmlns="http://www.w3.org/2000/svg" height="576pt" version="1.1" viewBox="0 -137 576.80512 576" width="576pt">
<g id="surface1">
<path d="M 480.886719 109.859375 C 438.910156 109.6875 401.75 136.976562 389.347656 177.078125 L 374.300781 177.078125 L 411.335938 97.710938 C 414.746094 96.945312 418.136719 96.070312 421.46875 94.96875 C 430.039062 92.105469 439.019531 90.648438 448.058594 90.65625 L 509.695312 90.65625 C 515 90.65625 519.296875 86.355469 519.296875 81.054688 C 519.296875 75.75 515 71.449219 509.695312 71.449219 L 496.425781 71.449219 L 499.085938 66.140625 C 499.289062 65.734375 499.460938 65.3125 499.605469 64.882812 C 500.910156 60.964844 504.574219 58.316406 508.707031 58.316406 L 514.074219 58.316406 L 514.074219 39.109375 L 508.734375 39.109375 C 496.613281 39.109375 485.785156 46.703125 481.65625 58.101562 L 480.695312 59.964844 C 479.734375 44.855469 467.21875 33.082031 452.082031 33.039062 L 448.058594 33.039062 C 436.960938 33.039062 425.9375 34.824219 415.40625 38.332031 C 406.855469 41.183594 397.902344 42.640625 388.886719 42.640625 L 310.296875 42.640625 C 295.753906 24.441406 273.722656 13.839844 250.425781 13.835938 L 212.015625 13.835938 C 202.882812 13.851562 193.945312 16.5 186.273438 21.460938 L 192.035156 8.015625 L 174.382812 0.449219 L 163.3125 26.320312 C 156.105469 18.398438 145.902344 13.867188 135.195312 13.835938 L 125.59375 13.835938 C 120.289062 13.835938 115.992188 18.136719 115.992188 23.4375 L 115.992188 81.054688 C 115.992188 86.355469 120.289062 90.65625 125.59375 90.65625 L 135.195312 90.65625 C 135.386719 90.65625 135.5625 90.65625 135.753906 90.597656 L 125.59375 114.289062 C 74.855469 98.175781 20.660156 126.246094 4.546875 176.984375 C -11.566406 227.722656 16.503906 281.914062 67.242188 298.027344 C 117.980469 314.140625 172.175781 286.070312 188.285156 235.332031 C 202.171875 191.613281 183.320312 144.164062 143.222656 121.890625 L 160.945312 80.542969 L 212.648438 213.492188 L 212.761719 213.492188 C 216.382812 231.414062 232.136719 244.300781 250.425781 244.296875 L 327.246094 244.296875 C 336.515625 244.261719 345.453125 240.847656 352.386719 234.695312 L 389.34375 234.695312 C 405.253906 285.285156 459.164062 313.398438 509.757812 297.488281 C 560.347656 281.578125 588.460938 227.667969 572.550781 177.078125 C 559.964844 137.054688 522.847656 109.832031 480.886719 109.859375 Z M 135.195312 205.886719 C 135.195312 227.097656 117.996094 244.296875 96.785156 244.296875 C 75.570312 244.296875 58.375 227.097656 58.375 205.886719 C 58.375 184.671875 75.570312 167.476562 96.785156 167.476562 C 98.71875 167.523438 100.644531 167.71875 102.546875 168.0625 L 87.960938 202.105469 L 105.609375 209.671875 L 120.1875 175.648438 C 129.609375 182.851562 135.15625 194.023438 135.195312 205.886719 Z M 173.605469 205.886719 C 173.738281 248.445312 139.34375 283.054688 96.785156 283.1875 C 54.222656 283.320312 19.617188 248.925781 19.484375 206.367188 C 19.351562 163.804688 53.746094 129.199219 96.304688 129.066406 C 103.628906 129.042969 110.921875 130.066406 117.957031 132.097656 L 110.277344 149.941406 C 79.324219 142.441406 48.152344 161.453125 40.65625 192.402344 C 33.15625 223.355469 52.164062 254.527344 83.117188 262.027344 C 114.066406 269.523438 145.238281 250.515625 152.738281 219.5625 C 158.519531 195.703125 148.5625 170.804688 127.925781 157.507812 L 135.609375 139.703125 C 159.109375 153.46875 173.566406 178.648438 173.605469 205.886719 Z M 145.191406 68.570312 C 142.191406 70.441406 138.730469 71.441406 135.195312 71.449219 L 135.195312 33.042969 C 144.21875 33.050781 152.015625 39.339844 153.9375 48.15625 Z M 378.925781 119.464844 L 336.308594 119.464844 L 330.546875 100.257812 L 388.527344 100.257812 Z M 388.886719 61.847656 C 399.980469 61.851562 411.003906 60.0625 421.535156 56.558594 C 430.085938 53.703125 439.042969 52.246094 448.054688 52.246094 L 452.078125 52.246094 C 457.382812 52.246094 461.683594 56.546875 461.683594 61.847656 C 461.683594 67.152344 457.382812 71.449219 452.078125 71.449219 L 442.476562 71.449219 C 442.011719 71.507812 441.546875 71.601562 441.09375 71.726562 C 432.363281 72.304688 423.742188 73.988281 415.4375 76.742188 C 406.875 79.597656 397.910156 81.054688 388.886719 81.050781 L 326.585938 81.050781 C 325.761719 74.460938 324.082031 68.003906 321.589844 61.847656 Z M 310.480469 100.257812 L 319.84375 131.800781 C 319.910156 132.03125 320.0625 132.214844 320.148438 132.4375 L 330.769531 167.832031 C 329.589844 167.726562 328.457031 167.476562 327.246094 167.476562 L 314.542969 167.476562 L 300.644531 132.742188 C 298.4375 127.277344 294.023438 123.003906 288.488281 120.972656 C 288.699219 119.839844 288.8125 118.691406 288.835938 117.542969 L 288.835938 100.257812 Z M 293.859375 167.476562 L 256.925781 167.476562 L 246.449219 141.300781 C 246.058594 140.3125 246.539062 139.195312 247.523438 138.804688 C 247.75 138.714844 247.992188 138.667969 248.234375 138.667969 L 281.027344 138.667969 C 281.816406 138.667969 282.523438 139.148438 282.8125 139.878906 Z M 183.207031 71.449219 L 183.207031 61.847656 C 183.207031 45.9375 196.105469 33.039062 212.015625 33.039062 L 250.425781 33.039062 C 269.351562 33.09375 287.035156 42.476562 297.6875 58.121094 L 304.679688 81.050781 L 192.808594 81.050781 C 187.507812 81.054688 183.207031 76.753906 183.207031 71.449219 Z M 205.4375 141.894531 L 189.113281 99.882812 C 190.335938 100.089844 191.570312 100.214844 192.808594 100.257812 L 269.632812 100.257812 L 269.632812 117.542969 C 269.632812 118.601562 268.769531 119.464844 267.710938 119.464844 L 248.238281 119.464844 C 237.308594 119.4375 228.183594 127.78125 227.234375 138.667969 L 215.855469 138.667969 C 212.140625 138.703125 208.519531 139.828125 205.4375 141.894531 Z M 215.855469 157.875 L 232.390625 157.875 L 237.191406 169.953125 C 232.398438 171.71875 228 174.417969 224.257812 177.894531 Z M 250.425781 225.09375 C 239.820312 225.09375 231.21875 216.492188 231.21875 205.886719 C 231.21875 195.28125 239.820312 186.679688 250.425781 186.679688 C 261.03125 186.679688 269.632812 195.28125 269.632812 205.886719 C 269.632812 216.492188 261.03125 225.09375 250.425781 225.09375 Z M 346 209.949219 C 345.933594 210.238281 345.816406 210.507812 345.730469 210.792969 C 344.925781 213.714844 343.460938 216.40625 341.449219 218.667969 C 341.398438 218.730469 341.351562 218.796875 341.3125 218.871094 C 337.703125 222.824219 332.601562 225.082031 327.246094 225.09375 L 283.496094 225.09375 C 290.617188 213.277344 290.617188 198.496094 283.496094 186.683594 L 327.246094 186.683594 C 332.601562 186.695312 337.703125 188.949219 341.3125 192.902344 C 341.351562 192.976562 341.398438 193.042969 341.449219 193.105469 C 343.460938 195.367188 344.925781 198.0625 345.730469 200.980469 C 345.816406 201.269531 345.933594 201.535156 346 201.824219 C 346.601562 204.5 346.601562 207.273438 346 209.949219 Z M 342.074219 138.667969 L 371.0625 138.667969 L 353.414062 176.484375 Z M 364.40625 215.488281 C 364.492188 215.152344 364.53125 214.808594 364.609375 214.472656 C 364.753906 213.847656 364.867188 213.222656 364.976562 212.550781 C 365.890625 208.117188 365.890625 203.542969 364.976562 199.105469 C 364.878906 198.558594 364.8125 198.023438 364.695312 197.492188 L 364.753906 197.492188 L 365.371094 196.28125 L 480.886719 196.28125 L 480.886719 215.488281 Z M 490.492188 177.078125 L 455.535156 177.078125 C 457.097656 175.714844 458.773438 174.484375 460.539062 173.402344 C 461.097656 173.054688 461.671875 172.765625 462.25 172.441406 C 463.519531 171.71875 464.835938 171.078125 466.1875 170.519531 C 466.859375 170.230469 467.550781 169.972656 468.242188 169.730469 C 469.632812 169.25 471.046875 168.847656 472.484375 168.53125 C 473.140625 168.386719 473.773438 168.207031 474.40625 168.101562 C 476.542969 167.703125 478.714844 167.496094 480.886719 167.476562 C 502.101562 167.476562 519.296875 184.671875 519.296875 205.886719 C 519.296875 227.097656 502.101562 244.296875 480.886719 244.296875 C 478.734375 244.28125 476.589844 244.082031 474.472656 243.699219 C 473.8125 243.59375 473.175781 243.414062 472.550781 243.269531 C 471.113281 242.949219 469.699219 242.550781 468.308594 242.066406 C 467.617188 241.828125 466.925781 241.570312 466.253906 241.28125 C 464.902344 240.722656 463.585938 240.078125 462.316406 239.359375 C 461.738281 239.042969 461.164062 238.753906 460.605469 238.398438 C 458.828125 237.304688 457.144531 236.066406 455.574219 234.691406 L 490.488281 234.691406 C 495.792969 234.691406 500.089844 230.394531 500.089844 225.089844 L 500.089844 186.679688 C 500.09375 181.378906 495.792969 177.078125 490.492188 177.078125 Z M 480.886719 282.707031 C 449.546875 282.84375 421.308594 263.804688 409.695312 234.695312 L 431.039062 234.695312 C 431.222656 235.019531 431.460938 235.300781 431.65625 235.65625 C 432.222656 236.613281 432.84375 237.449219 433.460938 238.34375 C 434.363281 239.660156 435.273438 240.964844 436.285156 242.183594 C 436.984375 243.039062 437.722656 243.855469 438.472656 244.671875 C 439.511719 245.8125 440.574219 246.917969 441.710938 247.964844 C 442.523438 248.734375 443.371094 249.464844 444.226562 250.175781 C 445.40625 251.132812 446.605469 252.09375 447.855469 252.941406 C 448.765625 253.582031 449.679688 254.207031 450.628906 254.804688 C 451.9375 255.609375 453.28125 256.339844 454.652344 257.039062 C 455.613281 257.539062 456.574219 258.058594 457.535156 258.5 C 458.992188 259.152344 460.5 259.691406 462.019531 260.210938 C 462.980469 260.554688 463.941406 260.941406 464.96875 261.226562 C 466.667969 261.71875 468.40625 262.054688 470.152344 262.390625 C 471.027344 262.550781 471.882812 262.792969 472.765625 262.917969 C 504.257812 267.480469 533.484375 245.648438 538.046875 214.160156 C 542.609375 182.667969 520.777344 153.441406 489.289062 148.878906 C 483.808594 148.082031 478.242188 148.082031 472.765625 148.878906 C 471.882812 149.003906 471.035156 149.242188 470.164062 149.40625 C 468.414062 149.734375 466.667969 150.078125 464.957031 150.570312 C 463.996094 150.855469 463.039062 151.242188 462.078125 151.578125 C 460.558594 152.105469 459.050781 152.644531 457.582031 153.296875 C 456.625 153.738281 455.664062 154.257812 454.703125 154.753906 C 453.328125 155.457031 451.984375 156.1875 450.679688 156.992188 C 449.71875 157.589844 448.816406 158.210938 447.902344 158.855469 C 446.625 159.726562 445.414062 160.648438 444.273438 161.621094 C 443.417969 162.332031 442.574219 163.0625 441.757812 163.832031 C 440.632812 164.875 439.558594 165.980469 438.523438 167.125 C 437.773438 167.941406 437.035156 168.757812 436.332031 169.609375 C 435.371094 170.847656 434.410156 172.15625 433.507812 173.453125 C 432.894531 174.347656 432.269531 175.210938 431.703125 176.140625 C 431.511719 176.46875 431.273438 176.746094 431.089844 177.101562 L 409.695312 177.101562 C 425.59375 137.765625 470.371094 118.769531 509.707031 134.667969 C 549.042969 150.566406 568.039062 195.34375 552.140625 234.679688 C 540.402344 263.714844 512.207031 282.71875 480.886719 282.707031 Z M 480.886719 282.707031 " style=" stroke:none;fill-rule:nonzero;fill:rgb(0%,0%,0%);fill-opacity:1;" />
</g>
</svg>