<svg xmlns="http://www.w3.org/2000/svg" height="575pt" version="1.1" viewBox="1 -134 575.961 575" width="575pt">
<g id="surface1">
<path d="M 9.601562 269.289062 L 58.558594 269.289062 C 63.769531 295.191406 88.988281 311.964844 114.890625 306.753906 C 126.566406 304.40625 136.945312 297.789062 144 288.191406 C 159.648438 309.476562 189.589844 314.046875 210.875 298.398438 C 220.472656 291.34375 227.089844 280.964844 229.441406 269.289062 L 423.359375 269.289062 C 428.636719 295.269531 453.972656 312.054688 479.953125 306.777344 C 498.839844 302.941406 513.605469 288.179688 517.441406 269.289062 L 566.402344 269.289062 C 571.703125 269.289062 576 264.992188 576 259.691406 L 576 186.796875 C 576.003906 177.074219 574.863281 167.386719 572.613281 157.929688 L 551.644531 69.773438 C 548.023438 51.839844 532.285156 38.933594 513.992188 38.890625 L 226.734375 38.890625 L 210.238281 5.796875 C 208.605469 2.527344 205.253906 0.46875 201.601562 0.488281 L 67.199219 0.488281 C 63.5625 0.488281 60.234375 2.542969 58.609375 5.796875 L 42.066406 38.890625 L 9.601562 38.890625 C 4.296875 38.890625 0 43.1875 0 48.488281 L 0 259.6875 C 0 264.992188 4.296875 269.289062 9.601562 269.289062 Z M 105.601562 288.488281 C 89.695312 288.488281 76.800781 275.59375 76.800781 259.6875 C 76.800781 243.78125 89.695312 230.890625 105.601562 230.890625 C 121.507812 230.890625 134.398438 243.78125 134.398438 259.6875 C 134.398438 275.59375 121.503906 288.488281 105.601562 288.488281 Z M 182.398438 288.488281 C 166.492188 288.488281 153.601562 275.59375 153.601562 259.6875 C 153.601562 243.78125 166.492188 230.890625 182.398438 230.890625 C 198.304688 230.890625 211.199219 243.78125 211.199219 259.6875 C 211.199219 275.59375 198.304688 288.488281 182.398438 288.488281 Z M 470.402344 288.488281 C 454.496094 288.488281 441.601562 275.59375 441.601562 259.6875 C 441.601562 243.78125 454.496094 230.890625 470.402344 230.890625 C 486.308594 230.890625 499.199219 243.78125 499.199219 259.6875 C 499.199219 275.59375 486.304688 288.488281 470.402344 288.488281 Z M 553.921875 162.363281 C 554.027344 162.804688 554.054688 163.246094 554.152344 163.6875 L 480 163.6875 L 480 96.488281 L 538.273438 96.488281 Z M 73.132812 19.6875 L 195.667969 19.6875 L 205.265625 38.890625 L 63.53125 38.890625 Z M 19.199219 58.089844 L 513.996094 58.089844 C 523.257812 58.148438 531.179688 64.757812 532.898438 73.863281 L 533.761719 77.289062 L 19.199219 77.289062 Z M 460.800781 96.488281 L 460.800781 163.6875 L 403.199219 163.6875 L 403.199219 96.488281 Z M 384 96.488281 L 384 163.6875 L 326.402344 163.6875 L 326.402344 96.488281 Z M 307.199219 96.488281 L 307.199219 163.6875 L 249.601562 163.6875 L 249.601562 96.488281 Z M 230.398438 96.488281 L 230.398438 163.6875 L 172.800781 163.6875 L 172.800781 96.488281 Z M 153.601562 96.488281 L 153.601562 163.6875 L 96 163.6875 L 96 96.488281 Z M 19.199219 96.488281 L 76.800781 96.488281 L 76.800781 163.6875 L 19.199219 163.6875 Z M 19.199219 221.289062 L 38.402344 221.289062 L 38.402344 202.089844 L 19.199219 202.089844 L 19.199219 182.890625 L 556.570312 182.890625 C 556.617188 184.195312 556.800781 185.492188 556.800781 186.796875 L 556.800781 202.089844 L 537.601562 202.089844 L 537.601562 221.289062 L 556.800781 221.289062 L 556.800781 250.089844 L 517.441406 250.089844 C 517.441406 249.917969 517.324219 249.765625 517.285156 249.589844 C 516.695312 246.859375 515.863281 244.183594 514.800781 241.59375 C 514.425781 240.632812 513.917969 239.828125 513.484375 238.933594 C 512.660156 237.1875 511.734375 235.488281 510.710938 233.847656 C 510.097656 232.886719 509.394531 232.015625 508.722656 231.109375 C 507.667969 229.679688 506.53125 228.304688 505.324219 226.992188 C 504.519531 226.136719 503.683594 225.339844 502.820312 224.542969 C 501.535156 223.351562 500.183594 222.238281 498.769531 221.203125 C 497.808594 220.503906 496.847656 219.832031 495.890625 219.195312 C 494.335938 218.25 492.734375 217.386719 491.089844 216.613281 C 490.070312 216.125 489.082031 215.65625 488.027344 215.183594 C 486.148438 214.472656 484.222656 213.878906 482.265625 213.410156 C 481.304688 213.160156 480.40625 212.832031 479.433594 212.640625 C 473.414062 211.410156 467.210938 211.410156 461.195312 212.640625 C 460.234375 212.832031 459.273438 213.160156 458.363281 213.410156 C 456.40625 213.878906 454.484375 214.472656 452.601562 215.183594 C 451.546875 215.605469 450.554688 216.144531 449.539062 216.613281 C 447.894531 217.386719 446.289062 218.25 444.738281 219.195312 C 443.777344 219.832031 442.820312 220.503906 441.859375 221.203125 C 440.445312 222.238281 439.089844 223.351562 437.808594 224.542969 C 436.941406 225.339844 436.109375 226.136719 435.300781 226.992188 C 434.097656 228.304688 432.960938 229.679688 431.902344 231.109375 C 431.230469 232.011719 430.53125 232.886719 429.917969 233.847656 C 428.894531 235.488281 427.964844 237.1875 427.144531 238.933594 C 426.710938 239.828125 426.183594 240.671875 425.828125 241.59375 C 424.765625 244.183594 423.933594 246.859375 423.339844 249.589844 C 423.339844 249.765625 423.226562 249.917969 423.1875 250.089844 L 229.441406 250.089844 C 229.441406 249.917969 229.324219 249.765625 229.285156 249.589844 C 228.691406 246.859375 227.859375 244.183594 226.800781 241.59375 C 226.425781 240.632812 225.917969 239.828125 225.484375 238.933594 C 224.660156 237.1875 223.734375 235.488281 222.710938 233.847656 C 222.097656 232.886719 221.394531 232.015625 220.722656 231.109375 C 219.664062 229.679688 218.53125 228.304688 217.324219 226.992188 C 216.519531 226.136719 215.683594 225.339844 214.820312 224.542969 C 213.535156 223.351562 212.183594 222.238281 210.769531 221.203125 C 209.808594 220.503906 208.847656 219.832031 207.886719 219.195312 C 206.335938 218.25 204.734375 217.386719 203.089844 216.613281 C 202.070312 216.125 201.082031 215.65625 200.027344 215.183594 C 198.160156 214.472656 196.253906 213.878906 194.3125 213.410156 C 193.351562 213.160156 192.453125 212.832031 191.433594 212.640625 C 185.539062 211.4375 179.460938 211.4375 173.566406 212.640625 C 173.070312 212.738281 172.609375 212.804688 172.078125 212.910156 C 169.414062 213.496094 166.804688 214.308594 164.277344 215.339844 L 162.855469 215.964844 C 160.328125 217.070312 157.898438 218.390625 155.597656 219.910156 L 155.210938 220.207031 C 153.015625 221.730469 150.945312 223.4375 149.03125 225.304688 C 148.722656 225.601562 148.40625 225.878906 148.070312 226.1875 C 146.613281 227.664062 145.253906 229.238281 144 230.890625 C 142.710938 229.199219 141.3125 227.597656 139.816406 226.089844 C 139.507812 225.785156 139.191406 225.503906 138.855469 225.207031 C 136.9375 223.339844 134.871094 221.636719 132.671875 220.109375 L 132.289062 219.8125 C 129.984375 218.292969 127.558594 216.972656 125.03125 215.867188 L 123.609375 215.242188 C 121.082031 214.210938 118.46875 213.402344 115.804688 212.8125 C 115.316406 212.707031 114.84375 212.640625 114.316406 212.542969 C 108.421875 211.339844 102.347656 211.339844 96.453125 212.542969 C 95.492188 212.738281 94.53125 213.0625 93.621094 213.3125 C 91.664062 213.78125 89.738281 214.375 87.859375 215.089844 C 86.804688 215.511719 85.8125 216.050781 84.796875 216.519531 C 83.167969 217.292969 81.582031 218.15625 80.042969 219.101562 C 79.085938 219.734375 78.125 220.40625 77.164062 221.105469 C 75.75 222.140625 74.398438 223.257812 73.113281 224.449219 C 72.25 225.246094 71.414062 226.042969 70.609375 226.898438 C 69.402344 228.207031 68.269531 229.582031 67.210938 231.015625 C 66.539062 231.917969 65.835938 232.792969 65.222656 233.75 C 64.199219 235.390625 63.269531 237.089844 62.449219 238.839844 C 62.015625 239.734375 61.488281 240.578125 61.132812 241.5 C 60.070312 244.085938 59.238281 246.761719 58.648438 249.496094 C 58.648438 249.667969 58.53125 249.820312 58.492188 249.996094 L 19.199219 249.996094 Z M 19.199219 221.289062 " style=" stroke:none;fill-rule:nonzero;fill:rgb(0%,0%,0%);fill-opacity:1;" />
<path d="M 230.398438 202.089844 L 422.398438 202.089844 L 422.398438 221.289062 L 230.398438 221.289062 Z M 230.398438 202.089844 " style=" stroke:none;fill-rule:nonzero;fill:rgb(0%,0%,0%);fill-opacity:1;" />
</g>
</svg>