<svg xmlns="http://www.w3.org/2000/svg" width="108.094" height="69" viewBox="0 0 108.094 69">
  <defs>
    <style>
      .cls-1 {
        fill: #4a97d1;
        fill-rule: evenodd;
      }
    </style>
  </defs>
  <path id="Фигура_16" data-name="Фигура 16" class="cls-1" d="M111,176c0.676,0.126-9.167,10-5,34,0,0-12.167,1-12,17,0,0,3.667-5.667,9-3,0,0,12.833,6.5,12-6s-10-29.167-2-41h17l-3,45s0.833,3,5,3,6.833-1.5,10-14l-10-1s4.333-26.833,2-33h13s8.333-.333,6,13-5.5,36,2,36,43-1,43-1,2.5-19.833,0-26-3.833-8.667-11-8a16.321,16.321,0,0,1-12-4s-1,17.667,9,19,10.833,0,11,5,0,5,0,5H166s-7,.167-7-7V187s0.667-9,11-9h21s12.333-2.833,11-20c0,0-4.5,3.833-6,4s-34,0-34,0-5,.333-5,5c0,0-2.333-5-6-5H106s-5-2.167-6-4C100,158,98.5,173.667,111,176Z" transform="translate(-94 -158)"/>
</svg>
