<svg id="Families" xmlns="http://www.w3.org/2000/svg" width="76.375" height="127.688" viewBox="0 0 76.375 127.688">
  <defs>
    <style>
      .cls-1, .cls-2 {
        fill: #00b500;
      }

      .cls-1 {
        fill-rule: evenodd;
      }
    </style>
  </defs>
  <path id="Фигура_18" data-name="Фигура 18" class="cls-1" d="M185,154c-8.625,0-11-9-11-9V133c-2.125,4-9,7-9,7v16c19.375-7.5,24.875,8.75,24,13a9.206,9.206,0,0,1-4,6c3.375-8.75-4.125-14-11-14s-8,5-8,5v33c4.875,5,6.125,14.5,3,19s-9,2-9,2c14.375-7.25,1-16,1-16h-6V176c-4.65,6.8-11.55,11.2-23,10s-13.55-19.8,0-27,18,4,18,4c-12.65-5.8-21.35,8.4-11,14,8,4.327,13.782-3.4,16-7.141V144c-4.6,0-21.55.2-18-13s19.65-5.6,28-4,7.85-12.2-1-9-15,1-15,1l-5-7,3-3c1.95,0.4,5.25,6,8,6s3-13,3-13h5c0,5.4-.75,13.4,3,13s9-12,9-12l4,4c-6.875,4-.875,6.25-6,17s-12.375,3.5-21,4-9.875,13.5,5,11,23-21,23-21c0.625,1.5,3,3,3,3-0.375,8.75,2,21,2,21,5.375,8,14,0,14,0C199,148.75,193.625,154,185,154Z" transform="translate(-122.625 -93)"/>
  <circle id="Эллипс_1" data-name="Эллипс 1" class="cls-2" cx="19.875" cy="12.5" r="3.5"/>
  <circle id="Эллипс_1_копия" data-name="Эллипс 1 копия" class="cls-2" cx="37.875" cy="3.5" r="3.5"/>
  <circle id="Эллипс_1_копия_2" data-name="Эллипс 1 копия 2" class="cls-2" cx="56.875" cy="6.5" r="3.5"/>
</svg>
