<svg xmlns="http://www.w3.org/2000/svg"
    width="204.938"
    height="277"
    viewBox="0 0 204.938 277">
  <defs>
    <style>
      .cls-1 {
        fill: #da30ff;
        fill-rule: evenodd;
      }
    </style>
  </defs>
  <path id="Фигура_3" data-name="Фигура 3" class="cls-1" d="M222,137c13.5-.75,14,12,14,12v94c0,12.5-2,13-2,13-57.75-12-65,43-65,43-69.5-37.25-136-6-136-6,27.75-39.5,71-47,71-47V198c-37-15-33-47-33-47,11.75,16.25,34,11,34,11V106C88,96.75,87,77,87,77c21.75,3,33-10,33-10,5,26.75,48.5,2,60-9s4-36,4-36C276.5,57,222,137,222,137ZM116,244c31.937-9.625,65,1,65,1V172l-37,17v42C130.813,234.625,116,244,116,244ZM178,85c-4.563.5-7-4-7-4-4.188,4.375-30,6-30,6a5.217,5.217,0,0,0,4,5l1,54,28-13h4V85Zm3.5,62.625-38,18.75v6l38-18.75v-6Z" transform="translate(-33 -22)"/>
</svg>
