<svg width="100" height="37" viewBox="0 0 100 37" fill="none" xmlns="http://www.w3.org/2000/svg">
<g id="LogoSTO | &#208;&#173;&#208;&#186;&#209;&#129;&#208;&#191;&#208;&#190;&#209;&#128;&#209;&#130;&#208;&#184; &#208;&#178; SVG">
<g id="Wheel">
<path id="Vector" d="M33.6938 18.5456C33.6935 18.4851 33.6919 18.425 33.6911 18.3647C33.6902 18.282 33.6892 18.1994 33.6875 18.1171C33.687 18.0967 33.6863 18.0764 33.6858 18.0561C33.571 13.101 32.0649 8.63268 29.7083 5.44482C27.6134 2.59597 24.8457 0.759039 21.7806 0.506714C21.7205 0.506714 21.7205 0.506714 21.6603 0.506714C21.6173 0.510544 21.5746 0.516149 21.5317 0.520759C21.3747 0.512389 21.2171 0.506714 21.0586 0.506714H12.6352C9.5058 0.506714 6.643 2.15048 4.43628 4.86334C4.37353 4.91732 4.32163 4.98223 4.2825 5.05558C1.65668 8.38971 0 13.2619 0 18.6667C0 28.6547 5.65573 36.8267 12.6352 36.8267H21.0587C21.2303 36.8267 21.4008 36.8203 21.5707 36.8105C21.6206 36.816 21.6704 36.8222 21.7205 36.8267C27.4966 36.3424 32.31 30.4102 33.4532 22.2382C33.4598 22.175 33.4663 22.1109 33.4729 22.0473C33.6174 20.9511 33.6938 19.8213 33.6938 18.6667V18.5456ZM13.7939 28.1973C13.7811 28.127 13.7544 28.0608 13.7156 28.002C12.6494 25.3227 12.0335 22.1145 12.0335 18.6668C12.0335 9.73001 16.2276 2.39897 21.5721 1.73535C27.6509 2.1353 32.4905 9.59856 32.4905 18.6667C32.4905 27.7354 27.6504 35.1991 21.571 35.5982C18.3036 35.1971 15.4996 32.3573 13.7939 28.1973ZM1.95204 24.6951C2.08354 24.6538 2.21504 24.5661 2.34654 24.4779L3.12869 23.2672L4.39221 24.5384C4.63286 24.7805 4.99386 24.7805 5.23458 24.5384L6.61846 23.1461L8.06248 24.5989C8.30313 24.841 8.66413 24.841 8.90485 24.5989L10.3489 23.1461L11.3376 24.0362C11.5474 25.1161 11.8187 26.1534 12.1459 27.1373L11.071 26.5965C10.7701 26.4149 10.4693 26.536 10.2888 26.7781L9.50665 27.9888L8.24313 26.7176C8.00248 26.4755 7.64147 26.4755 7.40076 26.7176L6.01674 28.1099L4.63286 26.7176C4.39221 26.4755 4.03121 26.4755 3.79049 26.7176L2.92182 27.5916C2.53938 26.6796 2.2137 25.7105 1.95204 24.6951ZM1.20591 18.9647L2.70754 19.8169C2.94819 19.938 3.24905 19.8774 3.42955 19.6958L4.81343 18.3035L6.25745 19.6958C6.4981 19.9379 6.85911 19.9379 7.09982 19.6958L8.54385 18.243L10.8469 19.644C10.8759 20.5146 10.9428 21.3692 11.0461 22.2032L10.5895 21.8145C10.3489 21.6329 9.98787 21.6934 9.80737 21.875L8.42349 23.2673L7.03961 21.875C6.79896 21.6329 6.43796 21.6329 6.19724 21.875L4.81336 23.2673L3.42948 21.875C3.30912 21.7539 3.12862 21.6934 2.94812 21.6934C2.76762 21.6934 2.58711 21.8145 2.46675 21.9355L1.62156 23.211C1.3666 21.855 1.22305 20.4318 1.20591 18.9647ZM3.17135 9.17145L4.5125 10.071C4.693 10.1921 4.99386 10.1921 5.17437 10.071L6.61839 9.10249L8.12256 10.1316C8.30306 10.2527 8.60392 10.2527 8.78442 10.1316L10.2886 9.10249L12.2058 10.0394C11.8894 10.9667 11.6225 11.9416 11.4105 12.9553L10.6495 12.1897C10.4089 11.9476 10.0479 11.9476 9.80716 12.1897L8.42328 13.582L7.0394 12.1897C6.79875 11.9476 6.43775 11.9476 6.19703 12.1897L4.81336 13.5819L3.42948 12.1896C3.30912 12.0685 3.18884 12.008 3.00833 12.008C2.82783 12.008 2.70747 12.0685 2.58718 12.1896L1.87956 12.9262C2.20524 11.5895 2.64112 10.3296 3.17135 9.17145ZM5.10872 5.92095L8.90478 4.8046L10.4692 5.83369C10.6497 5.95478 10.9505 5.95478 11.131 5.83369L12.6352 4.8046L14.3134 5.62471C13.668 6.61904 13.0967 7.73198 12.6129 8.93998L10.409 7.83129C10.2285 7.77078 9.98787 7.77078 9.80737 7.8918L8.36334 8.86031L6.91932 7.8918C6.73882 7.77071 6.43796 7.77071 6.25745 7.8918L4.81343 8.86031L3.71645 8.07858C4.13732 7.30061 4.60324 6.57825 5.10872 5.92095ZM8.72428 16.9718C8.48363 16.8507 8.18277 16.9113 8.00227 17.0929L6.61839 18.4852L5.23451 17.0929C4.99386 16.8508 4.63286 16.8508 4.39214 17.0929L2.88797 18.6062L1.22481 17.6428C1.26147 16.7376 1.34623 15.8511 1.47561 14.9887C1.55028 14.9584 1.62488 14.9133 1.68467 14.8532L3.00833 13.4609L4.39221 14.8531C4.63286 15.0952 4.99386 15.0952 5.23458 14.8531L6.61846 13.4608L8.00234 14.8531C8.24299 15.0952 8.60399 15.0952 8.84471 14.8531L10.2286 13.4608L11.0107 14.2477C11.0556 14.2928 11.1047 14.3295 11.1563 14.3578C10.9636 15.6097 10.8528 16.9105 10.8335 18.2449L8.72428 16.9718ZM18.1407 1.7174C16.9876 2.43054 15.9273 3.43026 14.9925 4.65869L12.8758 3.59391C12.6953 3.5334 12.4547 3.5334 12.2742 3.65442L10.8302 4.62293L9.38615 3.65442C9.20564 3.53333 9.02514 3.53333 8.84464 3.53333L6.75962 4.13268C8.4763 2.60079 10.4859 1.71733 12.6352 1.71733H18.1407V1.7174ZM3.45374 28.7514L4.21171 27.9888L5.59559 29.3811C5.83623 29.6232 6.19724 29.6232 6.43796 29.3811L7.82176 27.9888L9.20564 29.3811C9.326 29.5022 9.44629 29.5627 9.62679 29.5627C9.86744 29.5627 10.0479 29.4416 10.1082 29.26L11.0107 27.8677L12.7484 28.7419C13.201 29.8169 13.7242 30.8115 14.3087 31.709L13.1766 32.4683L11.7326 31.4998C11.5521 31.3787 11.2512 31.3787 11.0707 31.4998L9.62679 32.4683L8.18277 31.4998C8.00227 31.3787 7.70141 31.3787 7.5209 31.4998L6.03401 32.4971C5.04646 31.4575 4.17497 30.1915 3.45374 28.7514ZM12.6352 35.616C10.5455 35.616 8.58777 34.7809 6.90296 33.3267L7.82176 32.7104L9.32593 33.6789C9.50643 33.8 9.8073 33.8 9.9878 33.6789L11.4318 32.7104L12.8157 33.7395C12.9962 33.8606 13.2971 33.8606 13.4776 33.7395L15.0157 32.7079C15.9496 33.9222 17.0088 34.9098 18.1616 35.6161H12.6352V35.616Z" fill="#262626"/>
<path id="Vector_2" d="M22.262 5.34941C19.1468 5.34941 16.5353 8.85614 15.5089 13.8854C15.5028 13.9149 15.4967 13.9445 15.4908 13.9741C15.4633 14.1119 15.4368 14.2506 15.4116 14.3906C15.403 14.4386 15.3949 14.4868 15.3866 14.5349C15.3696 14.6333 15.3532 14.7322 15.3375 14.8316C15.3269 14.8979 15.3164 14.9642 15.3064 15.0309C15.2898 15.1419 15.274 15.2536 15.2589 15.3659C15.2498 15.4335 15.241 15.5013 15.2325 15.5691C15.2198 15.67 15.2078 15.7715 15.1963 15.8735C15.1871 15.9557 15.1783 16.0381 15.1699 16.1208C15.1605 16.2135 15.1515 16.3066 15.1431 16.4001C15.1376 16.461 15.132 16.5219 15.1269 16.5831C15.1158 16.7181 15.1057 16.8538 15.0967 16.9902C15.0934 17.041 15.0905 17.092 15.0875 17.1429C15.0803 17.2632 15.074 17.384 15.0685 17.5053C15.0669 17.5405 15.0649 17.5756 15.0635 17.6109C15.0573 17.7627 15.0527 17.9155 15.0492 18.0689C15.0483 18.1082 15.0476 18.1474 15.0468 18.1868C15.0439 18.3461 15.0418 18.506 15.0418 18.6668C15.0418 18.8277 15.0439 18.9875 15.0468 19.1468C15.0475 19.1861 15.0483 19.2254 15.0492 19.2647C15.0527 19.4181 15.0573 19.5708 15.0635 19.7227C15.0649 19.7579 15.0669 19.7931 15.0685 19.8283C15.074 19.9496 15.0803 20.0704 15.0875 20.1906C15.0905 20.2415 15.0934 20.2925 15.0967 20.3434C15.1058 20.4798 15.1158 20.6155 15.1269 20.7505C15.1319 20.8117 15.1376 20.8726 15.1431 20.9336C15.1515 21.027 15.1605 21.12 15.1699 21.2127C15.1783 21.2954 15.1871 21.3779 15.1963 21.4602C15.2078 21.562 15.2198 21.6635 15.2325 21.7645C15.241 21.8324 15.2498 21.9 15.2589 21.9677C15.274 22.0799 15.2898 22.1915 15.3064 22.3025C15.3164 22.3692 15.3269 22.4356 15.3375 22.502C15.3533 22.6014 15.3697 22.7002 15.3866 22.7985C15.3949 22.8467 15.403 22.8949 15.4116 22.9429C15.4367 23.0829 15.4632 23.2216 15.4907 23.3594C15.4967 23.389 15.5027 23.4186 15.5088 23.4482C16.5351 28.4774 19.1468 31.9841 22.2619 31.9841C26.2931 31.9841 29.482 26.1124 29.482 18.6668C29.482 11.2212 26.2932 5.34941 22.262 5.34941ZM16.3254 20.5813C16.3223 20.5439 16.3188 20.5066 16.3158 20.4692C16.3115 20.4136 16.3077 20.3578 16.3037 20.302C16.2981 20.2235 16.2928 20.1449 16.2881 20.066C16.2854 20.0215 16.2826 19.9769 16.2802 19.9323C16.2735 19.8093 16.2675 19.686 16.2627 19.5622C16.2618 19.5397 16.2613 19.517 16.2604 19.4945C16.2565 19.3851 16.2534 19.2754 16.251 19.1653C16.2503 19.13 16.2496 19.0948 16.2489 19.0594C16.2467 18.9288 16.2452 18.7981 16.2452 18.6668C16.2452 18.5524 16.2465 18.4384 16.2479 18.3244C16.2814 16.0664 16.6438 13.9353 17.2393 12.123C18.1228 13.6395 18.6519 16.0346 18.6519 18.6667C18.6519 21.2989 18.1228 23.6939 17.2394 25.2105C16.7842 23.8252 16.4652 22.2535 16.3254 20.5813ZM22.262 30.7734C20.4923 30.7734 18.8655 29.1208 17.7508 26.5597C19.0252 24.9842 19.8552 21.9825 19.8552 18.6667C19.8552 15.351 19.0251 12.3492 17.7508 10.7737C18.8654 8.21259 20.4922 6.56003 22.262 6.56003C25.5111 6.56003 28.2787 12.1291 28.2787 18.6667C28.2787 25.2043 25.5111 30.7734 22.262 30.7734Z" fill="#262626"/>
</g>
<path id="AUTO&#226;&#128;&#168;REPAIRS" d="M50.028 13.7247H46.178L45.419 15.5067H43.945L47.41 7.80671H48.818L52.294 15.5067H50.798L50.028 13.7247ZM49.555 12.6027L48.103 9.23671L46.662 12.6027H49.555ZM56.4231 15.6167C55.3598 15.6167 54.5311 15.3197 53.9371 14.7257C53.3431 14.1244 53.0461 13.2664 53.0461 12.1517V7.80671H54.4761V12.0967C54.4761 13.6074 55.1288 14.3627 56.4341 14.3627C57.7321 14.3627 58.3811 13.6074 58.3811 12.0967V7.80671H59.7891V12.1517C59.7891 13.2664 59.4921 14.1244 58.8981 14.7257C58.3115 15.3197 57.4865 15.6167 56.4231 15.6167ZM63.2142 9.01671H60.6622V7.80671H67.1962V9.01671H64.6442V15.5067H63.2142V9.01671ZM71.7589 15.6167C70.9743 15.6167 70.2666 15.448 69.6359 15.1107C69.0053 14.766 68.5103 14.293 68.1509 13.6917C67.7916 13.083 67.6119 12.4047 67.6119 11.6567C67.6119 10.9087 67.7916 10.234 68.1509 9.63271C68.5103 9.02405 69.0053 8.55105 69.6359 8.21371C70.2666 7.86905 70.9743 7.69671 71.7589 7.69671C72.5436 7.69671 73.2513 7.86905 73.8819 8.21371C74.5126 8.55105 75.0076 9.02038 75.3669 9.62171C75.7263 10.223 75.9059 10.9014 75.9059 11.6567C75.9059 12.412 75.7263 13.0904 75.3669 13.6917C75.0076 14.293 74.5126 14.766 73.8819 15.1107C73.2513 15.448 72.5436 15.6167 71.7589 15.6167ZM71.7589 14.3627C72.2723 14.3627 72.7343 14.249 73.1449 14.0217C73.5556 13.787 73.8783 13.4644 74.1129 13.0537C74.3476 12.6357 74.4649 12.17 74.4649 11.6567C74.4649 11.1434 74.3476 10.6814 74.1129 10.2707C73.8783 9.85271 73.5556 9.53005 73.1449 9.30271C72.7343 9.06805 72.2723 8.95071 71.7589 8.95071C71.2456 8.95071 70.7836 9.06805 70.3729 9.30271C69.9623 9.53005 69.6396 9.85271 69.4049 10.2707C69.1703 10.6814 69.0529 11.1434 69.0529 11.6567C69.0529 12.17 69.1703 12.6357 69.4049 13.0537C69.6396 13.4644 69.9623 13.787 70.3729 14.0217C70.7836 14.249 71.2456 14.3627 71.7589 14.3627ZM50.072 28.5067L48.499 26.2517C48.433 26.259 48.334 26.2627 48.202 26.2627H46.464V28.5067H45.034V20.8067H48.202C48.8693 20.8067 49.4487 20.9167 49.94 21.1367C50.4387 21.3567 50.82 21.672 51.084 22.0827C51.348 22.4934 51.48 22.981 51.48 23.5457C51.48 24.125 51.337 24.6237 51.051 25.0417C50.7723 25.4597 50.369 25.7714 49.841 25.9767L51.612 28.5067H50.072ZM50.039 23.5457C50.039 23.0544 49.8777 22.6767 49.555 22.4127C49.2323 22.1487 48.7593 22.0167 48.136 22.0167H46.464V25.0857H48.136C48.7593 25.0857 49.2323 24.9537 49.555 24.6897C49.8777 24.4184 50.039 24.037 50.039 23.5457ZM58.8549 27.3077V28.5067H53.0799V20.8067H58.7009V22.0057H54.5099V24.0077H58.2279V25.1847H54.5099V27.3077H58.8549ZM63.617 20.8067C64.2844 20.8067 64.8637 20.9167 65.355 21.1367C65.8537 21.3567 66.235 21.672 66.499 22.0827C66.763 22.4934 66.895 22.981 66.895 23.5457C66.895 24.103 66.763 24.5907 66.499 25.0087C66.235 25.4194 65.8537 25.7347 65.355 25.9547C64.8637 26.1747 64.2844 26.2847 63.617 26.2847H61.879V28.5067H60.449V20.8067H63.617ZM63.551 25.0747C64.1744 25.0747 64.6474 24.9427 64.97 24.6787C65.2927 24.4147 65.454 24.037 65.454 23.5457C65.454 23.0544 65.2927 22.6767 64.97 22.4127C64.6474 22.1487 64.1744 22.0167 63.551 22.0167H61.879V25.0747H63.551ZM72.9303 26.7247H69.0803L68.3213 28.5067H66.8473L70.3123 20.8067H71.7203L75.1963 28.5067H73.7003L72.9303 26.7247ZM72.4573 25.6027L71.0053 22.2367L69.5643 25.6027H72.4573ZM76.1756 20.8067H77.6056V28.5067H76.1756V20.8067ZM84.7263 28.5067L83.1533 26.2517C83.0873 26.259 82.9883 26.2627 82.8563 26.2627H81.1183V28.5067H79.6883V20.8067H82.8563C83.5236 20.8067 84.103 20.9167 84.5943 21.1367C85.093 21.3567 85.4743 21.672 85.7383 22.0827C86.0023 22.4934 86.1343 22.981 86.1343 23.5457C86.1343 24.125 85.9913 24.6237 85.7053 25.0417C85.4266 25.4597 85.0233 25.7714 84.4953 25.9767L86.2663 28.5067H84.7263ZM84.6933 23.5457C84.6933 23.0544 84.532 22.6767 84.2093 22.4127C83.8866 22.1487 83.4136 22.0167 82.7903 22.0167H81.1183V25.0857H82.7903C83.4136 25.0857 83.8866 24.9537 84.2093 24.6897C84.532 24.4184 84.6933 24.037 84.6933 23.5457ZM90.1212 28.6167C89.5272 28.6167 88.9515 28.5324 88.3942 28.3637C87.8442 28.195 87.4079 27.9714 87.0852 27.6927L87.5802 26.5817C87.8955 26.831 88.2805 27.0364 88.7352 27.1977C89.1972 27.3517 89.6592 27.4287 90.1212 27.4287C90.6932 27.4287 91.1185 27.337 91.3972 27.1537C91.6832 26.9704 91.8262 26.7284 91.8262 26.4277C91.8262 26.2077 91.7455 26.028 91.5842 25.8887C91.4302 25.742 91.2322 25.6284 90.9902 25.5477C90.7482 25.467 90.4182 25.3754 90.0002 25.2727C89.4135 25.1334 88.9369 24.994 88.5702 24.8547C88.2109 24.7154 87.8992 24.499 87.6352 24.2057C87.3785 23.905 87.2502 23.5017 87.2502 22.9957C87.2502 22.5704 87.3639 22.1854 87.5912 21.8407C87.8259 21.4887 88.1742 21.21 88.6362 21.0047C89.1055 20.7994 89.6775 20.6967 90.3522 20.6967C90.8215 20.6967 91.2835 20.7554 91.7382 20.8727C92.1929 20.99 92.5852 21.1587 92.9152 21.3787L92.4642 22.4897C92.1269 22.2917 91.7749 22.1414 91.4082 22.0387C91.0415 21.936 90.6859 21.8847 90.3412 21.8847C89.7765 21.8847 89.3549 21.98 89.0762 22.1707C88.8049 22.3614 88.6692 22.6144 88.6692 22.9297C88.6692 23.1497 88.7462 23.3294 88.9002 23.4687C89.0615 23.608 89.2632 23.718 89.5052 23.7987C89.7472 23.8794 90.0772 23.971 90.4952 24.0737C91.0672 24.2057 91.5365 24.345 91.9032 24.4917C92.2699 24.631 92.5815 24.8474 92.8382 25.1407C93.1022 25.434 93.2342 25.83 93.2342 26.3287C93.2342 26.754 93.1169 27.139 92.8822 27.4837C92.6549 27.8284 92.3065 28.1034 91.8372 28.3087C91.3679 28.514 90.7959 28.6167 90.1212 28.6167Z" fill="#262626"/>
</g>
</svg>
