<svg width="590" height="608" viewBox="0 0 590 608" fill="none" xmlns="http://www.w3.org/2000/svg">
    <g filter="url(#filter0_b)">
        <path d="M380.541 12.7609C322.632 -4.81624 263.339 -3.68605 209.289 12.7748L240.424 108.601C274.914 98.4746 312.552 97.8004 349.407 108.581L380.541 12.7609Z" fill="#0C0C0C" fill-opacity="0.6"/>
        <path d="M360.409 112.151L391.543 16.3327C448.745 36.1275 496.072 71.8792 530.145 116.959L448.63 176.183C426.659 147.726 396.584 125.071 360.409 112.151Z" fill="#0C0C0C" fill-opacity="0.6"/>
        <path d="M489.181 289.23C488.062 251.845 476.095 215.88 455.424 185.544L536.938 126.321C569.925 173.703 588.803 230.371 589.959 289.23H489.181Z" fill="#0C0C0C" fill-opacity="0.6"/>
        <path
            d="M455.477 404.522C465.627 389.629 473.858 373.063 479.708 355.057C485.558 337.052 488.637 318.811 489.18 300.797H589.958C589.394 329.122 584.707 357.844 575.5 386.182C566.292 414.52 553.202 440.511 537.008 463.758L455.477 404.522Z"
            fill="#0C0C0C"
            fill-opacity="0.6"/>
        <path d="M360.424 477.923C394.978 465.53 425.8 443.468 448.679 413.88L530.211 473.117C494.679 520.055 446.097 554.804 391.56 573.749L360.424 477.923Z" fill="#0C0C0C" fill-opacity="0.6"/>
        <path d="M141.26 413.798C163.211 442.262 193.264 464.93 229.417 477.872L198.283 573.692C141.103 553.874 93.7981 518.109 59.7457 473.021L141.26 413.798Z" fill="#0C0C0C" fill-opacity="0.6"/>
        <path d="M100.778 300.797C101.888 338.159 113.833 374.104 134.472 404.432L52.9563 463.657C20.0021 416.282 1.14655 359.633 0 300.797L100.778 300.797Z" fill="#0C0C0C" fill-opacity="0.6"/>
        <path
            d="M134.458 185.585C124.32 200.469 116.098 217.023 110.252 235.014C104.407 253.005 101.328 271.23 100.782 289.23H0.00322823C0.570794 260.919 5.25745 232.212 14.4602 203.889C23.663 175.566 36.7449 149.587 52.9265 126.349L134.458 185.585Z"
            fill="#0C0C0C"
            fill-opacity="0.6"/>
        <path d="M229.428 112.187C194.904 124.592 164.113 146.651 141.254 176.225L59.7227 116.989C95.2333 70.064 143.785 35.3175 198.292 16.3603L229.428 112.187Z" fill="#0C0C0C" fill-opacity="0.6"/>
    </g>
    <g filter="url(#filter1_b)">
        <path d="M240.417 481.45C277.277 492.261 314.924 491.61 349.426 481.503L380.562 577.33C326.498 593.771 267.196 594.877 209.283 577.269L240.417 481.45Z" fill="url(#paint0_linear)" fill-opacity="0.6"/>
    </g>
    <g filter="url(#filter2_b)">
        <circle cx="295" cy="295" r="176" fill="#0C0C0C" fill-opacity="0.6"/>
    </g>
    <g filter="url(#filter3_b)">
        <path
            d="M344.7 585.831C328.542 588.573 311.938 590 295 590C280.138 590 265.533 588.901 251.262 586.78C237.25 584.663 223.226 581.508 209.283 577.269L210.593 573.24C237.306 581.332 265.645 585.684 295 585.684C324.297 585.684 352.582 581.35 379.248 573.288L380.562 577.33C368.832 580.897 356.855 583.742 344.7 585.831Z"
            fill="#FFDF29"/>
    </g>
    <g filter="url(#filter4_b)">
        <path d="M589.316 274.748C589.641 279.545 589.851 284.373 589.945 289.23H585.628C584.467 229.636 565.373 174.437 533.519 128.805L536.938 126.321C567.21 169.804 585.601 221.107 589.316 274.748Z" fill="#0C0C0C" fill-opacity="0.8"/>
        <path
            d="M289.326 0.0534684C291.2 0.018125 293.078 0.000250131 294.96 0C323.297 0.00382999 352.086 4.12393 380.541 12.7609L379.256 16.7148C352.588 8.65114 324.3 4.3161 295 4.3161C265.642 4.3161 237.3 8.6684 210.584 16.763L209.289 12.7748C235.018 4.93899 261.936 0.577139 289.326 0.0534684Z"
            fill="#0C0C0C"
            fill-opacity="0.8"/>
        <path d="M59.7343 116.998C69.3776 104.272 80.0296 92.3531 91.5714 81.3597C122.181 52.2721 158.662 30.1431 198.291 16.3603L199.584 20.3384C144.853 39.3492 97.5584 74.2572 63.227 119.536L59.7343 116.998Z" fill="#0C0C0C" fill-opacity="0.8"/>
        <path
            d="M50.8979 129.3C51.5694 128.313 52.2467 127.33 52.9298 126.352L56.4225 128.889C24.6031 174.505 5.5316 229.673 4.3721 289.23H0.0551758C0.241134 279.536 0.894678 269.957 1.99419 260.514C4.24076 241.622 8.35748 222.671 14.4601 203.889C23.2752 176.759 35.6495 151.78 50.8979 129.3Z"
            fill="#0C0C0C"
            fill-opacity="0.8"/>
        <path d="M526.711 119.454C492.352 74.172 445.023 39.271 390.259 20.2839L391.543 16.3327C448.745 36.1275 496.071 71.8792 530.145 116.959L526.711 119.454Z" fill="#0C0C0C" fill-opacity="0.8"/>
        <path
            d="M589.457 313.049C589.702 308.986 589.865 304.902 589.944 300.797H585.627C584.461 360.388 565.363 415.585 533.506 461.213L536.999 463.751C538.519 461.574 540.011 459.377 541.473 457.158C555.618 435.625 567.154 411.867 575.5 386.182C583.382 361.922 587.951 337.381 589.457 313.049Z"
            fill="#0C0C0C"
            fill-opacity="0.8"/>
        <path d="M530.19 473.102L526.697 470.564C492.338 515.839 445.011 550.735 390.251 569.719L391.56 573.749C424.78 562.209 455.791 544.805 482.989 522.354C500.551 507.817 516.4 491.283 530.19 473.102Z" fill="#0C0C0C" fill-opacity="0.8"/>
        <path d="M150.996 552.525C165.869 560.82 181.659 567.93 198.283 573.692L199.592 569.664C144.865 550.657 97.5725 515.754 63.2405 470.482L59.7477 473.02C84.2871 505.398 115.357 532.554 150.996 552.525Z" fill="#0C0C0C" fill-opacity="0.8"/>
        <path d="M0.0557021 300.797C0.323507 314.691 1.55192 328.35 3.6773 341.711C10.7584 385.675 27.7249 427.384 52.9562 463.657L56.4353 461.129C24.6131 415.517 5.5376 360.352 4.37263 300.797H0.0557021Z" fill="#0C0C0C" fill-opacity="0.8"/>
    </g>
    <path
        d="M188.907 290C188.683 289.344 188.451 288.696 188.211 288.056C187.971 287.416 187.739 286.76 187.515 286.088H180.507C180.283 286.76 180.051 287.424 179.811 288.08C179.587 288.72 179.363 289.36 179.139 290H175.995C176.619 288.224 177.211 286.584 177.771 285.08C178.331 283.576 178.875 282.152 179.403 280.808C179.947 279.464 180.483 278.184 181.011 276.968C181.539 275.752 182.083 274.552 182.643 273.368H185.499C186.059 274.552 186.603 275.752 187.131 276.968C187.659 278.184 188.187 279.464 188.715 280.808C189.259 282.152 189.811 283.576 190.371 285.08C190.947 286.584 191.547 288.224 192.171 290H188.907ZM184.011 276.584C183.643 277.432 183.219 278.464 182.739 279.68C182.275 280.896 181.787 282.216 181.275 283.64H186.747C186.235 282.216 185.739 280.888 185.259 279.656C184.779 278.424 184.363 277.4 184.011 276.584ZM204.209 290C203.793 289.36 203.313 288.688 202.769 287.984C202.225 287.28 201.649 286.6 201.041 285.944C200.449 285.288 199.833 284.664 199.193 284.072C198.553 283.48 197.921 282.968 197.297 282.536V290H194.273V273.368H197.297V280.232C197.825 279.704 198.377 279.144 198.953 278.552C199.529 277.944 200.097 277.336 200.657 276.728C201.233 276.104 201.777 275.504 202.289 274.928C202.801 274.352 203.265 273.832 203.681 273.368H207.305C206.777 273.976 206.217 274.608 205.625 275.264C205.033 275.92 204.425 276.584 203.801 277.256C203.177 277.912 202.545 278.568 201.905 279.224C201.281 279.88 200.665 280.504 200.057 281.096C200.729 281.608 201.409 282.208 202.097 282.896C202.801 283.568 203.489 284.296 204.161 285.08C204.833 285.848 205.473 286.656 206.081 287.504C206.705 288.336 207.273 289.168 207.785 290H204.209ZM207.458 281.816H213.914V284.48H207.458V281.816ZM222.565 276.944C222.181 277.408 221.781 277.904 221.365 278.432C220.965 278.96 220.573 279.512 220.189 280.088C219.805 280.664 219.437 281.256 219.085 281.864C218.733 282.456 218.413 283.048 218.125 283.64H222.565V276.944ZM225.397 273.368V283.64H227.269V286.016H225.397V290H222.565V286.016H215.269V283.952C215.589 283.248 216.013 282.44 216.541 281.528C217.085 280.616 217.685 279.68 218.341 278.72C218.997 277.76 219.693 276.816 220.429 275.888C221.165 274.96 221.901 274.12 222.637 273.368H225.397ZM231.813 290C231.909 288.784 232.125 287.504 232.461 286.16C232.797 284.816 233.205 283.512 233.685 282.248C234.181 280.968 234.717 279.776 235.293 278.672C235.885 277.552 236.469 276.616 237.045 275.864H229.389V273.368H240.501V275.576C239.973 276.168 239.397 276.976 238.773 278C238.149 279.024 237.557 280.184 236.997 281.48C236.437 282.76 235.949 284.136 235.533 285.608C235.133 287.08 234.885 288.544 234.789 290H231.813ZM248.775 277.832C248.743 277.624 248.727 277.416 248.727 277.208C248.727 277 248.727 276.832 248.727 276.704C248.759 275.744 248.943 274.824 249.279 273.944C249.631 273.064 250.055 272.272 250.551 271.568L252.687 272.144C252.367 272.848 252.119 273.592 251.943 274.376C251.767 275.16 251.679 275.904 251.679 276.608C251.679 276.736 251.679 276.92 251.679 277.16C251.679 277.4 251.695 277.624 251.727 277.832H248.775ZM253.599 277.832C253.567 277.624 253.551 277.416 253.551 277.208C253.551 277 253.551 276.832 253.551 276.704C253.583 275.744 253.767 274.824 254.103 273.944C254.455 273.064 254.879 272.272 255.375 271.568L257.511 272.144C257.191 272.848 256.943 273.592 256.767 274.376C256.591 275.16 256.503 275.904 256.503 276.608C256.503 276.736 256.503 276.92 256.503 277.16C256.503 277.4 256.519 277.624 256.551 277.832H253.599ZM270.162 290C269.746 289.36 269.266 288.688 268.722 287.984C268.178 287.28 267.602 286.6 266.994 285.944C266.402 285.288 265.786 284.664 265.146 284.072C264.506 283.48 263.874 282.968 263.25 282.536V290H260.226V273.368H263.25V280.232C263.778 279.704 264.33 279.144 264.906 278.552C265.482 277.944 266.05 277.336 266.61 276.728C267.186 276.104 267.73 275.504 268.242 274.928C268.754 274.352 269.218 273.832 269.634 273.368H273.258C272.73 273.976 272.17 274.608 271.578 275.264C270.986 275.92 270.378 276.584 269.754 277.256C269.13 277.912 268.498 278.568 267.858 279.224C267.234 279.88 266.618 280.504 266.01 281.096C266.682 281.608 267.362 282.208 268.05 282.896C268.754 283.568 269.442 284.296 270.114 285.08C270.786 285.848 271.426 286.656 272.034 287.504C272.658 288.336 273.226 289.168 273.738 290H270.162ZM280.131 287.96C281.027 287.96 281.707 287.912 282.171 287.816V284.6C282.011 284.552 281.779 284.504 281.475 284.456C281.171 284.408 280.835 284.384 280.467 284.384C280.147 284.384 279.819 284.408 279.483 284.456C279.163 284.504 278.867 284.592 278.595 284.72C278.339 284.848 278.131 285.032 277.971 285.272C277.811 285.496 277.731 285.784 277.731 286.136C277.731 286.824 277.947 287.304 278.379 287.576C278.811 287.832 279.395 287.96 280.131 287.96ZM279.891 277.136C280.851 277.136 281.659 277.256 282.315 277.496C282.971 277.736 283.491 278.072 283.875 278.504C284.275 278.936 284.555 279.464 284.715 280.088C284.891 280.696 284.979 281.368 284.979 282.104V289.712C284.531 289.808 283.851 289.92 282.939 290.048C282.043 290.192 281.027 290.264 279.891 290.264C279.139 290.264 278.451 290.192 277.827 290.048C277.203 289.904 276.667 289.672 276.219 289.352C275.787 289.032 275.443 288.616 275.187 288.104C274.947 287.592 274.827 286.96 274.827 286.208C274.827 285.488 274.963 284.88 275.235 284.384C275.523 283.888 275.907 283.488 276.387 283.184C276.867 282.864 277.419 282.64 278.043 282.512C278.683 282.368 279.347 282.296 280.035 282.296C280.355 282.296 280.691 282.32 281.043 282.368C281.395 282.4 281.771 282.464 282.171 282.56V282.08C282.171 281.744 282.131 281.424 282.051 281.12C281.971 280.816 281.827 280.552 281.619 280.328C281.427 280.088 281.163 279.904 280.827 279.776C280.507 279.648 280.099 279.584 279.603 279.584C278.931 279.584 278.315 279.632 277.755 279.728C277.195 279.824 276.739 279.936 276.387 280.064L276.027 277.712C276.395 277.584 276.931 277.456 277.635 277.328C278.339 277.2 279.091 277.136 279.891 277.136ZM293.456 279.848C293.44 280.552 293.416 281.288 293.384 282.056C293.352 282.808 293.272 283.552 293.144 284.288C293.032 285.024 292.848 285.728 292.592 286.4C292.336 287.072 291.976 287.68 291.512 288.224C291.064 288.752 290.496 289.2 289.808 289.568C289.136 289.92 288.312 290.144 287.336 290.24L286.928 287.816C287.744 287.656 288.376 287.4 288.824 287.048C289.272 286.68 289.616 286.216 289.855 285.656C290.048 285.24 290.192 284.768 290.288 284.24C290.4 283.712 290.48 283.16 290.528 282.584C290.592 281.992 290.632 281.392 290.648 280.784C290.664 280.176 290.672 279.584 290.672 279.008V277.448H299.552V290H296.648V279.848H293.456ZM307.67 287.96C308.566 287.96 309.246 287.912 309.71 287.816V284.6C309.55 284.552 309.318 284.504 309.014 284.456C308.71 284.408 308.374 284.384 308.006 284.384C307.686 284.384 307.358 284.408 307.022 284.456C306.702 284.504 306.406 284.592 306.134 284.72C305.878 284.848 305.67 285.032 305.51 285.272C305.35 285.496 305.27 285.784 305.27 286.136C305.27 286.824 305.486 287.304 305.918 287.576C306.35 287.832 306.934 287.96 307.67 287.96ZM307.43 277.136C308.39 277.136 309.198 277.256 309.854 277.496C310.51 277.736 311.03 278.072 311.414 278.504C311.814 278.936 312.094 279.464 312.254 280.088C312.43 280.696 312.518 281.368 312.518 282.104V289.712C312.07 289.808 311.39 289.92 310.478 290.048C309.582 290.192 308.566 290.264 307.43 290.264C306.678 290.264 305.99 290.192 305.366 290.048C304.742 289.904 304.206 289.672 303.758 289.352C303.326 289.032 302.982 288.616 302.726 288.104C302.486 287.592 302.366 286.96 302.366 286.208C302.366 285.488 302.502 284.88 302.774 284.384C303.062 283.888 303.446 283.488 303.926 283.184C304.406 282.864 304.958 282.64 305.582 282.512C306.222 282.368 306.886 282.296 307.574 282.296C307.894 282.296 308.23 282.32 308.582 282.368C308.934 282.4 309.31 282.464 309.71 282.56V282.08C309.71 281.744 309.67 281.424 309.59 281.12C309.51 280.816 309.366 280.552 309.158 280.328C308.966 280.088 308.702 279.904 308.366 279.776C308.046 279.648 307.638 279.584 307.142 279.584C306.47 279.584 305.854 279.632 305.294 279.728C304.734 279.824 304.278 279.936 303.926 280.064L303.566 277.712C303.934 277.584 304.47 277.456 305.174 277.328C305.878 277.2 306.63 277.136 307.43 277.136ZM316.075 277.448H318.979V287.624H322.915V277.448H325.819V287.624H329.755V277.448H332.659V290H316.075V277.448ZM346.884 290H343.98V284.744H339.252V290H336.348V277.448H339.252V282.344H343.98V277.448H346.884V290ZM361.567 277.448V290H358.687C358.687 289.088 358.687 288.184 358.687 287.288C358.703 286.392 358.711 285.56 358.711 284.792C358.727 284.024 358.735 283.36 358.735 282.8C358.751 282.224 358.759 281.8 358.759 281.528C358.279 282.152 357.783 282.84 357.271 283.592C356.759 284.344 356.247 285.096 355.735 285.848C355.239 286.6 354.767 287.336 354.319 288.056C353.871 288.776 353.479 289.424 353.143 290H350.575V277.448H353.431C353.431 278.376 353.423 279.264 353.407 280.112C353.407 280.944 353.407 281.704 353.407 282.392C353.407 283.08 353.399 283.68 353.383 284.192C353.383 284.704 353.383 285.096 353.383 285.368C353.831 284.68 354.295 283.976 354.775 283.256C355.255 282.52 355.735 281.808 356.215 281.12C356.711 280.416 357.199 279.752 357.679 279.128C358.159 278.504 358.623 277.944 359.071 277.448H361.567ZM368.174 282.488C368.542 282.12 368.942 281.712 369.374 281.264C369.806 280.8 370.23 280.336 370.646 279.872C371.078 279.408 371.486 278.968 371.87 278.552C372.254 278.12 372.574 277.752 372.83 277.448H376.238C375.886 277.864 375.478 278.32 375.014 278.816C374.566 279.312 374.094 279.824 373.598 280.352C373.118 280.864 372.638 281.368 372.158 281.864C371.694 282.344 371.27 282.776 370.886 283.16C371.382 283.576 371.894 284.064 372.422 284.624C372.966 285.168 373.494 285.752 374.006 286.376C374.534 286.984 375.022 287.608 375.47 288.248C375.918 288.872 376.294 289.456 376.598 290H373.238C372.934 289.52 372.574 289.016 372.158 288.488C371.758 287.96 371.334 287.448 370.886 286.952C370.438 286.44 369.982 285.96 369.518 285.512C369.054 285.064 368.606 284.68 368.174 284.36V290H365.27V277.448H368.174V282.488ZM389.419 283.712C389.419 284.704 389.275 285.608 388.987 286.424C388.699 287.24 388.291 287.936 387.763 288.512C387.235 289.088 386.595 289.536 385.843 289.856C385.107 290.176 384.291 290.336 383.395 290.336C382.499 290.336 381.683 290.176 380.947 289.856C380.211 289.536 379.579 289.088 379.051 288.512C378.523 287.936 378.107 287.24 377.803 286.424C377.515 285.608 377.371 284.704 377.371 283.712C377.371 282.72 377.515 281.824 377.803 281.024C378.107 280.208 378.523 279.512 379.051 278.936C379.595 278.36 380.235 277.92 380.971 277.616C381.707 277.296 382.515 277.136 383.395 277.136C384.275 277.136 385.083 277.296 385.819 277.616C386.571 277.92 387.211 278.36 387.739 278.936C388.267 279.512 388.675 280.208 388.963 281.024C389.267 281.824 389.419 282.72 389.419 283.712ZM386.443 283.712C386.443 282.464 386.171 281.48 385.627 280.76C385.099 280.024 384.355 279.656 383.395 279.656C382.435 279.656 381.683 280.024 381.139 280.76C380.611 281.48 380.347 282.464 380.347 283.712C380.347 284.976 380.611 285.976 381.139 286.712C381.683 287.448 382.435 287.816 383.395 287.816C384.355 287.816 385.099 287.448 385.627 286.712C386.171 285.976 386.443 284.976 386.443 283.712ZM397.403 290.24C396.939 290.24 396.467 290.224 395.987 290.192C395.507 290.16 395.043 290.12 394.595 290.072C394.163 290.024 393.755 289.976 393.371 289.928C392.987 289.864 392.667 289.8 392.411 289.736V277.616C392.667 277.552 392.987 277.496 393.371 277.448C393.755 277.384 394.163 277.336 394.595 277.304C395.043 277.256 395.507 277.224 395.987 277.208C396.467 277.176 396.939 277.16 397.403 277.16C399.099 277.16 400.419 277.472 401.363 278.096C402.307 278.704 402.779 279.56 402.779 280.664C402.779 281.24 402.635 281.752 402.347 282.2C402.059 282.648 401.683 282.984 401.219 283.208C401.795 283.432 402.291 283.784 402.707 284.264C403.123 284.744 403.331 285.424 403.331 286.304C403.331 287.568 402.835 288.544 401.843 289.232C400.851 289.904 399.371 290.24 397.403 290.24ZM397.475 282.488C398.195 282.488 398.787 282.384 399.251 282.176C399.731 281.968 399.971 281.552 399.971 280.928C399.971 280.624 399.891 280.376 399.731 280.184C399.587 279.992 399.387 279.84 399.131 279.728C398.875 279.616 398.579 279.544 398.243 279.512C397.907 279.464 397.555 279.44 397.187 279.44C396.899 279.44 396.563 279.448 396.179 279.464C395.811 279.48 395.515 279.504 395.291 279.536V282.488H397.475ZM395.291 287.84C395.483 287.872 395.795 287.904 396.227 287.936C396.675 287.952 397.091 287.96 397.475 287.96C398.339 287.96 399.051 287.84 399.611 287.6C400.187 287.36 400.475 286.904 400.475 286.232C400.475 285.576 400.211 285.128 399.683 284.888C399.171 284.632 398.499 284.504 397.667 284.504H395.291V287.84ZM408.859 271.808C408.875 272 408.883 272.2 408.883 272.408C408.899 272.616 408.899 272.784 408.883 272.912C408.851 273.872 408.659 274.8 408.307 275.696C407.971 276.576 407.555 277.36 407.059 278.048L404.947 277.496C405.267 276.792 405.515 276.048 405.691 275.264C405.867 274.48 405.955 273.728 405.955 273.008C405.955 272.896 405.947 272.72 405.931 272.48C405.931 272.24 405.915 272.016 405.883 271.808H408.859ZM413.707 271.808C413.723 272 413.731 272.2 413.731 272.408C413.747 272.616 413.747 272.784 413.731 272.912C413.699 273.872 413.507 274.8 413.155 275.696C412.819 276.576 412.403 277.36 411.907 278.048L409.795 277.496C410.115 276.792 410.363 276.048 410.539 275.264C410.715 274.48 410.803 273.728 410.803 273.008C410.803 272.896 410.795 272.72 410.779 272.48C410.779 272.24 410.763 272.016 410.731 271.808H413.707Z"
        fill="white"/>
    <path
        d="M270.629 316.776C271.697 316.776 272.459 316.566 272.915 316.146C273.383 315.726 273.617 315.162 273.617 314.454C273.617 313.998 273.521 313.614 273.329 313.302C273.137 312.99 272.885 312.744 272.573 312.564C272.261 312.372 271.895 312.24 271.475 312.168C271.067 312.084 270.647 312.042 270.215 312.042H269.783V310.674H270.377C270.677 310.674 270.983 310.644 271.295 310.584C271.619 310.524 271.913 310.416 272.177 310.26C272.441 310.104 272.657 309.894 272.825 309.63C272.993 309.354 273.077 309.012 273.077 308.604C273.077 308.268 273.017 307.98 272.897 307.74C272.777 307.5 272.615 307.302 272.411 307.146C272.219 306.99 271.991 306.882 271.727 306.822C271.475 306.75 271.205 306.714 270.917 306.714C270.341 306.714 269.849 306.798 269.441 306.966C269.045 307.134 268.709 307.308 268.433 307.488L267.785 306.21C267.929 306.114 268.109 306.012 268.325 305.904C268.553 305.784 268.805 305.676 269.081 305.58C269.357 305.484 269.651 305.406 269.963 305.346C270.287 305.274 270.623 305.238 270.971 305.238C271.631 305.238 272.201 305.322 272.681 305.49C273.161 305.646 273.557 305.874 273.869 306.174C274.181 306.462 274.415 306.81 274.571 307.218C274.727 307.614 274.805 308.046 274.805 308.514C274.805 309.162 274.619 309.72 274.247 310.188C273.875 310.644 273.425 310.992 272.897 311.232C273.221 311.328 273.533 311.466 273.833 311.646C274.133 311.826 274.391 312.054 274.607 312.33C274.835 312.606 275.015 312.924 275.147 313.284C275.291 313.644 275.363 314.046 275.363 314.49C275.363 315.03 275.267 315.534 275.075 316.002C274.895 316.458 274.607 316.854 274.211 317.19C273.827 317.526 273.341 317.79 272.753 317.982C272.165 318.174 271.469 318.27 270.665 318.27C270.353 318.27 270.029 318.246 269.693 318.198C269.369 318.15 269.063 318.09 268.775 318.018C268.487 317.946 268.235 317.874 268.019 317.802C267.803 317.73 267.647 317.67 267.551 317.622L267.875 316.164C268.079 316.26 268.415 316.386 268.883 316.542C269.363 316.698 269.945 316.776 270.629 316.776ZM280.789 316.776C281.857 316.776 282.619 316.566 283.075 316.146C283.543 315.726 283.777 315.162 283.777 314.454C283.777 313.998 283.681 313.614 283.489 313.302C283.297 312.99 283.045 312.744 282.733 312.564C282.421 312.372 282.055 312.24 281.635 312.168C281.227 312.084 280.807 312.042 280.375 312.042H279.943V310.674H280.537C280.837 310.674 281.143 310.644 281.455 310.584C281.779 310.524 282.073 310.416 282.337 310.26C282.601 310.104 282.817 309.894 282.985 309.63C283.153 309.354 283.237 309.012 283.237 308.604C283.237 308.268 283.177 307.98 283.057 307.74C282.937 307.5 282.775 307.302 282.571 307.146C282.379 306.99 282.151 306.882 281.887 306.822C281.635 306.75 281.365 306.714 281.077 306.714C280.501 306.714 280.009 306.798 279.601 306.966C279.205 307.134 278.869 307.308 278.593 307.488L277.945 306.21C278.089 306.114 278.269 306.012 278.485 305.904C278.713 305.784 278.965 305.676 279.241 305.58C279.517 305.484 279.811 305.406 280.123 305.346C280.447 305.274 280.783 305.238 281.131 305.238C281.791 305.238 282.361 305.322 282.841 305.49C283.321 305.646 283.717 305.874 284.029 306.174C284.341 306.462 284.575 306.81 284.731 307.218C284.887 307.614 284.965 308.046 284.965 308.514C284.965 309.162 284.779 309.72 284.407 310.188C284.035 310.644 283.585 310.992 283.057 311.232C283.381 311.328 283.693 311.466 283.993 311.646C284.293 311.826 284.551 312.054 284.767 312.33C284.995 312.606 285.175 312.924 285.307 313.284C285.451 313.644 285.523 314.046 285.523 314.49C285.523 315.03 285.427 315.534 285.235 316.002C285.055 316.458 284.767 316.854 284.371 317.19C283.987 317.526 283.501 317.79 282.913 317.982C282.325 318.174 281.629 318.27 280.825 318.27C280.513 318.27 280.189 318.246 279.853 318.198C279.529 318.15 279.223 318.09 278.935 318.018C278.647 317.946 278.395 317.874 278.179 317.802C277.963 317.73 277.807 317.67 277.711 317.622L278.035 316.164C278.239 316.26 278.575 316.386 279.043 316.542C279.523 316.698 280.105 316.776 280.789 316.776ZM288.159 321.33H286.449L292.551 303.906H294.225L288.159 321.33ZM294.509 313.68C294.737 313.152 295.049 312.54 295.445 311.844C295.841 311.136 296.285 310.41 296.777 309.666C297.281 308.922 297.815 308.19 298.379 307.47C298.955 306.75 299.531 306.102 300.107 305.526H301.709V313.446H303.185V314.814H301.709V318H300.089V314.814H294.509V313.68ZM300.089 307.506C299.729 307.89 299.363 308.322 298.991 308.802C298.631 309.27 298.277 309.762 297.929 310.278C297.581 310.794 297.251 311.322 296.939 311.862C296.639 312.402 296.369 312.93 296.129 313.446H300.089V307.506ZM308.018 316.776C309.086 316.776 309.848 316.566 310.304 316.146C310.772 315.726 311.006 315.162 311.006 314.454C311.006 313.998 310.91 313.614 310.718 313.302C310.526 312.99 310.274 312.744 309.962 312.564C309.65 312.372 309.284 312.24 308.864 312.168C308.456 312.084 308.036 312.042 307.604 312.042H307.172V310.674H307.766C308.066 310.674 308.372 310.644 308.684 310.584C309.008 310.524 309.302 310.416 309.566 310.26C309.83 310.104 310.046 309.894 310.214 309.63C310.382 309.354 310.466 309.012 310.466 308.604C310.466 308.268 310.406 307.98 310.286 307.74C310.166 307.5 310.004 307.302 309.8 307.146C309.608 306.99 309.38 306.882 309.116 306.822C308.864 306.75 308.594 306.714 308.306 306.714C307.73 306.714 307.238 306.798 306.83 306.966C306.434 307.134 306.098 307.308 305.822 307.488L305.174 306.21C305.318 306.114 305.498 306.012 305.714 305.904C305.942 305.784 306.194 305.676 306.47 305.58C306.746 305.484 307.04 305.406 307.352 305.346C307.676 305.274 308.012 305.238 308.36 305.238C309.02 305.238 309.59 305.322 310.07 305.49C310.55 305.646 310.946 305.874 311.258 306.174C311.57 306.462 311.804 306.81 311.96 307.218C312.116 307.614 312.194 308.046 312.194 308.514C312.194 309.162 312.008 309.72 311.636 310.188C311.264 310.644 310.814 310.992 310.286 311.232C310.61 311.328 310.922 311.466 311.222 311.646C311.522 311.826 311.78 312.054 311.996 312.33C312.224 312.606 312.404 312.924 312.536 313.284C312.68 313.644 312.752 314.046 312.752 314.49C312.752 315.03 312.656 315.534 312.464 316.002C312.284 316.458 311.996 316.854 311.6 317.19C311.216 317.526 310.73 317.79 310.142 317.982C309.554 318.174 308.858 318.27 308.054 318.27C307.742 318.27 307.418 318.246 307.082 318.198C306.758 318.15 306.452 318.09 306.164 318.018C305.876 317.946 305.624 317.874 305.408 317.802C305.192 317.73 305.036 317.67 304.94 317.622L305.264 316.164C305.468 316.26 305.804 316.386 306.272 316.542C306.752 316.698 307.334 316.776 308.018 316.776ZM317.044 318C317.116 317.04 317.284 316.032 317.548 314.976C317.824 313.908 318.16 312.876 318.556 311.88C318.952 310.872 319.384 309.942 319.852 309.09C320.332 308.226 320.8 307.524 321.256 306.984H315.19V305.526H323.128V306.912C322.732 307.368 322.294 307.998 321.814 308.802C321.334 309.594 320.878 310.488 320.446 311.484C320.026 312.468 319.66 313.524 319.348 314.652C319.048 315.768 318.862 316.884 318.79 318H317.044Z"
        fill="white"/>
    <g clip-path="url(#clip0)">
        <path d="M419.533 499.335L411.847 518.619L398.962 518.619L406.678 499.34L404.107 495.479L419.533 495.484L419.533 499.335Z" fill="#965353"/>
        <path
            d="M431.098 491.624C430.389 491.623 429.813 492.199 429.813 492.909L429.813 498.051C429.813 498.78 429.26 499.333 428.528 499.335L425.983 499.335L423.414 499.333C422.664 499.319 422.103 498.764 422.103 498.048L422.128 492.914C422.132 492.209 421.558 491.628 420.852 491.623C420.848 491.623 420.845 491.623 420.843 491.625C420.136 491.623 419.561 492.198 419.558 492.903L419.533 498.041C419.533 498.044 419.533 498.044 419.531 498.046L419.533 498.048C419.533 500.171 421.216 501.865 423.415 501.906L428.527 501.905C430.691 501.906 432.385 500.211 432.384 498.048L432.383 492.909C432.383 492.199 431.809 491.625 431.098 491.624Z"
            fill="#545C66"/>
        <path
            d="M428.553 498.051C428.555 497.341 427.978 496.764 427.268 496.766C426.909 496.764 426.581 496.624 426.336 496.379C426.102 496.139 425.979 495.831 425.984 495.5C425.997 494.79 425.431 494.207 424.722 494.192C424.063 494.103 423.427 494.747 423.414 495.454C423.396 496.475 423.783 497.441 424.505 498.177C425.234 498.92 426.219 499.335 427.27 499.335C427.976 499.337 428.552 498.761 428.553 498.051Z"
            fill="#545C66"/>
        <path
            d="M548.309 487.762C547.6 487.763 547.024 487.187 547.024 486.477L547.024 481.335C547.024 480.627 547.6 480.051 548.308 480.051C549.019 480.051 549.595 480.627 549.594 481.336L549.595 486.477C549.595 487.19 549.02 487.765 548.309 487.762Z"
            fill="#545C66"/>
        <path
            d="M517.278 482.621L496.528 482.621C495.819 482.621 495.243 482.044 495.243 481.336C495.242 480.627 495.819 480.05 496.528 480.051L517.278 480.051C517.986 480.051 518.562 480.627 518.563 481.336C518.562 482.045 517.986 482.621 517.278 482.621Z"
            fill="#545C66"/>
        <path
            d="M522.418 487.762C522.089 487.764 521.762 487.637 521.509 487.384L516.369 482.243C515.866 481.741 515.867 480.927 516.369 480.425C516.87 479.924 517.684 479.923 518.187 480.425L523.327 485.566C523.83 486.068 523.829 486.882 523.327 487.384C523.076 487.638 522.748 487.764 522.418 487.762Z"
            fill="#545C66"/>
        <path d="M496.66 482.626L470.95 482.629L470.95 477.487L495.399 477.486L496.66 478.774L496.66 482.626Z" fill="#844747"/>
        <path d="M465.834 519.568L460.692 528.903C447.329 525.018 437.556 512.678 437.554 498.05L437.554 495.483L447.812 495.481L447.812 498.051C447.837 508.821 455.577 517.745 465.834 519.568Z" fill="#545C66"/>
        <path d="M553.27 485.197L553.272 490.34L499.104 490.342L496.684 490.34L496.66 485.197L548.307 485.197L553.27 485.197Z" fill="#656D78"/>
        <path d="M496.684 490.34V492.911C496.684 492.911 478.663 492.938 473.52 492.936C468.379 492.936 463.264 495.481 460.691 495.483L460.665 482.63L470.948 482.63L496.657 482.629L496.684 490.34Z" fill="#965353"/>
        <path
            d="M409.274 480.056L455.524 480.056L458.097 480.058L458.095 477.486L463.263 477.489L470.95 477.487L470.95 482.629L460.667 482.629L460.693 495.481L458.121 495.483H437.554L432.389 495.485L419.559 495.483L401.535 495.484L401.537 485.197L409.274 480.056Z"
            fill="#656D78"/>
        <path d="M401.537 485.197L401.536 495.483L398.966 495.483L352.739 508.334L347.547 508.337L350.116 485.197L380.965 485.197C383.485 492.575 397.703 485.737 398.888 485.17L401.537 485.197Z" fill="#965353"/>
        <path d="M458.096 477.485L470.948 477.484L470.947 482.626L458.096 482.626L458.096 477.485Z" fill="#AAB2BD"/>
        <path
            d="M458.097 482.629C457.388 482.629 456.812 482.052 456.811 481.343L456.81 476.201C456.81 475.491 457.386 474.915 458.096 474.916C458.805 474.915 459.381 475.491 459.38 476.2L459.382 481.343C459.383 482.052 458.808 482.627 458.097 482.629Z"
            fill="#CCD1D9"/>
        <path
            d="M458.123 523.76C457.935 523.762 457.749 523.722 457.57 523.637C448.611 519.386 442.461 510.614 441.52 500.745C441.45 500.034 441.971 499.41 442.675 499.34C443.39 499.306 444.012 499.793 444.075 500.5C444.935 509.475 450.526 517.454 458.673 521.312C459.315 521.618 459.586 522.385 459.282 523.025C459.067 523.49 458.602 523.764 458.123 523.76Z"
            fill="#434A54"/>
        <path d="M461.979 477.486C461.98 478.193 462.555 478.767 463.265 478.767C463.973 478.767 464.546 478.191 464.55 477.486L461.979 477.486Z" fill="#CCD1D9"/>
        <path
            d="M447.812 486.482L432.389 486.483C431.679 486.482 431.103 485.906 431.103 485.197C431.104 484.488 431.68 483.912 432.389 483.912L447.812 483.912C448.521 483.912 449.097 484.488 449.097 485.197C449.097 485.91 448.523 486.485 447.812 486.482Z"
            fill="#545C66"/>
        <path
            d="M447.811 489.052C447.103 489.052 446.529 488.478 446.526 487.767L446.527 485.197C446.526 484.488 447.102 483.912 447.812 483.912C448.521 483.912 449.097 484.488 449.097 485.197L449.098 487.769C449.097 488.481 448.522 489.055 447.811 489.052Z"
            fill="#AAB2BD"/>
        <path
            d="M419.532 486.486L409.274 486.485C408.565 486.484 407.989 485.908 407.989 485.199C407.988 484.49 408.565 483.913 409.274 483.914L419.532 483.912C420.244 483.914 420.818 484.488 420.819 485.199C420.818 485.91 420.245 486.483 419.532 486.486Z"
            fill="#545C66"/>
        <path d="M496.31 479.68C495.807 480.182 494.993 480.181 494.492 479.68C493.99 479.177 493.99 478.364 494.492 477.862C494.993 477.36 495.807 477.359 496.31 477.862C496.811 478.363 496.811 479.178 496.31 479.68Z" fill="#844747"/>
        <path d="M554.554 487.768C554.553 486.349 553.978 485.197 553.268 485.197C552.558 485.197 551.982 486.349 551.982 487.769C551.983 489.188 552.557 490.34 553.267 490.34C553.977 490.34 554.554 489.188 554.554 487.768Z" fill="#545C66"/>
    </g>
    <g clip-path="url(#clip1)">
        <path
            d="M312.928 540.029V543.199C312.928 550.817 306.752 556.993 299.133 556.993C290.17 556.993 290.059 557.055 288.55 556.8C282.035 555.7 277.073 550.031 277.073 543.203V526.654C277.073 524.75 278.615 523.207 280.519 523.207C282.424 523.207 283.967 524.75 283.967 526.654V523.896C283.967 521.613 285.818 519.759 288.104 519.759C290.39 519.759 292.242 521.611 292.242 523.896V521.138C292.242 518.853 294.094 517 296.379 517C298.664 517 300.516 518.852 300.516 521.138C300.516 519.995 300.979 518.961 301.728 518.212C304.35 515.587 308.79 517.519 308.79 521.214C308.79 531.449 308.793 530.844 308.786 530.988C308.785 530.996 308.562 530.592 311.7 535.691C312.503 536.996 312.928 538.497 312.928 540.029Z"
            fill="#F9CFAC"/>
        <path d="M300.516 521.138V527.432H293.693V517.991C296.341 515.727 300.516 517.582 300.516 521.138Z" fill="#FFE4CC"/>
        <path
            d="M292.242 523.896V527.432H291.552C289.369 527.432 287.36 529.194 287.516 531.902C287.619 533.765 288.407 535.45 289.632 536.707C289.364 536.812 289.083 536.891 288.792 536.94C286.832 536.615 285.338 534.912 285.338 532.86V520.82C287.976 518.446 292.242 520.308 292.242 523.896Z"
            fill="#FFE4CC"/>
        <path d="M283.967 526.654V534.928C283.967 536.64 282.72 538.06 281.084 538.33C279.449 538.06 278.201 536.64 278.201 534.928V524.103C280.39 522.111 283.967 523.647 283.967 526.654Z" fill="#FFE4CC"/>
        <path d="M308.79 521.138V529.106C307.566 528.046 305.979 527.432 304.329 527.432H302.129V517.86C304.803 515.794 308.79 517.672 308.79 521.138Z" fill="#FFE4CC"/>
        <path
            d="M312.928 540.029V543.203C312.928 547.618 310.852 551.549 307.624 554.073C305.704 555.088 303.513 555.663 301.189 555.663H292.919C285.333 555.663 279.129 549.519 279.129 541.873V539.457C281.316 540.13 283.67 539.14 284.727 537.104C285.654 537.844 286.828 538.287 288.105 538.287C289.276 538.287 289.988 537.954 290.749 537.652C292.954 539.176 294.876 538.976 296.884 538.976C293.917 541.191 291.923 544.641 291.669 548.556C291.648 548.943 291.949 549.236 292.303 549.242C292.646 549.248 292.935 548.983 292.957 548.641C293.353 542.525 298.437 537.686 304.653 537.686H295C291.573 537.686 288.794 534.909 288.794 531.481C288.794 529.957 290.029 528.723 291.552 528.723H304.329C306.245 528.723 308.024 529.716 309.027 531.348L311.7 535.691C312.503 536.996 312.928 538.497 312.928 540.029Z"
            fill="#FFE4CC"/>
    </g>
    <defs>
        <filter id="filter0_b" x="-40" y="-40" width="669.959" height="653.749" filterUnits="userSpaceOnUse" color-interpolation-filters="sRGB">
            <feFlood flood-opacity="0" result="BackgroundImageFix"/>
            <feGaussianBlur in="BackgroundImage" stdDeviation="20"/>
            <feComposite in2="SourceAlpha" operator="in" result="effect1_backgroundBlur"/>
            <feBlend mode="normal" in="SourceGraphic" in2="effect1_backgroundBlur" result="shape"/>
        </filter>
        <filter id="filter1_b" x="169.283" y="441.45" width="251.278" height="188.621" filterUnits="userSpaceOnUse" color-interpolation-filters="sRGB">
            <feFlood flood-opacity="0" result="BackgroundImageFix"/>
            <feGaussianBlur in="BackgroundImage" stdDeviation="20"/>
            <feComposite in2="SourceAlpha" operator="in" result="effect1_backgroundBlur"/>
            <feBlend mode="normal" in="SourceGraphic" in2="effect1_backgroundBlur" result="shape"/>
        </filter>
        <filter id="filter2_b" x="79" y="79" width="432" height="432" filterUnits="userSpaceOnUse" color-interpolation-filters="sRGB">
            <feFlood flood-opacity="0" result="BackgroundImageFix"/>
            <feGaussianBlur in="BackgroundImage" stdDeviation="20"/>
            <feComposite in2="SourceAlpha" operator="in" result="effect1_backgroundBlur"/>
            <feBlend mode="normal" in="SourceGraphic" in2="effect1_backgroundBlur" result="shape"/>
        </filter>
        <filter id="filter3_b" x="169.283" y="533.24" width="251.278" height="96.7605" filterUnits="userSpaceOnUse" color-interpolation-filters="sRGB">
            <feFlood flood-opacity="0" result="BackgroundImageFix"/>
            <feGaussianBlur in="BackgroundImage" stdDeviation="20"/>
            <feComposite in2="SourceAlpha" operator="in" result="effect1_backgroundBlur"/>
            <feBlend mode="normal" in="SourceGraphic" in2="effect1_backgroundBlur" result="shape"/>
        </filter>
        <filter id="filter4_b" x="-39.9448" y="-40" width="669.889" height="653.749" filterUnits="userSpaceOnUse" color-interpolation-filters="sRGB">
            <feFlood flood-opacity="0" result="BackgroundImageFix"/>
            <feGaussianBlur in="BackgroundImage" stdDeviation="20"/>
            <feComposite in2="SourceAlpha" operator="in" result="effect1_backgroundBlur"/>
            <feBlend mode="normal" in="SourceGraphic" in2="effect1_backgroundBlur" result="shape"/>
        </filter>
        <linearGradient id="paint0_linear" x1="294.923" y1="589.912" x2="294.923" y2="481.183" gradientUnits="userSpaceOnUse">
            <stop stop-color="#FFDF29"/>
            <stop offset="1" stop-color="#FFDF29" stop-opacity="0"/>
        </linearGradient>
        <clipPath id="clip0">
            <rect width="162.338" height="162.338" fill="white" transform="translate(446.79 378) rotate(45)"/>
        </clipPath>
        <clipPath id="clip1">
            <rect width="40" height="40" fill="white" transform="translate(275 517)"/>
        </clipPath>
    </defs>
</svg>
