<svg width="15" height="15" viewBox="0 0 15 15" fill="none" xmlns="http://www.w3.org/2000/svg">
<path d="M11.6123 0.584961C9.74119 0.584961 8.22447 1.86849 8.22447 3.45175C8.22447 3.94364 8.37094 4.40652 8.62882 4.81103L8.08499 5.95597C8.04215 6.04619 8.05622 6.15311 8.12086 6.2292C8.16984 6.28679 8.24091 6.31858 8.31419 6.31855C8.33765 6.31855 8.36143 6.31527 8.38476 6.3085L9.82967 5.88983C10.3475 6.16153 10.9581 6.31855 11.6123 6.31855C13.4833 6.31855 15 5.03502 15 3.45172C15 1.86849 13.4832 0.584961 11.6123 0.584961ZM10.5839 3.97172C10.2967 3.97172 10.064 3.73893 10.064 3.45175C10.064 3.16458 10.2967 2.93179 10.5839 2.93179C10.8711 2.93179 11.1038 3.16458 11.1038 3.45175C11.1038 3.73893 10.8711 3.97172 10.5839 3.97172ZM12.4766 3.97172C12.1894 3.97172 11.9566 3.73893 11.9566 3.45175C11.9566 3.16458 12.1894 2.93179 12.4766 2.93179C12.7638 2.93179 12.9965 3.16458 12.9965 3.45175C12.9965 3.73893 12.7638 3.97172 12.4766 3.97172Z" fill="#FFFCBB"/>
<path d="M8.24308 8.94377L6.70233 8.47681C6.66517 8.36425 6.58259 8.26685 6.46719 8.18446C6.59417 8.04332 6.70136 7.90047 6.78288 7.78229C6.97627 7.50192 7.13716 7.19993 7.2486 6.90858C7.3035 6.78569 7.3503 6.66234 7.3882 6.54126C7.53823 6.41553 7.62652 6.22776 7.62652 6.03078V5.54824C7.62652 5.40979 7.58297 5.27436 7.50282 5.16208V4.48279C7.50282 3.29114 6.53339 2.32184 5.3419 2.32184H4.64137C3.44984 2.32184 2.48038 3.29114 2.48038 4.48279V5.16215C2.40027 5.27439 2.35672 5.40988 2.35672 5.54828V6.03081C2.35672 6.22766 2.44504 6.41531 2.59503 6.54123C2.63291 6.66212 2.6797 6.7856 2.73461 6.90876C2.84608 7.20002 3.00703 7.50195 3.20032 7.78217C3.28184 7.90037 3.3891 8.04329 3.51607 8.18449C3.40061 8.26688 3.31806 8.36428 3.28088 8.47684L1.74016 8.9438C0.655395 9.2555 0.00536596 13.9423 0.00536596 13.9423H0.00549075C0.00221502 13.9632 0 13.9843 0 14.0061C0 14.232 0.183066 14.4151 0.408967 14.4151H9.57418C9.80011 14.4151 9.98314 14.232 9.98314 14.0061C9.98317 13.81 9.32778 9.2555 8.24308 8.94377ZM4.577 10.1571C4.57114 10.2137 4.53121 10.261 4.47633 10.2763C4.46401 10.2797 4.45156 10.2814 4.43914 10.2814C4.3964 10.2814 4.35519 10.2615 4.32855 10.2263L3.93936 9.71001C3.9212 9.68596 3.91144 9.65663 3.91144 9.62653L3.91194 8.7988C3.91197 8.75025 3.9374 8.70527 3.97898 8.68022C4.0206 8.65516 4.07223 8.65373 4.11516 8.67641C4.22847 8.73631 4.34162 8.77655 4.4514 8.79608C4.51751 8.80781 4.56571 8.86528 4.56571 8.93245V9.27777C4.58543 9.28554 4.60337 9.29783 4.61787 9.3139C4.64414 9.34301 4.65681 9.38188 4.65281 9.42087L4.577 10.1571ZM6.04325 9.71004L5.65459 10.226C5.62801 10.2612 5.58677 10.2811 5.54394 10.2811C5.53161 10.2811 5.51914 10.2795 5.50688 10.2761C5.45203 10.2608 5.41207 10.2135 5.4062 10.1568L5.33033 9.42094C5.32624 9.38194 5.33897 9.34307 5.36524 9.31396C5.37975 9.29786 5.39765 9.28557 5.41734 9.27783V8.93245C5.41734 8.86528 5.4656 8.80781 5.53171 8.79608C5.64146 8.77655 5.75455 8.73634 5.8678 8.6765C5.91076 8.65379 5.96242 8.65529 6.00404 8.68031C6.04562 8.70539 6.07105 8.75041 6.07105 8.79895L6.07111 9.62668C6.07117 9.65676 6.06144 9.68599 6.04325 9.71004ZM5.36365 8.06332H4.61953C4.45512 8.06332 4.13768 7.84341 3.79894 7.35211C3.53152 6.96458 3.34574 6.53558 3.30197 6.20464L3.29451 6.14727L3.16005 6.05991C3.12074 6.03436 3.09703 5.99066 3.09703 5.94377V5.71574C3.09703 5.63925 3.15902 5.57723 3.23552 5.57723H3.29208V5.33024C3.29208 5.2777 3.32175 5.22975 3.36873 5.20629C3.55941 5.11108 3.93783 4.95138 4.32964 4.95138C4.64227 4.95138 4.90146 5.05539 5.10009 5.26045C5.34755 5.5162 5.63269 5.64586 5.94785 5.64586C6.12617 5.64586 6.31058 5.60381 6.4958 5.52079C6.53864 5.50157 6.5883 5.50541 6.62774 5.53093C6.6462 5.54288 6.66124 5.55885 6.67204 5.5772H6.7476C6.82406 5.5772 6.88608 5.63922 6.88608 5.71571V5.94373C6.88608 5.99062 6.86231 6.03433 6.82303 6.05988L6.6886 6.14724L6.68118 6.20429C6.63738 6.53546 6.45159 6.96455 6.18414 7.35217C5.84549 7.84341 5.52809 8.06332 5.36365 8.06332Z" fill="#FFFCBB"/>
</svg>
