<svg width="20" height="20" viewBox="0 0 20 20" fill="none" xmlns="http://www.w3.org/2000/svg">
<g clip-path="url(#clip0)">
<path d="M17.6902 7.61091C17.6901 7.60969 17.6899 7.60832 17.6898 7.6071L19.8284 4.942C19.9922 4.73784 20.0428 4.46532 19.9635 4.21584C19.884 3.96651 19.6848 3.77349 19.4331 3.70177L16.4253 2.84484C16.0104 2.72659 15.5781 2.96722 15.4598 3.3821C15.3416 3.79714 15.5822 4.22927 15.9971 4.34752L17.8732 4.88204L16.0754 7.12217L10.1611 8.80964C10.1072 8.81193 10.0535 8.82017 10.0006 8.8339C9.94808 8.82032 9.89483 8.81193 9.84127 8.80949L3.91447 7.10905L2.12752 4.88204L4.00343 4.34752C4.41831 4.22942 4.65894 3.79714 4.54069 3.38225C4.42243 2.96722 3.99015 2.72674 3.57527 2.84484L0.567461 3.70177C0.315845 3.77349 0.116718 3.96651 0.0372198 4.21599C-0.0422783 4.46532 0.00838075 4.73799 0.17226 4.94216L2.32939 7.63029L0.159748 10.4843C0.0063971 10.686 -0.0396843 10.9495 0.0363043 11.1912C0.112293 11.4329 0.300738 11.6229 0.541979 11.7006L2.34404 12.2815V15.6729C2.34404 17.0613 3.2765 18.2969 4.61164 18.6779L8.48187 19.7821C8.99014 19.9272 9.5129 19.9996 10.0355 19.9996C10.5612 19.9996 11.0867 19.9262 11.5976 19.7798L15.4325 18.6793C16.7651 18.2969 17.6956 17.0617 17.6956 15.6755C17.6956 15.2441 17.3458 14.8944 16.9143 14.8944C16.4828 14.8944 16.1331 15.2441 16.1331 15.6755C16.1331 16.3687 15.6678 16.9863 15.0015 17.1774L11.1665 18.2778C11.0394 18.3143 10.9108 18.3441 10.7815 18.368V11.7334L12.0625 13.5046C12.2123 13.7117 12.4496 13.8281 12.6957 13.8281C12.7751 13.8281 12.8555 13.816 12.9339 13.7909L19.4573 11.701C19.698 11.624 19.8864 11.4352 19.9632 11.1947C20.0401 10.9541 19.9958 10.691 19.8444 10.4889L17.6902 7.61091ZM3.53529 8.62577L8.49804 10.0497L6.96973 12.1306L2.07106 10.5517L3.53529 8.62577ZM5.04041 17.1754C4.37284 16.9848 3.90653 16.367 3.90653 15.6729V12.785L7.02634 13.7904C7.10522 13.8159 7.18594 13.8282 7.2659 13.8282C7.50989 13.8282 7.74563 13.7135 7.89563 13.5093L9.21902 11.7074V18.3543C9.11557 18.3332 9.01257 18.3087 8.91049 18.2795L5.04041 17.1754ZM12.9968 12.1299L11.4953 10.0538L16.4985 8.62638L17.9366 10.5475L12.9968 12.1299ZM9.21902 6.87498V0.781248C9.21902 0.349731 9.5689 0 10.0003 0C10.4318 0 10.7815 0.349731 10.7815 0.781248V6.87498C10.7815 7.3065 10.4318 7.65623 10.0003 7.65623C9.5689 7.65623 9.21902 7.3065 9.21902 6.87498ZM12.344 6.09373V0.781248C12.344 0.349731 12.6937 0 13.1253 0C13.5568 0 13.9065 0.349731 13.9065 0.781248V6.09373C13.9065 6.52525 13.5568 6.87498 13.1253 6.87498C12.6937 6.87498 12.344 6.52525 12.344 6.09373ZM6.09403 6.09373V0.781248C6.09403 0.349731 6.44391 0 6.87528 0C7.30679 0 7.65652 0.349731 7.65652 0.781248V6.09373C7.65652 6.52525 7.30679 6.87498 6.87528 6.87498C6.44391 6.87498 6.09403 6.52525 6.09403 6.09373Z" fill="#151515"/>
</g>
<defs>
<clipPath id="clip0">
<rect width="20" height="20" fill="white"/>
</clipPath>
</defs>
</svg>
