<svg width="20" height="20" viewBox="0 0 20 20" fill="none" xmlns="http://www.w3.org/2000/svg">
<g clip-path="url(#clip0)">
<path d="M18.8013 16.1032C19.5867 15.0338 19.9993 13.7911 19.9993 12.4814C19.9993 10.3849 18.9121 8.43838 17.0778 7.2237C16.9086 5.35577 16.0364 3.62347 14.5781 2.28875C12.9656 0.81285 10.8262 0 8.55403 0C6.28188 0 4.14251 0.81285 2.52994 2.28878C0.898064 3.78234 -0.000645339 5.77366 -0.000645339 7.89592C-0.000645339 9.52826 0.525565 11.0758 1.52587 12.4L0.0563077 16.0353C-0.0628718 16.3301 0.00849527 16.6677 0.236815 16.889C0.385643 17.0332 0.581658 17.1094 0.780798 17.1094C0.887165 17.1093 0.994431 17.0876 1.09576 17.043L5.2872 15.1953C5.81341 15.3965 6.35551 15.5469 6.91012 15.6465C7.47821 16.5808 8.28852 17.372 9.27359 17.948C10.3734 18.5909 11.6432 18.9345 12.9493 18.9443C12.9685 18.9457 12.9876 18.9473 13.0072 18.9473C13.9102 18.9473 14.7851 18.7913 15.6128 18.4832L18.903 19.9336C19.0043 19.9783 19.1115 20 19.2179 20C19.417 20 19.6131 19.9239 19.7619 19.7796C19.9902 19.5583 20.0616 19.2207 19.9424 18.9259L18.8013 16.1032ZM17.1825 16.2678L17.7727 17.7278L15.9431 16.9213C15.7453 16.8341 15.5203 16.8327 15.3214 16.9176C14.6043 17.2235 13.8365 17.3803 13.0388 17.3844C13.0282 17.3839 13.0178 17.3828 13.0071 17.3828C11.4675 17.3828 10.013 16.7811 8.99684 15.7803C10.2852 15.7186 11.5481 15.3896 12.6741 14.8178C13.0588 14.6224 13.2122 14.1522 13.0168 13.7674C12.8215 13.3827 12.3512 13.2293 11.9665 13.4247C10.93 13.9511 9.74996 14.2293 8.55403 14.2293C7.51481 14.2293 6.5143 14.0273 5.58044 13.6288C5.38165 13.544 5.15649 13.5453 4.95872 13.6326L2.22599 14.8372L3.14607 12.5612C3.25517 12.2913 3.20521 11.9831 3.01634 11.7616C2.06482 10.6453 1.56185 9.30854 1.56185 7.89592C1.56185 4.40362 4.69853 1.5625 8.55403 1.5625C12.4095 1.5625 15.5462 4.40362 15.5462 7.89592C15.5462 9.02389 15.2146 10.1312 14.5871 11.0982C14.3523 11.4602 14.4553 11.944 14.8173 12.1788C15.1792 12.4137 15.663 12.3106 15.898 11.9486C16.4548 11.0905 16.8267 10.143 16.9988 9.15893C17.914 10.0552 18.4368 11.2357 18.4368 12.4814C18.4368 13.5723 18.048 14.6051 17.3122 15.4682C17.1233 15.6897 17.0734 15.9979 17.1825 16.2678ZM9.29621 11.914C9.29621 12.3455 8.94645 12.6953 8.51496 12.6953C8.08348 12.6953 7.73371 12.3455 7.73371 11.914C7.73371 11.4826 8.08348 11.1328 8.51496 11.1328C8.94645 11.1328 9.29621 11.4826 9.29621 11.914ZM11.483 6.06061C11.4835 6.07147 11.4837 6.08233 11.4837 6.09331C11.484 7.26936 10.7852 8.32772 9.70355 8.78947C9.47973 8.88506 9.33504 9.11049 9.33504 9.36373V9.41404C9.33504 9.84553 8.98527 10.1953 8.55379 10.1953C8.12231 10.1953 7.77254 9.84553 7.77254 9.41404V9.36377C7.77254 8.48365 8.28969 7.6942 9.09008 7.35252C9.58824 7.13983 9.91246 6.6562 9.92105 6.11608C9.92086 6.10858 9.92074 6.10104 9.92074 6.0935C9.92074 5.33979 9.30754 4.72659 8.55379 4.72659C7.80008 4.72655 7.18684 5.33975 7.18684 6.09346C7.18684 6.52495 6.83708 6.87471 6.40559 6.87471C5.97411 6.87471 5.62434 6.52495 5.62434 6.09346C5.62434 4.47819 6.93848 3.16406 8.55379 3.16406C10.1581 3.16406 11.4654 4.46042 11.483 6.06061Z" fill="#FFDF29"/>
</g>
<defs>
<clipPath id="clip0">
<rect width="20" height="20" fill="white"/>
</clipPath>
</defs>
</svg>
