<svg width="20" height="20" viewBox="0 0 20 20" fill="none" xmlns="http://www.w3.org/2000/svg">
<path d="M17.1462 13.75C17.5777 13.75 17.9275 13.4002 17.9275 12.9688V3.125C17.9275 1.40188 16.5256 0 14.8025 0H5.19745C3.47432 0 2.07245 1.40188 2.07245 3.125V16.875C2.07245 18.5981 3.47432 20 5.19745 20H14.8025C16.5256 20 17.9275 18.5981 17.9275 16.875C17.9275 16.4435 17.5777 16.0938 17.1462 16.0938C16.7148 16.0938 16.365 16.4435 16.365 16.875C16.365 17.7366 15.6641 18.4375 14.8025 18.4375H5.19745C4.33589 18.4375 3.63495 17.7366 3.63495 16.875V3.125C3.63495 2.26344 4.33589 1.5625 5.19745 1.5625H14.8025C15.6641 1.5625 16.365 2.26344 16.365 3.125V12.9688C16.365 13.4002 16.7148 13.75 17.1462 13.75Z" fill="#151515"/>
<path d="M14.0213 4.6875H5.97443C5.54294 4.6875 5.19318 5.03727 5.19318 5.46875C5.19318 5.90023 5.54294 6.25 5.97443 6.25H14.0213C14.4528 6.25 14.8026 5.90023 14.8026 5.46875C14.8026 5.03727 14.4527 4.6875 14.0213 4.6875Z" fill="#151515"/>
<path d="M14.0213 7.8125H5.97443C5.54294 7.8125 5.19318 8.16227 5.19318 8.59375C5.19318 9.02523 5.54294 9.375 5.97443 9.375H14.0213C14.4528 9.375 14.8026 9.02523 14.8026 8.59375C14.8026 8.16227 14.4527 7.8125 14.0213 7.8125Z" fill="#151515"/>
<path d="M10.8615 10.9375H5.97443C5.54294 10.9375 5.19318 11.2873 5.19318 11.7188C5.19318 12.1502 5.54294 12.5 5.97443 12.5H10.8616C11.2931 12.5 11.6428 12.1502 11.6428 11.7188C11.6428 11.2873 11.293 10.9375 10.8615 10.9375Z" fill="#151515"/>
</svg>
