<svg width="25" height="25" viewBox="0 0 25 25" fill="none" xmlns="http://www.w3.org/2000/svg">
<g clip-path="url(#clip0)">
<path d="M25 12.0117V12.9883C25 14.6038 23.6858 15.918 22.0703 15.918H21.5784C21.4491 15.918 21.3318 15.9994 21.2797 16.1255L21.273 16.1419C21.2198 16.2701 21.2448 16.411 21.3364 16.5026C21.7176 16.8839 21.7176 17.5022 21.3364 17.8837C20.9549 18.265 20.3367 18.2652 19.9553 17.8837C19.3026 17.231 19.1116 16.2539 19.4687 15.3944L19.4746 15.3797C19.8296 14.5205 20.6553 13.9648 21.5784 13.9648H22.0703C22.6088 13.9648 23.0469 13.5267 23.0469 12.9883V12.0117C23.0469 11.4733 22.6088 11.0352 22.0703 11.0352H21.5784C20.6553 11.0352 19.8296 10.4795 19.4744 9.6199L19.4685 9.6056C19.1116 8.74615 19.3026 7.76901 19.9553 7.11632L20.3032 6.76861C20.6839 6.3879 20.6839 5.76839 20.3032 5.3875L19.6125 4.69704C19.4281 4.5126 19.1828 4.41093 18.922 4.41093C18.6611 4.41093 18.4158 4.5126 18.2316 4.69704L17.8837 5.04475C17.231 5.69744 16.2539 5.88856 15.3944 5.5315L15.3799 5.5254C14.5205 5.17044 13.9648 4.34475 13.9648 3.42159V2.92969C13.9648 2.39124 13.5267 1.95312 12.9883 1.95312H12.0117C11.4733 1.95312 11.0352 2.39124 11.0352 2.92969V3.42159C11.0352 4.34475 10.4795 5.17044 9.6199 5.5254L9.60751 5.53055C8.74596 5.88837 7.76901 5.69725 7.11632 5.04475L6.76842 4.69685C6.58417 4.51241 6.33888 4.41093 6.07796 4.41093C5.81722 4.41093 5.57194 4.51241 5.3875 4.69685L4.69685 5.3875C4.31614 5.7682 4.31614 6.38771 4.69685 6.76861L5.04475 7.11632C5.69744 7.76901 5.88837 8.74615 5.53131 9.60579L5.5254 9.62029C5.17044 10.4795 4.34475 11.0352 3.42159 11.0352H2.92969C2.39124 11.0352 1.95312 11.4733 1.95312 12.0117V12.9883C1.95312 13.5267 2.39124 13.9648 2.92969 13.9648H3.42159C4.34456 13.9648 5.17044 14.5205 5.5254 15.3801L5.53207 15.3959C5.88837 16.2539 5.69725 17.231 5.04456 17.8837L4.69685 18.2314C4.51241 18.4158 4.41093 18.6611 4.41093 18.922C4.41093 19.1828 4.51241 19.4281 4.69685 19.6125L5.3875 20.303C5.7682 20.6839 6.38771 20.6839 6.76842 20.303L7.11632 19.9553C7.76882 19.3026 8.74596 19.1116 9.6056 19.4687L9.62009 19.4746C10.4795 19.8296 11.0352 20.6553 11.0352 21.5784V22.0703C11.0352 22.6088 11.4733 23.0469 12.0117 23.0469H12.9883C13.5267 23.0469 13.9648 22.6088 13.9648 22.0703V21.5784C13.9648 20.6553 14.5205 19.8296 15.3801 19.4746L15.3925 19.4695C16.2539 19.1116 17.231 19.3026 17.8837 19.9553L18.2314 20.303C18.6123 20.6839 19.2318 20.6839 19.6125 20.303C19.994 19.9217 20.6121 19.9217 20.9936 20.303C21.3749 20.6844 21.3749 21.3028 20.9936 21.6841C19.8513 22.8264 17.9926 22.8264 16.8503 21.6841L16.5026 21.3364C16.411 21.2448 16.2701 21.2196 16.1434 21.2723L16.1259 21.2797C15.9994 21.3318 15.918 21.4491 15.918 21.5784V22.0703C15.918 23.6858 14.6036 25 12.9883 25H12.0117C10.3962 25 9.08203 23.6858 9.08203 22.0703V21.5784C9.08203 21.4491 9.00059 21.3318 8.87451 21.2797L8.85468 21.2715C8.72974 21.2196 8.58898 21.2448 8.49743 21.3364L8.14953 21.6841C7.00741 22.8264 5.1487 22.8264 4.00639 21.6841L3.31593 20.9936C2.7626 20.4401 2.45781 19.7044 2.45781 18.922C2.45781 18.1395 2.7626 17.4038 3.31593 16.8503L3.66364 16.5026C3.75519 16.411 3.78036 16.2701 3.72772 16.1434L3.72047 16.1259C3.66821 15.9994 3.55091 15.918 3.42159 15.918H2.92969C1.31416 15.918 0 14.6038 0 12.9883V12.0117C0 10.3964 1.31416 9.08203 2.92969 9.08203H3.42159C3.55091 9.08203 3.66821 9.00059 3.72028 8.87451L3.72753 8.85677C3.78036 8.72993 3.75519 8.58898 3.66364 8.49743L3.31593 8.14972C2.17361 7.00741 2.17361 5.14889 3.31593 4.00658L4.00639 3.31593C4.5599 2.7626 5.29556 2.45781 6.07796 2.45781C6.86054 2.45781 7.59621 2.7626 8.14972 3.31593L8.49743 3.66364C8.58898 3.75519 8.72993 3.78036 8.85658 3.72772L8.87413 3.72028C9.00059 3.66821 9.08203 3.55091 9.08203 3.42159V2.92969C9.08203 1.31416 10.3964 0 12.0117 0H12.9883C14.6038 0 15.918 1.31416 15.918 2.92969V3.42159C15.918 3.55091 15.9994 3.66821 16.1255 3.72028L16.1453 3.72849C16.2703 3.78036 16.4112 3.75519 16.5026 3.66364L16.8505 3.31593C17.4038 2.76241 18.1395 2.45781 18.922 2.45781C19.7044 2.45781 20.4403 2.76241 20.9936 3.31593L21.6841 4.00639C22.8264 5.1487 22.8264 7.00741 21.6841 8.14953L21.3364 8.49743C21.2448 8.58879 21.2196 8.72974 21.2723 8.85658L21.2795 8.87413C21.3318 9.0004 21.4491 9.08203 21.5784 9.08203H22.0703C23.6858 9.08203 25 10.3962 25 12.0117ZM12.499 18.8477C13.0384 18.8477 13.4756 18.4105 13.4756 17.8711V17.3056C14.819 17.1179 15.8203 16.013 15.8203 14.6362V14.1724C15.8203 12.6566 14.5857 11.4235 13.068 11.4235H12.1733C11.7355 11.4235 11.3796 11.0611 11.3796 10.6157V10.4837C11.3796 10.0466 11.7207 9.7168 12.1733 9.7168H13.0194C13.2681 9.7168 13.5254 9.88331 13.5254 10.162C13.5254 10.7012 13.9626 11.1385 14.502 11.1385C15.0414 11.1385 15.4785 10.7012 15.4785 10.162C15.4785 8.99162 14.6143 8.01487 13.4756 7.80563V7.17773C13.4756 6.63834 13.0384 6.20117 12.499 6.20117C11.9596 6.20117 11.5225 6.63834 11.5225 7.17773V7.8392C11.0392 7.95345 10.5965 8.19435 10.2373 8.54568C9.71432 9.05743 9.4265 9.7456 9.4265 10.4837V10.6157C9.4265 12.1382 10.6586 13.3766 12.1733 13.3766H13.068C13.5086 13.3766 13.8672 13.7337 13.8672 14.1724V14.6362C13.8672 15.0606 13.5237 15.3809 13.068 15.3809H11.6138C11.3384 15.3809 11.1309 15.1838 11.1309 14.9223C11.1309 14.3831 10.6937 13.9458 10.1543 13.9458C9.61494 13.9458 9.17778 14.3831 9.17778 14.9223C9.17778 15.5766 9.43413 16.1869 9.89952 16.6414C10.3355 17.067 10.9089 17.3098 11.5225 17.3319V17.8711C11.5225 18.4105 11.9596 18.8477 12.499 18.8477Z" fill="white"/>
</g>
<defs>
<clipPath id="clip0">
<rect width="25" height="25" fill="white"/>
</clipPath>
</defs>
</svg>
