<svg width="20" height="20" viewBox="0 0 20 20" fill="none" xmlns="http://www.w3.org/2000/svg">
<path d="M17.0711 2.92891C15.1823 1.0402 12.6711 0 10 0C7.32891 0 4.8177 1.0402 2.92891 2.92891C1.0402 4.8177 0 7.32891 0 10C0 12.6711 1.0402 15.1823 2.92891 17.0711C4.8177 18.9598 7.32891 20 10 20C11.8286 20 13.6179 19.5016 15.1743 18.5589C15.5433 18.3353 15.6613 17.8549 15.4377 17.4859C15.2141 17.1168 14.7338 16.9988 14.3647 17.2224C13.0525 18.0173 11.5432 18.4375 10 18.4375C5.34754 18.4375 1.5625 14.6525 1.5625 10C1.5625 5.34754 5.34754 1.5625 10 1.5625C14.6525 1.5625 18.4375 5.34754 18.4375 10C18.4375 11.6636 17.9428 13.283 17.0068 14.683C16.767 15.0416 16.8634 15.5268 17.222 15.7666C17.5807 16.0065 18.0659 15.9101 18.3057 15.5514C19.4141 13.8935 20 11.9738 20 10C20 7.32891 18.9598 4.8177 17.0711 2.92891Z" fill="#151515"/>
<path d="M12.9297 11.4453C12.4982 11.4453 12.1484 11.7951 12.1484 12.2266C12.1484 13.4112 11.1846 14.375 10 14.375C8.81535 14.375 7.85156 13.4112 7.85156 12.2266C7.85156 11.7951 7.5018 11.4453 7.07031 11.4453C6.63883 11.4453 6.28906 11.7951 6.28906 12.2266C6.28906 14.2728 7.95379 15.9375 10 15.9375C12.0462 15.9375 13.7109 14.2728 13.7109 12.2266C13.7109 11.7951 13.3612 11.4453 12.9297 11.4453Z" fill="#151515"/>
<path d="M13.4766 5.89844C12.3996 5.89844 11.5234 6.77461 11.5234 7.85156C11.5234 8.28305 11.8732 8.63281 12.3047 8.63281C12.7362 8.63281 13.0859 8.28305 13.0859 7.85156C13.0859 7.63617 13.2612 7.46094 13.4766 7.46094C13.692 7.46094 13.8672 7.63617 13.8672 7.85156C13.8672 8.28305 14.217 8.63281 14.6484 8.63281C15.0799 8.63281 15.4297 8.28305 15.4297 7.85156C15.4297 6.77461 14.5535 5.89844 13.4766 5.89844Z" fill="#151515"/>
<path d="M6.5625 5.89844C5.48555 5.89844 4.60938 6.77461 4.60938 7.85156C4.60938 8.28305 4.95914 8.63281 5.39062 8.63281C5.82211 8.63281 6.17188 8.28305 6.17188 7.85156C6.17188 7.63617 6.34711 7.46094 6.5625 7.46094C6.77789 7.46094 6.95312 7.63617 6.95312 7.85156C6.95312 8.28305 7.30289 8.63281 7.73438 8.63281C8.16586 8.63281 8.51562 8.28305 8.51562 7.85156C8.51562 6.77461 7.63945 5.89844 6.5625 5.89844Z" fill="#151515"/>
</svg>
