<svg width="18" height="18" viewBox="0 0 18 18" fill="none" xmlns="http://www.w3.org/2000/svg">
<path fill-rule="evenodd" clip-rule="evenodd" d="M9 18C13.9706 18 18 13.9706 18 9C18 4.02944 13.9706 0 9 0C4.02944 0 0 4.02944 0 9C0 13.9706 4.02944 18 9 18ZM4.22167 11.832C4.79128 12.4336 5.61688 12.7344 6.69847 12.7344C7.20408 12.7344 7.64888 12.6832 8.03287 12.5808C8.41688 12.4784 8.71448 12.3632 8.92568 12.2352L8.51288 11.0352C8.42968 11.0736 8.33688 11.1152 8.23447 11.16C8.13207 11.2048 8.01368 11.2464 7.87927 11.2848C7.74487 11.3168 7.59128 11.3456 7.41848 11.3712C7.24567 11.3968 7.05048 11.4096 6.83287 11.4096C6.48727 11.4096 6.19288 11.3552 5.94968 11.2464C5.70648 11.1312 5.50808 10.9776 5.35447 10.7856C5.20728 10.5936 5.09847 10.3664 5.02808 10.104C4.96407 9.8352 4.93207 9.5472 4.93207 9.24C4.93207 8.856 4.98328 8.5296 5.08568 8.2608C5.18807 7.992 5.32247 7.7744 5.48887 7.608C5.66168 7.4352 5.85687 7.3104 6.07448 7.2336C6.29847 7.1568 6.52568 7.1184 6.75607 7.1184C7.10167 7.1184 7.40887 7.1568 7.67767 7.2336C7.95287 7.3104 8.19288 7.4032 8.39767 7.512L8.82968 6.3024C8.77847 6.2704 8.69528 6.2256 8.58008 6.168C8.46487 6.1104 8.32087 6.056 8.14808 6.0048C7.97527 5.9472 7.77368 5.8992 7.54327 5.8608C7.31287 5.816 7.05687 5.7936 6.77527 5.7936C6.28887 5.7936 5.83768 5.8704 5.42167 6.024C5.00568 6.1776 4.64727 6.4048 4.34648 6.7056C4.04568 7 3.80887 7.3648 3.63607 7.8C3.46328 8.2288 3.37687 8.7184 3.37687 9.2688C3.37687 10.376 3.65847 11.2304 4.22167 11.832ZM10.2029 11.832C10.7725 12.4336 11.5981 12.7344 12.6797 12.7344C13.1853 12.7344 13.6301 12.6832 14.0141 12.5808C14.3981 12.4784 14.6957 12.3632 14.9069 12.2352L14.4941 11.0352C14.4109 11.0736 14.3181 11.1152 14.2157 11.16C14.1133 11.2048 13.9949 11.2464 13.8605 11.2848C13.7261 11.3168 13.5725 11.3456 13.3997 11.3712C13.2269 11.3968 13.0317 11.4096 12.8141 11.4096C12.4685 11.4096 12.1741 11.3552 11.9309 11.2464C11.6877 11.1312 11.4893 10.9776 11.3357 10.7856C11.1885 10.5936 11.0797 10.3664 11.0093 10.104C10.9453 9.8352 10.9133 9.5472 10.9133 9.24C10.9133 8.856 10.9645 8.5296 11.0669 8.2608C11.1693 7.992 11.3037 7.7744 11.4701 7.608C11.6429 7.4352 11.8381 7.3104 12.0557 7.2336C12.2797 7.1568 12.5069 7.1184 12.7373 7.1184C13.0829 7.1184 13.3901 7.1568 13.6589 7.2336C13.9341 7.3104 14.1741 7.4032 14.3789 7.512L14.8109 6.3024C14.7597 6.2704 14.6765 6.2256 14.5613 6.168C14.4461 6.1104 14.3021 6.056 14.1293 6.0048C13.9565 5.9472 13.7549 5.8992 13.5245 5.8608C13.2941 5.816 13.0381 5.7936 12.7565 5.7936C12.2701 5.7936 11.8189 5.8704 11.4029 6.024C10.9869 6.1776 10.6285 6.4048 10.3277 6.7056C10.0269 7 9.79012 7.3648 9.61733 7.8C9.44453 8.2288 9.35812 8.7184 9.35812 9.2688C9.35812 10.376 9.63973 11.2304 10.2029 11.832Z" fill="#FFDF29"/>
</svg>
