<svg height="512pt" viewBox="0 -135 512.00051 512" width="512pt" xmlns="http://www.w3.org/2000/svg"><path d="m96.558594 140.988281c-22.054688 0-39.996094-17.941406-39.996094-39.996093 0-22.054688 17.941406-39.996094 39.996094-39.996094 22.054687 0 40 17.941406 40 39.996094 0 22.054687-17.945313 39.996093-40 39.996093zm0-59.996093c-11.027344 0-19.996094 8.972656-19.996094 20 0 11.027343 8.96875 19.996093 19.996094 19.996093s20-8.96875 20-19.996093c0-11.027344-8.972656-20-20-20zm0 0"/><path d="m325.105469 116.992188c-1.027344 0-2.070313-.160157-3.101563-.496094l-76.003906-24.785156c-5.25-1.714844-8.117188-7.355469-6.40625-12.609376 1.710938-5.25 7.355469-8.117187 12.605469-6.402343l76.003906 24.785156c5.25 1.710937 8.117187 7.355469 6.40625 12.605469-1.375 4.222656-5.292969 6.902344-9.503906 6.902344zm0 0"/><path d="m211.117188 79.808594c-5.519532 0-10.003907-4.476563-10.003907-10 0-5.519532 4.472657-9.996094 9.996094-9.996094h.007813c5.523437 0 10 4.476562 10 9.996094 0 5.523437-4.476563 10-10 10zm0 0"/><path d="m174.988281 66.398438c-5.523437 0-10.003906-4.476563-10.003906-10 0-5.519532 4.472656-10 9.992187-10h.011719c5.519531 0 9.996094 4.480468 9.996094 10 0 5.523437-4.472656 10-9.996094 10zm0 0"/><path d="m511.992188 171.304688c-.273438-52.433594-43.507813-95.011719-96.605469-95.011719h-22.398438l-233.152343-75.804688c-3.578126-1.160156-7.507813-.21875-10.167969 2.449219-18.660157 18.730469-39.617188 24.597656-62.285157 17.441406-17.898437-5.660156-30.460937-17.480468-30.558593-17.582031-3.878907-3.726563-10.011719-3.726563-13.878907 0-49.246093 47.46875-42.929687 161.300781-42.417968 169.398437v29.710938c0 22.097656 17.929687 40.074219 39.96875 40.074219h401.570312c18.6875 0 36.257813-7.296875 49.476563-20.558594 13.066406-13.136719 20.316406-30.546875 20.449219-49.085937.007812-.167969.007812-.347657.007812-.519532 0-.167968 0-.339844-.007812-.511718zm-461.109376-147.585938c6.609376 4.859375 16.96875 11.335938 29.71875 15.476562 20.039063 6.519532 49.546876 8.398438 78.714844-17.847656l222.09375 72.203125v68.265625h-361.265625c-.585937-26.136718.59375-100.582031 30.738281-138.097656zm426.480469 183.585938c-9.429687 9.46875-21.957031 14.679687-35.296875 14.679687h-401.570312c-11.011719 0-19.96875-9.011719-19.96875-20.078125v-20.089844h470.484375c-1.917969 9.597656-6.597657 18.417969-13.648438 25.488282zm-75.953125-45.488282v-65.523437h13.976563c38.808593 0 70.964843 28.585937 75.945312 65.523437zm0 0"/></svg>