<?xml version="1.0" encoding="utf-8"?>
<!-- Generator: Adobe Illustrator 22.1.0, SVG Export Plug-In . SVG Version: 6.00 Build 0)  -->
<svg version="1.1" id="Capa_1" xmlns="http://www.w3.org/2000/svg" xmlns:xlink="http://www.w3.org/1999/xlink" x="0px" y="0px"
	 viewBox="0 0 512 512" style="enable-background:new 0 0 512 512;" xml:space="preserve">
<style type="text/css">
	.st0{fill:#FFFFFF;}
</style>
<g>
	<g>
		<path class="st0" d="M409.6,494.5L384,8.1c-0.2-4.5-4-8.1-8.5-8.1H136.5c-4.5,0-8.3,3.6-8.5,8.1l-25.6,486.4
			c-0.2,4.5,3.1,8.5,7.7,8.9l85.3,8.5c4.5,0.4,8.6-2.7,9.3-7.1L256,189.6l51.3,315.2c0.7,4.2,4.3,7.2,8.4,7.2c0.3,0,0.6,0,0.9,0
			l85.3-8.5C406.4,503,409.8,499,409.6,494.5z M322.9,494.2l-58.4-359c-0.7-4.1-4.2-7.2-8.4-7.2s-7.7,3-8.4,7.2l-58.4,359l-69.2-6.9
			l24.7-470.2h222.7l24.7,470.2L322.9,494.2z"/>
	</g>
</g>
<g>
	<g>
		<rect x="136.5" y="34.1" class="st0" width="238.9" height="17.1"/>
	</g>
</g>
<g>
	<g>
		<path class="st0" d="M247.5,8.5v111.9c-10.8-9.9-17.1-23.9-17.1-39.1V8.5h-17.1v72.8c0,26.8,14.9,50.9,38.9,62.8
			c1.2,0.6,2.5,0.9,3.8,0.9c1.6,0,3.1-0.4,4.5-1.3c2.5-1.6,4.1-4.3,4.1-7.3V8.5C264.5,8.5,247.5,8.5,247.5,8.5z"/>
	</g>
</g>
<g>
	<g>
		<path class="st0" d="M170.8,41l-1,5.2c-4.1,20.5-17,37.8-35.4,47.7H128v17.1h8.5c1.3,0,2.6-0.3,3.8-0.9
			c24.1-12.1,40.9-34.1,46.2-60.5l1-5.2L170.8,41z"/>
	</g>
</g>
<g>
	<g>
		<path class="st0" d="M377.6,93.9c-18.4-9.9-31.2-27.1-35.4-47.6l-1-5.2l-16.8,3.3l1,5.2c5.3,26.4,22.1,48.4,46.2,60.5
			c1.2,0.6,2.5,0.9,3.8,0.9h8.5V93.9H377.6z"/>
	</g>
</g>
</svg>
