<svg width="58" height="70" viewBox="0 0 58 70" fill="none" xmlns="http://www.w3.org/2000/svg">
<path d="M1.37128 32.1403C1.88207 31.2847 2.74009 30.813 3.80433 30.813C5.77991 30.8201 8.15725 31.6035 10.0084 32.8561C11.7162 34.0116 14.1919 36.1531 16.2812 39.8045C16.6735 40.4895 17.317 40.954 18.0056 41.0642C18.0079 40.9054 18.0067 40.7241 18.0067 40.5534C18.0067 40.1861 18.0056 39.7499 18.021 39.2688V13.0363C18.021 10.4219 20.1471 8.2958 22.7614 8.2958C25.3758 8.2958 27.5019 10.4219 27.5019 13.0363V31.4055C27.5019 31.7315 27.7685 31.9981 28.0944 31.9981C28.4203 31.9981 28.687 31.7315 28.687 31.4055V4.74046C28.687 2.1261 30.8131 0 33.4275 0C36.0418 0 38.1679 2.1261 38.1679 4.74046V31.4055C38.1679 31.7315 38.4346 31.9981 38.7605 31.9981C39.0864 31.9981 39.353 31.7315 39.353 31.4055V10.0735C39.353 7.7862 41.2137 5.92557 43.5009 5.92557C45.7882 5.92557 47.6488 7.7862 47.6488 10.0735V33.7758C47.6488 34.1017 47.9155 34.3683 48.2414 34.3683C48.5673 34.3683 48.8339 34.1017 48.8339 33.7758V18.9618C48.8339 16.6746 50.6946 14.8139 52.9937 14.8139C55.281 14.8139 57.1416 16.6746 57.1416 18.9618L57.1392 51.1934C55.992 67.7649 45.8273 70 36.0347 70C27.9214 70 20.6341 65.9753 17.0409 59.5425C16.5787 58.7959 15.3284 56.831 13.8458 54.5011C10.1388 48.6786 7.03376 43.7864 6.57512 42.9166C5.55237 40.9801 4.41111 39.4667 3.27577 38.5399C2.24827 37.7009 1.62016 36.6307 1.10938 35.6909C0.846279 35.2027 0.616367 33.4072 1.37128 32.1403Z" fill="white" fill-opacity="0.2"/>
</svg>
