<?xml version="1.0" encoding="iso-8859-1"?>
<!-- Generator: Adobe Illustrator 18.0.0, SVG Export Plug-In . SVG Version: 6.00 Build 0)  -->
<!DOCTYPE svg PUBLIC "-//W3C//DTD SVG 1.1//EN" "http://www.w3.org/Graphics/SVG/1.1/DTD/svg11.dtd">
<svg version="1.1" id="Capa_1" xmlns="http://www.w3.org/2000/svg" xmlns:xlink="http://www.w3.org/1999/xlink" x="0px" y="0px"
	 viewBox="0 0 478 478" style="enable-background:new 0 0 478 478;" xml:space="preserve">
<g>
	<path d="M201.699,187.819c-6.088-12.918-17.692-21.53-31.838-23.627c-17.092-2.535-32.04-4.254-44.429-5.111
		c-2.74-0.174-5.143,1.889-5.333,4.644s1.889,5.142,4.644,5.333c12.13,0.838,26.816,2.53,43.651,5.026
		c10.779,1.598,19.621,8.158,24.258,17.998c1.522,3.232,2.499,6.61,2.902,10.04c0.299,2.544,2.459,4.417,4.96,4.417
		c0.194,0,0.392-0.011,0.59-0.035c2.742-0.322,4.704-2.807,4.382-5.55C204.957,196.449,203.683,192.03,201.699,187.819z"/>
	<path d="M389.463,159.103c-6.563-0.327-12.168-0.542-16.657-0.638c-1.083-0.023-2.196-0.035-3.329-0.035
		c-8.246,0-18.339,0.598-29.998,1.778c-2.747,0.278-4.749,2.731-4.471,5.478c0.278,2.748,2.712,4.746,5.479,4.471
		c11.325-1.146,21.079-1.728,28.99-1.728c1.059,0,2.098,0.01,3.112,0.033c4.397,0.095,9.907,0.306,16.378,0.627
		c12.224,0.608,23.692,5.743,32.292,14.457c8.601,8.716,13.585,20.254,14.034,32.489c0.1,2.697,2.317,4.816,4.994,4.816
		c0.062,0,0.124-0.001,0.187-0.003c2.76-0.102,4.914-2.421,4.813-5.18c-0.543-14.742-6.548-28.644-16.911-39.145
		C418.014,166.023,404.194,159.836,389.463,159.103z"/>
	<path d="M473,211.36h-12.963c-1.498-17.096-8.864-33.088-20.986-45.372c-13.007-13.181-30.354-20.947-48.844-21.866
		c-6.704-0.333-12.45-0.553-17.079-0.653c-15.932-0.339-38.533,1.637-67.19,5.885c-3.932,0.583-129.945,0.583-133.877,0
		c-28.657-4.249-51.269-6.228-67.189-5.885c-4.629,0.1-10.376,0.32-17.081,0.653c-18.49,0.919-35.837,8.685-48.844,21.866
		c-12.122,12.283-19.486,28.275-20.985,45.372H5c-2.762,0-5,2.239-5,5s2.238,5,5,5h12.493l-0.837,22.734
		c-0.771,20.975,6.565,40.916,20.655,56.386l-18.163,21.668c-0.939,1.121-1.341,2.597-1.099,4.04
		c0.242,1.442,1.104,2.707,2.358,3.459c5.517,3.31,11.607,4.922,17.644,4.922c9.06,0,17.994-3.634,24.662-10.613l3.302-3.452
		c8.719,3.488,18.072,5.384,27.726,5.494c0.313,0.004,0.621,0.005,0.935,0.005c52.002-0.003,92.753-49.375,117.832-90.936
		c6.155-10.2,8.868-21.848,8.06-33.359l0.668-8.004c0.766-9.165,8.568-16.343,17.765-16.343s16.998,7.179,17.764,16.343l0.668,8.005
		c-0.808,11.511,1.906,23.159,8.061,33.359c25.08,41.564,65.825,90.938,117.832,90.936c0.31,0,0.623-0.001,0.934-0.005
		c9.654-0.11,19.008-2.006,27.726-5.494l3.299,3.45c6.67,6.981,15.604,10.615,24.665,10.615c6.035,0,12.127-1.612,17.643-4.922
		c1.255-0.753,2.116-2.017,2.358-3.459c0.242-1.443-0.159-2.919-1.099-4.04l-18.163-21.668
		c14.09-15.471,21.426-35.411,20.655-56.386l-0.837-22.734H473c2.762,0,5-2.239,5-5S475.762,211.36,473,211.36z M55.484,317.046
		c-6.442,6.743-15.868,9.072-24.436,6.47l13.448-16.042c3.773,3.227,7.803,6.056,12.04,8.472L55.484,317.046z M203.944,229.901
		c-23.745,39.352-61.925,86.106-109.273,86.102c-0.27,0-0.546-0.001-0.817-0.004c-18.256-0.208-35.324-7.683-48.062-21.048
		c-13.038-13.683-19.837-31.613-19.142-50.488l1.066-28.977c0.588-15.996,7.104-31.08,18.348-42.473
		c11.245-11.395,26.239-18.108,42.223-18.903c6.612-0.329,12.265-0.545,16.801-0.643c1.121-0.024,2.276-0.037,3.469-0.037
		c15.144,0,35.987,1.953,62.038,5.815c15.597,2.313,28.915,12.197,35.627,26.443C212.922,199.906,212.07,216.434,203.944,229.901z
		 M239,167.36c-10.049,0-19.026,5.495-23.921,13.696c-3.515-7.322-8.47-13.682-14.469-18.776h76.779
		c-6.004,5.098-10.962,11.463-14.477,18.792C258.018,172.866,249.051,167.36,239,167.36z M422.513,317.044l-1.05-1.098
		c4.237-2.416,8.267-5.245,12.04-8.472l13.447,16.042C438.384,326.117,428.956,323.788,422.513,317.044z M432.208,294.95
		c-12.737,13.365-29.806,20.84-48.063,21.048c-0.274,0.003-0.545,0.004-0.817,0.004c-47.344-0.002-85.528-46.752-109.272-86.103
		c-8.126-13.466-8.978-29.994-2.278-44.211c6.712-14.246,20.031-24.131,35.628-26.443c26.052-3.862,46.894-5.815,62.038-5.815
		c1.191,0,2.349,0.012,3.47,0.037c4.536,0.098,10.188,0.314,16.799,0.643c15.983,0.795,30.978,7.508,42.223,18.903
		c11.243,11.394,17.76,26.478,18.349,42.473l1.066,28.977C452.045,263.337,445.246,281.267,432.208,294.95z"/>
</g>
<g>
</g>
<g>
</g>
<g>
</g>
<g>
</g>
<g>
</g>
<g>
</g>
<g>
</g>
<g>
</g>
<g>
</g>
<g>
</g>
<g>
</g>
<g>
</g>
<g>
</g>
<g>
</g>
<g>
</g>
</svg>
