<?xml version="1.0" encoding="utf-8"?>
<!-- Generator: Adobe Illustrator 22.1.0, SVG Export Plug-In . SVG Version: 6.00 Build 0)  -->
<svg version="1.1" id="Layer_1" xmlns="http://www.w3.org/2000/svg" xmlns:xlink="http://www.w3.org/1999/xlink" x="0px" y="0px"
	 viewBox="0 0 512 512" style="enable-background:new 0 0 512 512;" xml:space="preserve">
<style type="text/css">
	.st0{fill:#FFFFFF;}
</style>
<g>
	<g>
		<path class="st0" d="M362.7,42.7h-53.3c0,29.4-23.9,53.3-53.3,53.3s-53.3-23.9-53.3-53.3h-53.3L0,128l42.7,117.3l64-21.3v245.3
			h298.7V224l64,21.3L512,128L362.7,42.7z M456.4,218.5l-44.3-14.8l-28.1-9.4V224v224H128V224v-29.6l-28.1,9.4l-44.3,14.8
			l-29.4-80.9L155,64h29.4c9.2,30.8,37.8,53.3,71.6,53.3c33.8,0,62.4-22.5,71.6-53.3H357l128.8,73.6L456.4,218.5z"/>
	</g>
</g>
</svg>
