<?xml version="1.0" standalone="no"?>
<!DOCTYPE svg PUBLIC "-//W3C//DTD SVG 20010904//EN"
 "http://www.w3.org/TR/2001/REC-SVG-20010904/DTD/svg10.dtd">
<svg version="1.0" xmlns="http://www.w3.org/2000/svg"
 width="980.000000pt" height="694.000000pt" viewBox="0 0 980.000000 694.000000"
 preserveAspectRatio="xMidYMid meet">

<g transform="translate(0.000000,694.000000) scale(0.100000,-0.100000)"
fill="#000000" stroke="none">
<path d="M3517 6905 c-110 -14 -269 -36 -355 -50 -940 -154 -1792 -516 -2245
-954 -494 -477 -769 -1028 -873 -1751 -82 -577 -50 -1297 92 -2025 59 -303 93
-408 144 -447 47 -34 118 -39 586 -45 l462 -5 184 -177 c309 -296 472 -439
698 -610 551 -419 1102 -690 1625 -798 124 -26 144 -27 425 -27 341 -1 449 11
693 73 290 75 464 141 767 292 337 169 646 358 1337 821 205 138 377 248 382
246 5 -1 85 -74 178 -160 420 -390 729 -626 1007 -768 179 -91 228 -103 394
-98 133 4 139 5 215 41 237 110 399 311 502 620 53 158 68 266 62 437 -10 260
-85 480 -224 655 -57 72 -369 292 -1481 1044 -304 206 -557 381 -561 390 -5 9
-86 268 -181 576 -380 1236 -521 1669 -574 1763 -145 257 -373 479 -617 602
-140 71 -539 204 -814 271 -371 90 -484 101 -1110 105 -500 3 -528 2 -718 -21z
m943 -385 c118 -6 262 -15 320 -20 399 -39 1062 -229 1279 -367 72 -46 256
-230 310 -310 23 -35 57 -103 76 -152 88 -233 631 -1980 618 -1991 -4 -4 -107
-19 -228 -34 -1489 -183 -3238 -619 -4657 -1160 -80 -31 -158 -56 -171 -56
-23 0 -28 8 -57 103 -217 698 -336 1425 -316 1927 37 886 367 1472 1018 1806
239 122 539 191 1038 238 91 9 179 18 195 19 66 8 372 6 575 -3z m-2864 -667
c-137 -213 -282 -619 -330 -923 -39 -245 -49 -775 -21 -1048 45 -434 143 -903
295 -1418 33 -111 60 -211 60 -222 0 -22 -42 -55 -186 -145 l-90 -57 -374 2
-375 3 -17 75 c-45 192 -105 613 -129 905 -17 194 -17 683 0 850 62 646 224
1075 560 1492 88 109 274 294 366 364 58 45 273 189 281 189 2 0 -16 -30 -40
-67z m6082 -2849 c679 -462 843 -577 839 -588 -2 -6 -33 -19 -68 -29 -274 -77
-414 -132 -649 -254 -211 -109 -493 -279 -840 -506 -872 -571 -1003 -654
-1238 -781 -551 -298 -980 -426 -1434 -426 -527 0 -1085 214 -1697 653 -321
231 -853 700 -838 740 7 19 314 172 496 247 1210 501 3642 1109 4771 1193 25
2 98 4 163 5 l117 2 378 -256z m1427 -989 c90 -25 154 -89 210 -210 72 -154
90 -373 46 -540 -55 -207 -190 -392 -314 -431 -50 -16 -64 -16 -105 -5 -198
52 -648 383 -1065 782 -60 57 -61 59 -42 75 28 22 238 123 396 189 319 135
682 193 874 140z"/>
</g>
</svg>
