<svg width="40" height="40" viewBox="0 0 40 40" fill="none" xmlns="http://www.w3.org/2000/svg">
<path d="M22.1252 18.0481H19.5864V20.4529H22.1252C22.7889 20.4529 23.3276 19.9142 23.3276 19.2505C23.3276 18.5861 22.7889 18.0481 22.1252 18.0481Z" fill="#369BE3"/>
<path d="M34.4298 20.1453L32.3501 18.9444L34.4298 17.7438C35.0048 17.4118 35.2019 16.6763 34.8699 16.1014C34.5379 15.5261 33.8024 15.3293 33.2274 15.6613L31.1477 16.8619V14.3506C31.1477 13.6865 30.6093 13.1482 29.9453 13.1482C29.2812 13.1482 28.7429 13.6865 28.7429 14.3506V16.8619L26.6631 15.6613C26.0878 15.329 25.3524 15.5261 25.0206 16.1014C24.6886 16.6763 24.8858 17.4118 25.4607 17.7438L27.5405 18.9444L25.4607 20.1453C24.8858 20.4773 24.6886 21.2128 25.0206 21.7877C25.353 22.363 26.0885 22.5598 26.6631 22.2278L28.7429 21.0272V23.5385C28.7429 24.2026 29.2812 24.7409 29.9453 24.7409C30.6093 24.7409 31.1477 24.2026 31.1477 23.5385V21.0272L33.2274 22.2278C33.8021 22.5598 34.5379 22.363 34.8699 21.7877C35.2019 21.2128 35.0048 20.4773 34.4298 20.1453Z" fill="#369BE3"/>
<path d="M14.4668 14.9554H17.1819V18.0481H14.4668V14.9554Z" fill="#369BE3"/>
<path d="M17.738 24.6164C17.3917 24.3961 17.1817 24.0137 17.1817 23.6023V20.4529H14.4665V26.3351C16.8988 26.8842 18.7201 29.0613 18.7201 31.6568C18.7201 34.6652 16.2726 37.1127 13.2642 37.1127C10.2566 37.1127 7.80853 34.6652 7.80853 31.6568C7.80853 29.0613 9.63073 26.8842 12.0618 26.3351V4.12506C12.0618 3.46039 12.6004 2.92267 13.2642 2.92267C13.9288 2.92267 14.4665 3.46039 14.4665 4.12506V12.5507H17.1817V3.84033C17.1817 1.72272 15.459 0 13.3414 0H13.1882C11.0702 0 9.34753 1.72272 9.34753 3.84033V23.6023C9.34753 24.0137 9.13757 24.3961 8.79119 24.6164C6.32629 26.1868 4.88036 28.8651 4.92278 31.7819C4.98779 36.25 8.67584 39.9365 13.1448 39.9991C17.8039 40.0638 21.6074 36.3168 21.6074 31.6568C21.6074 28.7921 20.1611 26.1603 17.738 24.6164Z" fill="#369BE3"/>
<path d="M10.2134 31.6568C10.2134 33.3395 11.5827 34.7079 13.2642 34.7079C14.947 34.7079 16.3154 33.3395 16.3154 31.6568C16.3154 29.9753 14.947 28.606 13.2642 28.606C11.5827 28.606 10.2134 29.9753 10.2134 31.6568Z" fill="#369BE3"/>
</svg>
