<svg width="17" height="16" viewBox="0 0 17 16" fill="none" xmlns="http://www.w3.org/2000/svg">
<g filter="url(#filter0_d)">
<path d="M16.5838 1.11622C16.3064 0.83882 15.9729 0.700134 15.5834 0.700134H1.41666C1.02708 0.700134 0.693675 0.838789 0.416087 1.11622C0.138654 1.39369 0 1.72709 0 2.1167V3H17V2.1167C17 1.72709 16.8612 1.39369 16.5838 1.11622Z" fill="white"/>
<path fill-rule="evenodd" clip-rule="evenodd" d="M17 5H0V12.8832C0 13.2729 0.138654 13.6063 0.416087 13.8838C0.693675 14.1612 1.02708 14.2999 1.41666 14.2999H15.5834C15.9729 14.2999 16.3063 14.1612 16.5838 13.8838C16.8612 13.6064 17 13.2729 17 12.8832V5ZM2.26672 10.8999H4.53335V12.0333H2.26672V10.8999ZM9.06671 10.8999H5.66675V12.0333H9.06671V10.8999Z" fill="white"/>
</g>
<defs>
<filter id="filter0_d" x="-4" y="0.700134" width="25" height="21.5998" filterUnits="userSpaceOnUse" color-interpolation-filters="sRGB">
<feFlood flood-opacity="0" result="BackgroundImageFix"/>
<feColorMatrix in="SourceAlpha" type="matrix" values="0 0 0 0 0 0 0 0 0 0 0 0 0 0 0 0 0 0 127 0"/>
<feOffset dy="4"/>
<feGaussianBlur stdDeviation="2"/>
<feColorMatrix type="matrix" values="0 0 0 0 0 0 0 0 0 0 0 0 0 0 0 0 0 0 0.25 0"/>
<feBlend mode="normal" in2="BackgroundImageFix" result="effect1_dropShadow"/>
<feBlend mode="normal" in="SourceGraphic" in2="effect1_dropShadow" result="shape"/>
</filter>
</defs>
</svg>
