<svg width="15" height="15" viewBox="0 0 15 15" fill="none" xmlns="http://www.w3.org/2000/svg">
<g clip-path="url(#clip0)">
<path d="M0.141991 14.0995L0.00705882 14.6656C0.00271493 14.6837 0.00162896 14.7022 0.00108597 14.7204C0.00108597 14.7242 0 14.7275 0 14.731C0.000271493 14.7619 0.00705882 14.7921 0.0176471 14.8211C0.0200905 14.8279 0.0228054 14.8339 0.0257919 14.8404C0.039095 14.8694 0.0556561 14.8974 0.0790045 14.9208C0.104796 14.9466 0.135204 14.9664 0.168054 14.9799C0.200905 14.9935 0.235928 15.0003 0.27095 15.0003C0.291855 15.0003 0.313032 14.9979 0.333665 14.993L0.9 14.858L0.141991 14.0995Z" fill="#676767"/>
<path d="M14.2854 0.714299C13.3325 -0.2381 11.7825 -0.2381 10.8296 0.714299L1.03899 10.5049C1.03438 10.5095 1.03166 10.5152 1.02759 10.5201C1.02189 10.5266 1.017 10.5337 1.01184 10.5407C0.997453 10.5608 0.986321 10.5823 0.977905 10.6056C0.975462 10.6127 0.971932 10.6189 0.970032 10.626C0.969217 10.6287 0.967588 10.6314 0.966774 10.6341L0.289398 13.4794L1.52035 14.71L4.3656 14.0327C4.37293 14.031 4.37944 14.027 4.3865 14.0245C4.39573 14.0215 4.40442 14.018 4.41338 14.0139C4.43293 14.005 4.45112 13.9938 4.46795 13.9805C4.47447 13.9754 4.48125 13.9716 4.4875 13.9659C4.48967 13.9637 4.49238 13.9626 4.49456 13.9605L14.2854 4.16959C15.2381 3.21719 15.2381 1.66697 14.2854 0.714299ZM4.658 13.0295L4.7541 12.1653L10.8296 6.08959C10.9357 5.98344 10.9357 5.81186 10.8296 5.7057C10.7234 5.59955 10.5518 5.59955 10.4457 5.7057L4.37021 11.7814L3.07438 11.9253L3.21827 10.6295L9.29429 4.55403C9.40044 4.44787 9.40044 4.27629 9.29429 4.17014C9.18813 4.06398 9.01655 4.06398 8.91039 4.17014L2.83438 10.2456L1.97021 10.3417L9.48596 2.82597L12.1737 5.51376L4.658 13.0295ZM12.5576 5.12986L9.86985 2.44208L10.2537 2.05819L12.9415 4.74597L12.5576 5.12986ZM13.3254 4.36208L10.6376 1.6743L11.0218 1.29014L13.7096 3.97792L13.3254 4.36208Z" fill="#676767"/>
</g>
<defs>
<clipPath id="clip0">
<rect width="15" height="15" fill="white"/>
</clipPath>
</defs>
</svg>
