<svg width="15" height="15" viewBox="0 0 15 15" fill="none" xmlns="http://www.w3.org/2000/svg">
<g clip-path="url(#clip0)">
<path d="M12.8057 2.1941C9.88024 -0.731385 5.11987 -0.731673 2.1941 2.1941C-0.731673 5.11987 -0.731385 9.87996 2.1941 12.8057C5.11958 15.7315 9.87996 15.7315 12.8057 12.8057C15.7312 9.87996 15.7312 5.11958 12.8057 2.1941ZM10.4589 10.4589C10.2335 10.6843 9.86812 10.6843 9.64273 10.4589L7.49991 8.31606L5.25522 10.5608C5.02983 10.7861 4.66447 10.7861 4.43908 10.5608C4.21369 10.3354 4.21369 9.97 4.43908 9.7446L6.68377 7.49991L4.54095 5.3571C4.31556 5.1317 4.31556 4.76606 4.54095 4.54095C4.76634 4.31556 5.1317 4.31556 5.3571 4.54095L7.49991 6.68377L9.54057 4.64311C9.76596 4.41772 10.1313 4.41772 10.3567 4.64311C10.5821 4.86851 10.5821 5.23387 10.3567 5.45926L8.31606 7.49991L10.4589 9.64273C10.6843 9.86812 10.6843 10.2335 10.4589 10.4589Z" fill="#676767"/>
</g>
<defs>
<clipPath id="clip0">
<rect width="15" height="15" fill="white"/>
</clipPath>
</defs>
</svg>
