<svg width="34" height="35" viewBox="0 0 34 35" fill="none" xmlns="http://www.w3.org/2000/svg">
<g clip-path="url(#clip0)">
<path d="M7.13107 21.1505C4.74953 21.1505 2.8118 23.1436 2.8118 25.5932C2.8118 28.0428 4.74953 30.0359 7.13107 30.0359C9.51261 30.0359 11.4503 28.0428 11.4503 25.5932C11.4503 23.1436 9.51261 21.1505 7.13107 21.1505ZM7.13107 28.9252C5.34451 28.9252 3.89162 27.4308 3.89162 25.5932C3.89162 23.7556 5.34451 22.2612 7.13107 22.2612C8.91763 22.2612 10.3705 23.7556 10.3705 25.5932C10.3705 27.4308 8.91763 28.9252 7.13107 28.9252Z" fill="white"/>
<path d="M6.59116 16.7079V17.8185C6.59116 18.1251 6.8325 18.3739 7.13106 18.3739C7.42963 18.3739 7.67097 18.1251 7.67097 17.8185V16.7079C7.67097 16.4013 7.42963 16.1525 7.13106 16.1525C6.8325 16.1525 6.59116 16.4013 6.59116 16.7079Z" fill="white"/>
<path d="M31.1489 14.2166C29.6204 12.6445 27.5132 12.0303 25.5268 12.3607L22.7501 9.50462C22.1405 8.8782 21.1001 8.84544 20.5251 9.43742L20.0111 9.9661L19.9021 8.33953C19.9015 8.33175 19.8972 8.32564 19.8961 8.31787C20.5543 7.71866 20.6299 6.68241 20.057 5.99101L18.3056 3.87797C17.7279 3.17991 16.7031 3.0955 16.0223 3.69137C16.0002 3.71081 15.984 3.73469 15.9629 3.75524L14.2428 3.61418C14.0867 3.3554 13.8675 3.14215 13.5954 3.00165C13.2077 2.80173 12.7693 2.76896 12.3595 2.90891L9.79768 3.78411C9.07474 4.03124 8.63795 4.75595 8.69842 5.50454L7.39562 6.6813C7.36701 6.67796 7.33947 6.66908 7.31086 6.66686C6.43081 6.61466 5.64848 7.30438 5.58963 8.2218L5.41524 10.9929C5.36557 11.7904 5.87254 12.494 6.59116 12.7028V14.4865H4.87857C4.05089 14.4865 3.35171 15.2496 3.35171 16.1525V20.1915C1.7201 21.4027 0.652161 23.3702 0.652161 25.5932C0.652161 29.2679 3.55849 32.2572 7.13107 32.2572C10.7036 32.2572 13.61 29.2679 13.61 25.5932C13.61 23.3702 12.542 21.4027 10.9104 20.1915V16.1525C10.9104 15.2496 10.2113 14.4865 9.38357 14.4865H7.67098V12.6256C7.82431 12.5573 7.97009 12.4684 8.09967 12.3513C8.42577 12.0569 8.62014 11.651 8.64821 11.2078L8.82206 8.43727C8.85014 7.99466 8.7076 7.56706 8.42253 7.23163L9.17894 6.54857C9.29772 6.66797 9.43 6.77404 9.5828 6.85289C9.81226 6.97118 10.0601 7.03116 10.309 7.03116C10.4801 7.03116 10.6518 7.00284 10.8186 6.94619L13.3805 6.07098C13.9739 5.86829 14.3707 5.34183 14.463 4.74651L15.4592 4.82814C15.4268 5.25297 15.551 5.69058 15.8403 6.03988L17.5918 8.15293C17.912 8.53889 18.3677 8.73715 18.8255 8.73715C18.832 8.73715 18.8385 8.73548 18.8455 8.73548L18.9977 11.0079L17.3397 12.7133C16.7544 13.3153 16.7846 14.3638 17.405 15.0019L20.1817 17.858C19.8605 19.901 20.4576 22.0691 21.9861 23.6412C23.2495 24.9402 24.9081 25.5899 26.5673 25.5899C28.2264 25.5899 29.8855 24.9407 31.1484 23.6412C33.6752 21.0428 33.6752 16.815 31.1489 14.2166ZM12.5302 25.5932C12.5302 28.6553 10.1081 31.1466 7.13107 31.1466C4.15401 31.1466 1.73198 28.6553 1.73198 25.5932C1.73198 22.5311 4.15401 20.0399 7.13107 20.0399C7.32166 20.0399 7.51116 20.0504 7.69905 20.071C7.72821 20.0743 7.75682 20.081 7.78598 20.0849C7.94633 20.1054 8.10614 20.1298 8.26434 20.1654C8.28377 20.1698 8.30213 20.1759 8.32103 20.1804C8.48948 20.2198 8.65685 20.2659 8.82152 20.3225C8.83124 20.3259 8.84096 20.3303 8.85068 20.3337C9.02129 20.3931 9.18974 20.4614 9.35603 20.5391C11.2252 21.4132 12.5302 23.3475 12.5302 25.5932ZM9.83061 16.1525V19.4845H9.71291C8.92141 19.1291 8.04891 18.9292 7.13107 18.9292C6.3671 18.9292 5.26622 19.0692 4.43152 19.3329V16.1525C4.43152 15.8776 4.65721 15.5972 4.87857 15.5972H9.38357C9.60493 15.5972 9.83061 15.8776 9.83061 16.1525ZM7.57001 11.1362C7.56084 11.2834 7.49551 11.4183 7.38645 11.5172C7.27792 11.6154 7.14457 11.6643 6.99609 11.6549C6.69914 11.6354 6.47292 11.3705 6.49182 11.0646L6.66621 8.29399C6.68456 8.00022 6.92266 7.7742 7.2045 7.7742C7.21583 7.7742 7.22825 7.77475 7.23959 7.77531C7.38267 7.78475 7.51332 7.85139 7.60943 7.96356C7.70499 8.07574 7.75304 8.21791 7.74333 8.36507L7.57001 11.1362ZM13.3514 4.73873C13.286 4.87202 13.1759 4.97086 13.0398 5.01696L10.478 5.89217C10.343 5.93937 10.1961 5.92715 10.0666 5.86051C9.93698 5.79387 9.84033 5.68003 9.79552 5.54064C9.79552 5.54064 9.79552 5.54064 9.79552 5.54008C9.75017 5.40069 9.76151 5.2502 9.82629 5.11692C9.89162 4.98364 10.0018 4.88479 10.1378 4.8387L12.6997 3.96349C12.7548 3.94461 12.8115 3.93517 12.8681 3.93517C12.9513 3.93517 13.0344 3.95516 13.1111 3.99514C13.2347 4.05845 13.3249 4.16674 13.3719 4.29724C13.3757 4.31057 13.3794 4.32334 13.3843 4.33612C13.4226 4.46995 13.4135 4.61156 13.3514 4.73873ZM18.413 7.43211L16.6615 5.31906C16.4688 5.08637 16.4958 4.73485 16.722 4.53604C16.8235 4.44718 16.9482 4.40331 17.0719 4.40331C17.2241 4.40331 17.3764 4.4694 17.4833 4.59823L19.2347 6.71128C19.4275 6.94397 19.4005 7.2955 19.1737 7.49431C18.9486 7.69256 18.6074 7.66591 18.413 7.43211ZM20.3551 16.4657L18.1684 14.2172C17.9795 14.0228 17.9465 13.6602 18.1031 13.4991L21.288 10.2232C21.3717 10.1371 21.4894 10.1199 21.5693 10.1199C21.5817 10.1199 21.5942 10.1199 21.6044 10.121C21.7491 10.1299 21.8916 10.1932 21.9861 10.2904L24.2764 12.6467L24.1927 12.7328C23.3888 13.0571 22.6351 13.5502 21.9861 14.2172C21.4462 14.7725 20.7643 15.6727 20.3551 16.4657ZM30.3855 22.856C28.2798 25.0207 24.8547 25.0212 22.7496 22.856C20.6445 20.6907 20.6445 17.1671 22.7496 15.0019C22.8845 14.863 23.026 14.7325 23.1734 14.6104C23.1934 14.5937 23.215 14.5798 23.2349 14.5637C23.3651 14.4588 23.4984 14.3577 23.6372 14.2661C23.6523 14.2561 23.6679 14.2483 23.6825 14.2383C23.8299 14.1428 23.9816 14.0528 24.1387 13.9723C24.1479 13.9673 24.1576 13.9634 24.1668 13.959C24.3277 13.8773 24.4935 13.8035 24.6635 13.7374C25.2758 13.5008 25.9204 13.3781 26.5667 13.3781C27.9494 13.3781 29.3321 13.9195 30.3844 15.0019C32.4911 17.1671 32.4911 20.6907 30.3855 22.856Z" fill="white"/>
<path d="M29.6221 15.7877C27.9381 14.0556 25.1975 14.0556 23.5136 15.7877C21.8301 17.5197 21.8301 20.3381 23.5136 22.0702C24.3558 22.9365 25.4615 23.3691 26.5678 23.3691C27.6741 23.3691 28.7804 22.9359 29.6221 22.0702C31.3055 20.3386 31.3055 17.5203 29.6221 15.7877ZM28.8587 21.2849C27.5947 22.5844 25.5398 22.5827 24.277 21.2849C23.0141 19.9854 23.0141 17.8718 24.277 16.5729C24.9087 15.9232 25.7385 15.5988 26.5678 15.5988C27.3977 15.5988 28.227 15.9237 28.8587 16.5729C30.1215 17.8724 30.1215 19.986 28.8587 21.2849Z" fill="white"/>
<path d="M20.8415 12.2535C20.6304 12.0364 20.2892 12.0364 20.0781 12.2535C19.867 12.4706 19.867 12.8216 20.0781 13.0387L20.8415 13.824C20.9468 13.9323 21.085 13.9867 21.2232 13.9867C21.3614 13.9867 21.4996 13.9323 21.6049 13.824C21.816 13.6068 21.816 13.2559 21.6049 13.0387L20.8415 12.2535Z" fill="white"/>
</g>
<defs>
<clipPath id="clip0">
<rect width="32.3913" height="33.3168" fill="white" transform="translate(0.652161 0.881958)"/>
</clipPath>
</defs>
</svg>
