<svg width="35" height="35" viewBox="0 0 35 35" fill="none" xmlns="http://www.w3.org/2000/svg">
<g clip-path="url(#clip0)">
<path d="M25.9512 21.7344L21.6423 21.3591C21.3871 20.5755 21.2064 19.7692 21.103 18.9515C21.7934 18.2713 22.353 17.4698 22.7535 16.5875C22.9777 16.1051 23.1641 15.6058 23.3106 15.0943C24.0939 14.9021 25.6557 14.1965 25.6557 11.6309C25.7054 10.953 25.5206 10.2784 25.1319 9.7207C25.3941 8.47074 26.1205 4.13593 24.2117 1.69074C23.2885 0.549707 21.8722 -0.0768743 20.4068 0.0074886C15.2836 0.0074886 13.6201 1.11729 13.0862 1.76443C10.6242 1.87469 9.32587 3.27815 9.32587 5.83974C9.32641 7.15671 9.49647 8.46834 9.83178 9.74233C9.45722 10.2979 9.27915 10.9627 9.32587 11.6309C9.32587 14.1882 10.878 14.8975 11.664 15.0924C11.8084 15.6039 11.9929 16.1032 12.2158 16.5853C12.6168 17.4754 13.1807 18.2822 13.8788 18.9643C13.7776 19.7778 13.599 20.5795 13.3451 21.3585L9.03087 21.7344C6.01596 21.9931 3.65487 24.4375 3.50109 27.4596C3.34705 30.4815 5.44758 33.1533 8.42057 33.7169C8.81409 34.501 9.615 34.997 10.4923 34.9999H24.4893C25.3666 34.997 26.1675 34.501 26.561 33.7169C29.5335 33.153 31.6337 30.4815 31.4799 27.4599C31.3262 24.4383 28.9656 21.9939 25.9512 21.7344ZM20.9901 26.3976L19.926 27.1958L18.4373 25.3351C19.325 24.9154 20.1785 24.4268 20.9901 23.8739V26.3976ZM17.4907 27.6112L16.875 26.7884L17.4907 26.019L18.1066 26.7887L17.4907 27.6112ZM15.0553 27.1958L13.9915 26.3976V23.8739C14.8031 24.4268 15.6566 24.9154 16.5442 25.3351L15.0553 27.1958ZM13.9915 27.8558L14.8081 28.468C15.0602 28.657 15.4166 28.6119 15.6133 28.366L16.1227 27.7293L16.3171 27.9893L15.2545 33.8335H13.9915V27.8558ZM17.3614 28.7656C17.4042 28.7728 17.4474 28.7779 17.4907 28.7803C17.5342 28.7776 17.5772 28.7728 17.6201 28.7654L18.5415 33.8335H16.4399L17.3614 28.7656ZM18.6645 27.9893L18.8589 27.7295L19.3683 28.366C19.565 28.6119 19.9214 28.657 20.1735 28.468L20.9901 27.8558V33.8335H19.7271L18.6645 27.9893ZM23.6425 13.6978C23.8024 12.6902 23.8865 11.6723 23.8942 10.6522C24.0037 10.5651 24.1369 10.5128 24.2765 10.5024C24.2787 10.5037 24.4893 10.6845 24.4893 11.6312C24.4893 12.7906 24.0891 13.3897 23.6425 13.6975V13.6978ZM13.4084 2.92362C13.6473 2.94097 13.8681 2.79467 13.9447 2.56748C13.9522 2.55333 14.7438 1.17389 20.4068 1.17389C21.5115 1.09166 22.5874 1.55165 23.2909 2.40729C24.83 4.37621 24.256 8.12795 24.012 9.3659C23.9733 9.37284 23.9351 9.37925 23.8961 9.38913C23.899 8.3765 23.7375 7.37002 23.4182 6.40893V6.40546L23.4161 6.40145C23.4115 6.38837 23.4083 6.37369 23.4038 6.3606C23.3899 6.33364 23.3739 6.30748 23.3557 6.28292C23.3387 6.24767 23.3181 6.21404 23.2941 6.1828C23.2692 6.15717 23.242 6.13395 23.2124 6.11339C23.1595 6.0608 23.092 6.02582 23.0183 6.01274C22.9823 5.99993 22.9446 5.99058 22.9067 5.98551C22.8683 5.98444 22.8295 5.98738 22.7916 5.99405C22.7607 5.99379 22.7297 5.99619 22.6993 6.00099C18.0524 7.30248 14.4066 4.26061 14.3703 4.22991C14.1813 4.07026 13.9122 4.04676 13.6986 4.17144C13.4848 4.29612 13.3729 4.542 13.4191 4.78494C13.6431 6.43082 12.8245 8.04306 11.3639 8.83356C11.3218 8.85865 11.283 8.88936 11.2486 8.92433C11.1496 9.02524 11.0908 9.15873 11.0833 9.29996L11.0817 9.30636V9.3085C11.0812 9.31891 11.0756 9.32799 11.0756 9.33893C11.0756 9.34828 11.0804 9.35602 11.0809 9.36537L11.0804 9.38779C11.0324 9.37551 10.9851 9.3683 10.9378 9.36056C10.6434 8.21018 10.4939 7.02723 10.4923 5.83974C10.4923 3.82278 11.3917 2.92362 13.4084 2.92362ZM10.4923 11.6309C10.4923 10.6855 10.7021 10.504 10.7008 10.504C10.8415 10.5141 10.976 10.5657 11.0871 10.6524C11.0951 11.6712 11.1779 12.6881 11.3348 13.6948C10.8898 13.3862 10.4923 12.7869 10.4923 11.6309ZM13.2701 16.0872C13.0168 15.5466 12.8168 14.9827 12.6732 14.4031C12.3693 13.0677 12.2262 11.7011 12.2473 10.3318C12.242 10.127 12.242 9.91666 12.242 9.70041C12.242 9.68093 12.2428 9.6617 12.2428 9.64221C13.5611 8.7839 14.4264 7.38097 14.6018 5.81758C16.934 7.30088 19.7522 7.818 22.459 7.25923C22.6576 8.05747 22.7519 8.87788 22.7396 9.70041C22.7396 9.91666 22.7396 10.127 22.7337 10.3411C22.754 11.7075 22.6093 13.0712 22.3028 14.4028C22.157 14.983 21.9549 15.5474 21.6992 16.088C20.7053 18.1882 19.289 19.2534 17.4907 19.2534C15.6779 19.2534 14.2584 18.189 13.2701 16.0874V16.0872ZM17.4907 20.4198C18.3855 20.4236 19.2655 20.1894 20.0402 19.7415C20.1721 20.54 20.3785 21.3246 20.6564 22.0847L20.6575 22.0882L20.6641 22.1079C20.7242 22.2721 20.7829 22.4213 20.8417 22.5607C19.7989 23.3186 18.6749 23.9583 17.4907 24.4674C16.3064 23.9583 15.1827 23.3189 14.1399 22.561C14.1981 22.4227 14.256 22.2753 14.3153 22.1143C14.5983 21.3473 14.8073 20.5552 14.9395 19.7487C15.7161 20.1927 16.596 20.4244 17.4907 20.4198ZM9.32587 32.6672V29.168C9.32587 28.8457 9.06478 28.5846 8.74254 28.5846C8.42057 28.5846 8.15948 28.8457 8.15948 29.168V32.4573C5.90757 31.7875 4.44991 29.6114 4.68752 27.2741C4.92512 24.937 6.79098 23.0986 9.13179 22.896L12.8616 22.5711C12.86 22.5762 12.86 22.582 12.8584 22.5871C12.844 22.6312 12.8347 22.6766 12.8312 22.7225C12.8307 22.7329 12.8253 22.742 12.8253 22.7524V33.8335H10.4923C9.84834 33.833 9.32641 33.3111 9.32587 32.6672ZM26.8221 32.4573V29.168C26.8221 28.8457 26.561 28.5846 26.2388 28.5846C25.9168 28.5846 25.6557 28.8457 25.6557 29.168V32.6672C25.6549 33.3111 25.1332 33.833 24.4893 33.8335H22.1565V22.7526C22.1565 22.742 22.1509 22.7332 22.1506 22.7227C22.1469 22.6766 22.1378 22.6312 22.1231 22.5874C22.1218 22.5823 22.1218 22.5764 22.1199 22.5714L25.8493 22.8963C28.1906 23.0976 30.0581 24.9357 30.2959 27.2738C30.5338 29.6117 29.0751 31.7885 26.8221 32.4573Z" fill="white"/>
<path d="M10.582 26.7932L11.5973 24.7632C11.6904 24.5768 11.6771 24.3547 11.5623 24.1809C11.4475 24.0071 11.2486 23.9075 11.0406 23.9201C10.8327 23.9326 10.6471 24.0549 10.5539 24.2415L9.38728 26.5743C9.29384 26.7615 9.30772 26.9844 9.42385 27.1587L10.5903 28.9082C10.7702 29.1728 11.1298 29.243 11.396 29.0654C11.6624 28.8879 11.7358 28.5291 11.5607 28.2613L10.582 26.7932Z" fill="white"/>
<path d="M24.4276 24.2415C24.3345 24.0549 24.1489 23.9326 23.9409 23.9201C23.733 23.9075 23.5341 24.0071 23.4193 24.1809C23.3045 24.3547 23.2911 24.5768 23.3843 24.7632L24.3996 26.7932L23.4209 28.2613C23.3029 28.4346 23.2871 28.6578 23.3795 28.846C23.4719 29.0342 23.658 29.1583 23.8673 29.1712C24.0766 29.1842 24.2765 29.0836 24.3913 28.9082L25.5577 27.1587C25.6739 26.9844 25.6877 26.7615 25.594 26.5743L24.4276 24.2415Z" fill="white"/>
</g>
<defs>
<clipPath id="clip0">
<rect width="35" height="35" fill="white"/>
</clipPath>
</defs>
</svg>
