<svg width="35" height="35" viewBox="0 0 35 35" fill="none" xmlns="http://www.w3.org/2000/svg">
<g clip-path="url(#clip0)">
<path d="M32.6667 18.6667H29.75V18.0833C29.7481 16.4733 28.4434 15.1686 26.8333 15.1667H23.9167C22.3066 15.1686 21.0019 16.4733 21 18.0833V18.6667H18.0833C17.7399 18.668 17.4011 18.7459 17.0917 18.8947C16.6206 18.5097 16.3089 17.9637 16.2167 17.3623C16.2073 17.3087 16.2003 17.2567 16.1933 17.2042C17.1983 16.2188 17.9165 14.9788 18.2712 13.6167C19.0587 13.3922 20.4097 12.6834 20.4097 10.4592C20.4097 10.0543 20.4097 8.82582 19.5831 8.42216C19.338 8.30726 19.0613 8.27869 18.7979 8.34107C18.7787 6.65232 18.599 5.02016 18.1679 4.15449C16.7183 1.20049 12.9914 1.16666 12.8333 1.16666C12.6752 1.16666 8.94833 1.20049 7.49583 4.15157C7.06358 5.01666 6.88333 6.64999 6.86466 8.34166C6.60041 8.27878 6.32266 8.30715 6.07658 8.42216C5.25 8.82291 5.25 10.0543 5.25 10.4592C5.25 12.6875 6.60508 13.3945 7.39141 13.6179C7.74765 14.9861 8.47145 16.2308 9.48441 17.2171C9.47741 17.2655 9.471 17.3122 9.46166 17.3664C9.3265 18.3333 8.62801 19.1266 7.686 19.383C7.54334 19.4172 7.39854 19.4417 7.25258 19.4565L5.10708 19.6426C2.21864 19.8947 0.00171037 22.3122 -1.90735e-06 25.2117C-1.90735e-06 27.7252 1.715 30.7294 4.29975 31.4312C4.66373 32.1858 5.4272 32.6657 6.265 32.6667H16.0743C16.4879 33.3861 17.2535 33.8307 18.0833 33.8333H32.6667C33.9553 33.8333 35 32.7887 35 31.5V21C35 19.7113 33.9553 18.6667 32.6667 18.6667ZM22.1667 18.0833C22.1667 17.1168 22.9502 16.3333 23.9167 16.3333H26.8333C27.7998 16.3333 28.5833 17.1168 28.5833 18.0833V18.6667H22.1667V18.0833ZM19.0692 9.46691C19.0692 9.46691 19.2442 9.63782 19.2442 10.4586C19.3075 11.1082 19.0588 11.7494 18.5739 12.1864C18.6897 11.3254 18.7603 10.4589 18.7857 9.59057C18.8727 9.53401 18.9685 9.49223 19.0692 9.46691ZM6.41666 10.4592C6.37873 10.123 6.4334 9.78295 6.57475 9.47566C6.68349 9.49067 6.7873 9.5306 6.87808 9.59232C6.90384 10.4607 6.97471 11.3271 7.09041 12.1882C6.6036 11.7518 6.35345 11.1098 6.41666 10.4592ZM8.42275 12.9838V12.9774C7.93216 11.0711 7.80325 6.15241 8.5435 4.66899C9.67166 2.37299 12.803 2.33332 12.8333 2.33332C12.8637 2.33332 15.9886 2.36016 17.1261 4.67191C17.8634 6.15066 17.7368 11.0483 17.2486 12.9634C17.2451 12.9757 17.2422 12.9867 17.2392 12.999C16.9657 14.049 15.8579 17.374 12.8333 17.374C9.79533 17.3746 8.69166 14.0216 8.42275 12.9838ZM6.265 31.5C5.99436 31.5048 5.7334 31.3994 5.542 31.208C5.3506 31.0166 5.24521 30.7556 5.25 30.485V27.2883C5.25 26.9662 4.98883 26.705 4.66666 26.705C4.3445 26.705 4.08333 26.9662 4.08333 27.2883V30.1222C2.33333 29.3212 1.16666 27.0632 1.16666 25.2117C1.16822 22.9177 2.92214 21.005 5.20741 20.8052L7.36166 20.6179C7.56796 20.597 7.7726 20.5621 7.97416 20.5135C9.21882 20.1801 10.1908 19.2075 10.5233 17.9626C11.971 18.7361 13.7097 18.7335 15.155 17.9556C15.3316 18.6076 15.6868 19.1973 16.1805 19.6583C15.9012 20.05 15.7507 20.5189 15.75 21V31.5H6.265ZM33.8333 31.5C33.8333 32.1443 33.311 32.6667 32.6667 32.6667H18.0833C17.439 32.6667 16.9167 32.1443 16.9167 31.5V21C16.9167 20.3557 17.439 19.8333 18.0833 19.8333H32.6667C33.311 19.8333 33.8333 20.3557 33.8333 21V31.5Z" fill="white"/>
<path d="M30.359 24.3833L29.484 22.8667C29.3293 22.5986 29.0744 22.4029 28.7753 22.3228C28.4763 22.2428 28.1578 22.2848 27.8897 22.4397L27.4167 22.7138V22.1667C27.4167 21.5223 26.8943 21 26.25 21H24.5C23.8557 21 23.3333 21.5223 23.3333 22.1667V22.7138L22.8597 22.4403C22.5917 22.2854 22.2731 22.2433 21.9741 22.3234C21.6751 22.4035 21.4201 22.5991 21.2654 22.8673L20.3904 24.3839C20.0682 24.9418 20.2591 25.6552 20.8168 25.9776L21.2917 26.25L20.8174 26.5236C20.2594 26.8458 20.0683 27.5593 20.3904 28.1173L21.2654 29.6339C21.5876 30.1919 22.3011 30.3831 22.8591 30.0609L23.3333 29.7862V30.3333C23.3333 30.9777 23.8557 31.5 24.5 31.5H26.25C26.8943 31.5 27.4167 30.9777 27.4167 30.3333V29.7862L27.8903 30.0598C28.1583 30.2146 28.4769 30.2567 28.7759 30.1766C29.0749 30.0965 29.3299 29.9009 29.4846 29.6328L30.3596 28.1161C30.6812 27.5581 30.4898 26.845 29.932 26.523L29.4583 26.25L29.9326 25.9764C30.49 25.6541 30.6809 24.941 30.359 24.3833ZM28 26.7552L29.3487 27.5333L28.4737 29.05L27.125 28.2707C26.9445 28.1665 26.7222 28.1665 26.5417 28.2707C26.3612 28.3749 26.25 28.5674 26.25 28.7758V30.3333H24.5V28.7758C24.5 28.5674 24.3888 28.3749 24.2083 28.2707C24.0278 28.1665 23.8055 28.1665 23.625 28.2707L22.2758 29.05L21.4008 27.5333L22.75 26.7552C22.9305 26.651 23.0416 26.4584 23.0416 26.25C23.0416 26.0416 22.9305 25.849 22.75 25.7448L21.4013 24.9667L22.2763 23.45L23.625 24.2293C23.8055 24.3335 24.0278 24.3335 24.2083 24.2293C24.3888 24.1251 24.5 23.9326 24.5 23.7242V22.1667H26.25V23.7242C26.25 23.9326 26.3612 24.1251 26.5417 24.2293C26.7222 24.3335 26.9445 24.3335 27.125 24.2293L28.4737 23.45L29.3487 24.9667L28 25.7448C27.8195 25.849 27.7084 26.0416 27.7084 26.25C27.7084 26.4584 27.8195 26.651 28 26.7552Z" fill="white"/>
<path d="M18.6667 21C18.3445 21 18.0833 21.2612 18.0833 21.5833V22.1667C18.0833 22.4888 18.3445 22.75 18.6667 22.75C18.9888 22.75 19.25 22.4888 19.25 22.1667V21.5833C19.25 21.2612 18.9888 21 18.6667 21Z" fill="white"/>
<path d="M18.6667 23.9166C18.3445 23.9166 18.0833 24.1778 18.0833 24.5V30.9166C18.0833 31.2388 18.3445 31.5 18.6667 31.5C18.9888 31.5 19.25 31.2388 19.25 30.9166V24.5C19.25 24.1778 18.9888 23.9166 18.6667 23.9166Z" fill="white"/>
</g>
<defs>
<clipPath id="clip0">
<rect width="35" height="35" fill="white"/>
</clipPath>
</defs>
</svg>
