<svg width="35" height="35" viewBox="0 0 35 35" fill="none" xmlns="http://www.w3.org/2000/svg">
<g clip-path="url(#clip0)">
<path d="M1.81991 34.9994H22.819C23.3965 34.9986 23.9359 34.711 24.2582 34.2319L26.2037 34.9032C26.6422 35.056 27.1233 35.0271 27.5401 34.8229C27.9583 34.6207 28.2784 34.2597 28.4288 33.8202L30.5227 27.7552L31.0744 27.9455C31.3668 28.0467 31.6875 28.0275 31.9657 27.8921C32.2439 27.7565 32.457 27.5159 32.5577 27.2233L33.8906 23.3635C34.0997 22.7545 33.7766 22.0914 33.1683 21.8808L32.5579 21.6698C32.5713 21.6637 32.5852 21.6594 32.5988 21.6527C34.626 20.6658 35.4695 18.2221 34.4823 16.1949C33.4954 14.1674 31.052 13.3239 29.0245 14.3108C26.9973 15.2977 26.1538 17.7412 27.1404 19.7687C27.1468 19.7817 27.1548 19.7938 27.1612 19.8068L26.5514 19.5962C25.9426 19.3866 25.279 19.7099 25.0686 20.3185L23.7357 24.1782C23.5269 24.7873 23.8497 25.4505 24.4579 25.6615L25.0093 25.8519L24.3266 27.8299C23.6791 25.3122 21.7774 23.3074 19.297 22.5283C19.296 22.5019 19.293 22.4754 19.2882 22.4495C19.2343 22.289 19.1131 22.1601 18.9563 22.0963L16.4795 21.0864C15.9636 20.8781 15.3727 21.064 15.0685 21.5296L14.6525 22.1651V20.1401C17.8327 19.4611 20.3942 17.1105 21.3432 14.0003H22.2356C23.2016 13.9992 23.9845 13.2163 23.9856 12.2502C23.9845 11.5103 23.5164 10.8513 22.8182 10.6067C22.819 10.4241 22.819 10.2527 22.819 10.2089C22.7306 4.4939 18.0346 -0.0718353 12.3193 0.000793579C6.60433 -0.0718353 1.90803 4.4939 1.81991 10.2089C1.81991 10.2527 1.81991 10.4233 1.82071 10.6054C1.57666 10.6882 1.3553 10.8265 1.17373 11.0094C0.838354 11.3349 0.650373 11.783 0.65331 12.2502C0.654378 13.2163 1.43701 13.9992 2.40308 14.0003H3.29518C4.24417 17.1105 6.80593 19.4611 9.98612 20.1401V22.1646L9.57037 21.5288C9.26677 21.0626 8.67533 20.8771 8.15998 21.0864L5.68259 22.0963C5.52585 22.1601 5.40436 22.289 5.35042 22.4495C5.34561 22.4754 5.34268 22.5019 5.34161 22.5283C2.1916 23.52 0.0546563 26.4473 0.0698764 29.7495V33.2496C0.0709445 34.2154 0.853841 34.9983 1.81991 34.9994ZM28.0549 17.0296C28.5091 15.7143 29.8293 14.9031 31.2079 15.0921C32.5865 15.2809 33.6396 16.4173 33.7232 17.8063C33.8068 19.1951 32.8976 20.4498 31.5518 20.8028C30.2058 21.1558 28.7981 20.5088 28.1893 19.2576C27.8488 18.5625 27.8005 17.7604 28.0549 17.0296ZM12.3193 27.4828L13.4859 28.1965V29.1664C13.4859 29.4884 13.2248 29.7495 12.9028 29.7495H11.7361C11.4139 29.7495 11.1527 29.4884 11.1527 29.1664V28.1965L12.3193 27.4828ZM11.5978 30.899C11.6443 30.9028 11.6894 30.9161 11.7361 30.9161H12.9028C12.9503 30.9161 12.9951 30.906 13.0419 30.9022L13.8792 33.8328H10.7597L11.5978 30.899ZM17.5692 33.8328V31.4996H21.069V33.8328H17.5692ZM26.1714 20.6987L32.7876 22.9833L31.4559 26.843L31.4554 26.8425H31.4549L28.1465 25.7005L25.9412 24.9387H25.9402L24.8384 24.5584L26.1714 20.6987ZM27.766 26.8035L29.4199 27.3752L27.3257 33.44C27.2194 33.7433 26.8883 33.9043 26.5842 33.8007L24.3792 33.0394C24.0748 32.934 23.9132 32.6021 24.0182 32.2974L26.1121 26.2326L27.766 26.8035ZM23.4022 29.7495V30.4905C23.4022 30.494 23.4043 30.4969 23.4043 30.5004L22.9151 31.9169C22.7143 32.5054 22.842 33.1567 23.2502 33.6258C23.1434 33.7543 22.9859 33.8298 22.819 33.8328H22.2356V30.9161C22.2356 30.5941 21.9744 30.333 21.6524 30.333H19.9024V29.1664C19.9024 28.8441 19.6412 28.5829 19.3192 28.5829C18.9969 28.5829 18.7358 28.8441 18.7358 29.1664V30.333H16.9857C16.6637 30.333 16.4026 30.5941 16.4026 30.9161V33.8328H15.0928L14.1179 30.4211C14.4592 30.0929 14.6523 29.6398 14.6525 29.1664V28.91L14.9318 29.0809C15.0234 29.1367 15.1286 29.1664 15.236 29.1664C15.2835 29.1664 15.331 29.1605 15.3772 29.1487C15.5291 29.1111 15.6594 29.0139 15.7387 28.8788L18.8388 23.6116C21.5555 24.4156 23.4147 26.9167 23.4022 29.7495ZM16.0381 22.1659L17.8909 22.9213L15.0344 27.7757L13.1361 26.615L16.0381 22.1659ZM22.2356 12.8337H21.5843C21.5891 12.7968 21.5979 12.7618 21.6022 12.725C21.6348 12.4294 21.6516 12.1325 21.6524 11.835C21.6524 11.78 21.6457 11.7226 21.6444 11.6671H22.2356C22.3931 11.6668 22.5434 11.7314 22.6516 11.846C22.76 11.9522 22.8203 12.0983 22.819 12.2502C22.8187 12.5725 22.5576 12.8334 22.2356 12.8337ZM12.3193 1.16739C17.3905 1.09396 21.5648 5.13795 21.6524 10.2089V10.5005H21.5349C21.5261 10.4468 21.5226 10.3947 21.5127 10.3411C21.4553 10.0556 21.3859 9.77872 21.3061 9.51945C21.3026 9.5085 21.2943 9.50076 21.29 9.49007C21.2858 9.47913 21.2879 9.46764 21.2834 9.4575C20.5833 7.84818 19.0321 5.04262 16.5075 4.33076C15.0603 3.97242 13.5284 4.26881 12.3193 5.14142C11.1105 4.26854 9.57865 3.97188 8.13114 4.33049C5.60649 5.04262 4.05538 7.84791 3.35526 9.45723C3.35099 9.46711 3.35259 9.47913 3.34885 9.48927C3.34512 9.49942 3.33604 9.50796 3.33257 9.51945C3.24899 9.79314 3.17957 10.0708 3.12403 10.3517C3.11495 10.4014 3.11174 10.4508 3.10347 10.5002H2.98651C2.98651 10.3622 2.98651 10.2436 2.98651 10.2086C3.07409 5.13768 7.24838 1.09396 12.3193 1.16739ZM2.40308 12.8337C2.08105 12.8334 1.81991 12.5725 1.81991 12.2502C1.81938 12.093 1.88426 11.9426 1.99855 11.8345C2.10669 11.725 2.25515 11.6644 2.40895 11.6671H2.99426C2.99319 11.7229 2.98651 11.7798 2.98651 11.835C2.98731 12.1336 3.00387 12.4315 3.03644 12.7282C3.04045 12.764 3.04953 12.7982 3.05407 12.8337H2.40308ZM4.19637 12.6006C4.16833 12.3464 4.15391 12.0908 4.15311 11.835C4.15418 11.4115 4.19316 10.9888 4.2698 10.5723C4.31626 10.3395 4.37474 10.1082 4.44149 9.88579C4.95176 8.7232 6.33144 6.05062 8.44809 5.45357C9.54233 5.14516 10.7311 5.43407 11.985 6.31176C11.9887 6.3147 11.9936 6.3147 11.9978 6.31764C12.0371 6.34087 12.0793 6.35929 12.1231 6.37211C12.1506 6.38519 12.1786 6.39587 12.2077 6.40468C12.2819 6.40735 12.3564 6.40735 12.4309 6.40468C12.4598 6.39587 12.4881 6.38519 12.5153 6.37211C12.5591 6.35929 12.6013 6.34087 12.6408 6.31764C12.6448 6.31497 12.6496 6.31497 12.6536 6.31176C13.9075 5.43407 15.0963 5.14463 16.1905 5.45357C18.3032 6.04928 19.6823 8.71412 20.195 9.88072L20.1963 9.88312C20.2634 10.1064 20.3218 10.3381 20.3672 10.5616C20.4447 10.9816 20.4845 11.4078 20.4858 11.835C20.485 12.0898 20.4706 12.3442 20.4425 12.5974C20.0145 16.3898 16.5222 19.2501 12.3193 19.2501C8.11646 19.2501 4.62413 16.3898 4.19637 12.6006ZM11.1527 20.3425C11.5399 20.3895 11.9295 20.4143 12.3193 20.4167C12.7094 20.4143 13.0987 20.3895 13.4859 20.3425V23.9491L12.3193 25.7333L11.1527 23.9488V20.3425ZM8.59389 22.1673L11.502 26.615L9.60455 27.7757L6.74772 22.9213L8.59389 22.1673ZM1.23648 29.7495C1.22366 26.9165 3.08317 24.4153 5.79981 23.611L8.89989 28.8782C8.97919 29.0134 9.1095 29.1105 9.26143 29.1485C9.30762 29.1602 9.35515 29.1664 9.40295 29.1664C9.51029 29.1664 9.61549 29.1367 9.70708 29.0809L9.98612 28.91V29.1664C9.98665 29.64 10.1797 30.0932 10.5204 30.4221L9.54607 33.8328H1.81991C1.49762 33.8325 1.23674 33.5716 1.23648 33.2496V29.7495Z" fill="white"/>
<path d="M4.15313 32.6662H7.06949C7.39179 32.6662 7.65293 32.405 7.65293 32.083C7.65293 31.7607 7.39179 31.4996 7.06949 31.4996H4.15313C3.83084 31.4996 3.56969 31.7607 3.56969 32.083C3.56969 32.405 3.83084 32.6662 4.15313 32.6662Z" fill="white"/>
<path d="M31.002 17.4302C31.3067 17.5354 31.6389 17.3736 31.7438 17.0691C31.849 16.7647 31.6875 16.4325 31.3828 16.3273C31.0784 16.2221 30.7462 16.384 30.641 16.6884C30.5905 16.8347 30.6004 16.9949 30.668 17.134C30.7358 17.2732 30.856 17.3797 31.002 17.4302Z" fill="white"/>
<path d="M29.5188 18.1522C29.8232 18.2571 30.1554 18.0956 30.2603 17.7912C30.3655 17.4865 30.204 17.1546 29.8995 17.0494C29.5949 16.9441 29.2629 17.1057 29.1577 17.4104C29.1073 17.5564 29.1169 17.7169 29.1844 17.856C29.2523 17.9952 29.3724 18.1017 29.5188 18.1522Z" fill="white"/>
<path d="M31.363 18.1717C31.2581 18.4763 31.4196 18.8085 31.7241 18.9135C32.0287 19.0187 32.3609 18.8571 32.4659 18.5524C32.5711 18.248 32.4095 17.9158 32.1048 17.8106C31.9588 17.7602 31.7983 17.77 31.6592 17.8376C31.52 17.9054 31.4135 18.0256 31.363 18.1717Z" fill="white"/>
<path d="M28.1668 23.8562L29.2691 24.2367C29.4661 24.305 29.6848 24.2628 29.8424 24.1261C29.9999 23.9894 30.0725 23.779 30.0328 23.5745C29.993 23.3697 29.8469 23.2017 29.6498 23.1339L28.5473 22.7534C28.35 22.684 28.1305 22.7256 27.9722 22.8623C27.8141 22.9993 27.7412 23.2105 27.7813 23.4156C27.8216 23.6209 27.9687 23.7891 28.1668 23.8562Z" fill="white"/>
</g>
<defs>
<clipPath id="clip0">
<rect width="35" height="35" fill="white"/>
</clipPath>
</defs>
</svg>
