<svg width="31" height="35" viewBox="0 0 31 35" fill="none" xmlns="http://www.w3.org/2000/svg">
<path d="M24.2501 22.1574V22.0769C24.2501 21.5052 23.8406 21.021 23.2754 20.926L20.9421 20.5375C20.6031 20.4803 20.2584 20.5754 19.9959 20.7976C19.8804 20.8956 19.7911 21.0152 19.7223 21.1459L19.5835 21.1156V19.6741C21.3463 18.4018 22.5002 16.3358 22.5002 14V12.8334H23.0835H23.6669H24.8336V11.6667H23.6669V8.16672C23.6667 3.66336 20.0035 0 15.5001 0C10.9967 0 7.33338 3.66336 7.33338 8.16672V11.6667H6.16672V12.8334H7.33338H7.91676H8.50004V14C8.50004 16.3356 9.65389 18.4018 11.4167 19.6741V21.1156L11.2779 21.1465C11.209 21.0164 11.1198 20.8962 11.0043 20.7982C10.7424 20.5759 10.3971 20.4814 10.0581 20.538L7.72367 20.9265C7.1596 21.0216 6.7501 21.5051 6.7501 22.0774V22.1573C3.31071 22.9717 0.916702 25.9863 0.916702 29.5318V35H9.08342H12.5834H13.7501H17.25H18.4167H21.9167H30.0834V29.5318C30.0835 25.9864 27.6889 22.9718 24.2501 22.1574ZM2.08336 29.7501H5.00006V31.5001H3.8334C3.8334 30.8567 3.31019 30.3335 2.66674 30.3335H2.08336V29.7501ZM6.75 33.8334H2.08336V31.5001H2.66674C2.66674 32.1436 3.18996 32.6668 3.8334 32.6668H5.00006C5.6435 32.6668 6.16672 32.1436 6.16672 31.5001V29.7501C6.16672 29.1066 5.6435 28.5834 5.00006 28.5834H2.15686C2.52027 26.0967 4.29183 24.0568 6.75 23.3637V33.8334ZM16.0834 2.81632C16.0834 2.66292 16.1457 2.51245 16.2543 2.40388L17.2589 1.39934C18.8572 1.81535 20.2332 2.77957 21.1742 4.08336H19.8751C19.0713 4.08336 18.4168 4.7373 18.4168 5.54171C18.4168 5.70215 18.2862 5.8334 18.1251 5.8334H16.6668C16.3454 5.8334 16.0834 5.57206 16.0834 5.25002V2.81632ZM15.5001 1.16666C15.6097 1.16666 15.7171 1.17831 15.8256 1.18304L15.4295 1.5791C15.0988 1.90922 14.9168 2.34907 14.9168 2.81632V5.25002C14.9168 6.21487 15.702 7.00006 16.6669 7.00006H18.1252C18.9291 7.00006 19.5836 6.34612 19.5836 5.54171C19.5836 5.38127 19.7142 5.25002 19.8753 5.25002H21.8557C22.2652 6.13906 22.5003 7.12491 22.5003 8.16672V11.6667H21.3336V9.91666C21.3336 9.27322 20.8104 8.75 20.1669 8.75H17.8336C17.1902 8.75 16.667 9.27322 16.667 9.91666V11.6667H12.0003V10.7917C12.0003 10.6313 12.131 10.5 12.292 10.5C13.0956 10.5 13.7501 9.8461 13.7501 9.04169V7.29165C13.7501 6.48724 13.0956 5.8333 12.2917 5.8333H11.125C10.3212 5.8333 9.6667 6.48724 9.6667 7.29165C9.6667 7.45209 9.53608 7.58334 9.37501 7.58334H8.52975C8.82785 3.9959 11.8373 1.16666 15.5001 1.16666ZM20.1667 9.91666V11.6667H17.8334V9.91666H20.1667ZM8.50004 8.75H9.37501C10.1789 8.75 10.8334 8.09606 10.8334 7.29165C10.8334 7.13121 10.964 6.99996 11.125 6.99996H12.2917C12.4527 6.99996 12.5834 7.13121 12.5834 7.29165V9.04169C12.5834 9.20213 12.4528 9.33338 12.2917 9.33338C11.4878 9.33338 10.8334 9.98732 10.8334 10.7917V11.6667H8.50004V8.75ZM9.6667 14V12.8334H21.3334V14C21.3334 16.2149 20.0921 18.1458 18.2685 19.1328C17.9973 18.5162 17.3824 18.0834 16.6667 18.0834H14.3333C13.6175 18.0834 13.0028 18.5162 12.7321 19.1328C10.908 18.1459 9.6667 16.215 9.6667 14ZM17.1877 19.5826C16.6533 19.7442 16.0869 19.8334 15.5001 19.8334C14.9133 19.8334 14.3469 19.7442 13.8125 19.5826C13.907 19.3872 14.1024 19.25 14.3334 19.25H16.6668C16.8978 19.25 17.0932 19.3872 17.1877 19.5826ZM11.4167 22.3108L12.5834 22.0512V20.3555C13.4724 20.765 14.4583 21.0001 15.5001 21.0001C16.5419 21.0001 17.5278 20.765 18.4168 20.3555V22.0512L19.5835 22.3108V25.0834H11.4167V22.3108ZM9.08332 33.8334H7.91666V30.9167H9.08332V33.8334ZM11.4167 33.8334H10.2501V29.1668H11.4167V33.8334ZM13.7501 33.8334H12.5834V30.9167H13.7501V33.8334ZM16.0834 33.8334H14.9167V29.1668H16.0834V33.8334ZM18.4167 33.8334H17.25V30.9167H18.4167V33.8334ZM20.7501 33.8334H19.5835V29.1668H20.7501V33.8334ZM20.7501 28H19.5835C18.94 28 18.4168 28.5233 18.4168 29.1667V29.7501H17.2501V29.1667C17.2501 28.5233 16.7269 28 16.0835 28H14.9168C14.2734 28 13.7502 28.5233 13.7502 29.1667V29.7501H12.5835V29.1667C12.5835 28.5233 12.0603 28 11.4168 28H10.2502C9.60674 28 9.08353 28.5233 9.08353 29.1667V29.7501H7.91666V22.0775L10.2501 21.689V26.2501H20.7501V21.689L23.0834 22.0775V29.7501H21.9168V29.1667C21.9168 28.5233 21.3936 28 20.7501 28ZM23.0834 33.8334H21.9168V30.9167H23.0834V33.8334ZM28.9166 33.8335H24.2501V33.8334V23.3643C25.1262 23.611 25.9137 24.0287 26.5834 24.5777V26.5418C26.5834 26.7022 26.4528 26.8335 26.2917 26.8335C25.4878 26.8335 24.8334 27.4874 24.8334 28.2918V29.4585C24.8334 30.2629 25.4878 30.9168 26.2917 30.9168H28.9167V33.8335H28.9166ZM28.9167 29.7502H26.2917C26.1308 29.7502 26 29.6189 26 29.4585V28.2918C26 28.1314 26.1306 28.0001 26.2917 28.0001C27.0956 28.0001 27.7501 27.3462 27.7501 26.5418V25.8313C28.4892 26.8813 28.9167 28.1588 28.9167 29.532V29.7502Z" fill="white"/>
</svg>
