
<svg width="35" height="35" viewBox="0 0 35 35" fill="none" xmlns="http://www.w3.org/2000/svg">
<path d="M28.8375 20.6806L21.1914 18.6845V18.1756C23.0064 16.9742 24.2062 14.9146 24.2062 12.5797V7.18708L26.5792 4.80652C26.8452 4.53976 26.8455 4.10824 26.5795 3.84148L22.9517 0.201073C22.8235 0.0723648 22.6491 0 22.4675 0H12.5325C12.3509 0 12.1765 0.0723648 12.0483 0.201073L8.42075 3.84121C8.15479 4.10824 8.15479 4.53976 8.42075 4.80652L10.7938 7.18681V12.5795C10.7938 14.9309 12.0104 17.0031 13.847 18.2007V18.6843L6.16703 20.6827C3.58246 21.3554 1.77734 23.6903 1.77734 26.3608V34.3164C1.77734 34.694 2.08336 35 2.46094 35H6.74488C7.12219 35 7.42847 34.694 7.42847 34.3164C7.42847 33.9388 7.12219 33.6328 6.74488 33.6328H3.14453V26.3608C3.14453 24.3127 4.52908 22.5217 6.5115 22.0058L11.0598 20.8224L13.8756 24.9704C13.9814 25.1266 14.1472 25.2318 14.3333 25.2617C14.3694 25.2673 14.4054 25.2703 14.4412 25.2703C14.5913 25.2703 14.7387 25.2206 14.8591 25.1274L16.8164 23.615V33.6328H12.8972C12.5196 33.6328 12.2136 33.9388 12.2136 34.3164C12.2136 34.694 12.5196 35 12.8972 35H32.5391C32.9166 35 33.2227 34.694 33.2227 34.3164V26.3576C33.2227 23.6892 31.4194 21.3548 28.8375 20.6806ZM17.5235 20.9732L15.5349 18.9919C16.1568 19.1828 16.8167 19.2856 17.5 19.2856C18.2066 19.2856 18.8875 19.1756 19.5273 18.9724L17.5235 20.9732ZM20.5126 19.9203L22.5404 20.4499L20.4013 23.6011L18.3863 22.0438L20.5126 19.9203ZM12.8163 1.36719H22.1837L25.1301 4.32373L23.2387 6.2207H11.7613L9.86992 4.32373L12.8163 1.36719ZM22.6793 7.58789C22.3733 8.80394 21.2707 9.70703 19.9609 9.70703H14.9638C13.654 9.70703 12.5512 8.80394 12.2454 7.58789H22.6793ZM12.161 12.5795V9.98928C12.902 10.663 13.8858 11.0742 14.9638 11.0742H19.9609C21.0763 11.0742 22.09 10.6334 22.839 9.91745V12.5795C22.839 15.5235 20.444 17.9184 17.5 17.9184C14.556 17.9184 12.161 15.5235 12.161 12.5795ZM14.5985 23.6011L12.4641 20.4568L14.529 19.9195L16.6402 22.0235L14.5985 23.6011ZM31.8555 33.6328H18.1836V23.615L20.1406 25.1274C20.2613 25.2206 20.4085 25.27 20.5585 25.27C20.5946 25.27 20.6306 25.2673 20.6664 25.2615C20.8528 25.2318 21.0184 25.1266 21.1241 24.9704L23.9442 20.8162L28.492 22.0034C30.4725 22.5204 31.8555 24.3111 31.8555 26.3576V33.6328Z" fill="white"/>
<path d="M19.0811 14.9501C19.3478 14.6831 19.3478 14.2503 19.0811 13.9835C18.814 13.7165 18.3812 13.7165 18.1142 13.9835C17.9561 14.1416 17.7459 14.2286 17.5222 14.2286C17.2987 14.2286 17.0882 14.1416 16.9302 13.9835C16.6634 13.7165 16.2308 13.7165 15.9635 13.9835C15.6965 14.2503 15.6965 14.6831 15.9635 14.9501C16.3798 15.3664 16.9334 15.5958 17.5222 15.5958C18.111 15.5958 18.6645 15.3664 19.0811 14.9501Z" fill="white"/>
<path d="M28.966 26.4091C28.8437 26.1977 28.618 26.0674 28.374 26.0674H26.8484L26.0855 24.7461C25.9635 24.5346 25.7379 24.4043 25.4935 24.4043C25.2495 24.4043 25.0236 24.5346 24.9015 24.7461L24.1389 26.0674H22.6134C22.369 26.0674 22.1434 26.1977 22.0214 26.4091C21.8991 26.6206 21.8991 26.8813 22.0214 27.0927L22.784 28.4137L22.0214 29.735C21.8991 29.9465 21.8991 30.2071 22.0214 30.4186C22.1434 30.6301 22.369 30.7604 22.6134 30.7604H24.1389L24.9015 32.0816C25.0236 32.2931 25.2495 32.4234 25.4935 32.4234C25.7379 32.4234 25.9635 32.2931 26.0855 32.0816L26.8484 30.7604H28.374C28.618 30.7604 28.8437 30.6301 28.966 30.4186C29.088 30.2071 29.088 29.9465 28.966 29.735L28.2031 28.4137L28.966 27.0927C29.088 26.8813 29.088 26.6206 28.966 26.4091ZM26.8217 28.7555L27.1897 29.3932H26.4535C26.2094 29.3932 25.9838 29.5235 25.8615 29.735L25.4935 30.3727L25.1253 29.735C25.0033 29.5235 24.7776 29.3932 24.5333 29.3932H23.7971L24.1653 28.7555C24.2874 28.544 24.2874 28.2834 24.1653 28.0719L23.7971 27.4345H24.5333C24.7776 27.4345 25.0033 27.3042 25.1253 27.0927L25.4935 26.4551L25.8615 27.0927C25.9838 27.3042 26.2094 27.4345 26.4535 27.4345H27.1897L26.8217 28.0719C26.6997 28.2834 26.6997 28.5443 26.8217 28.7555Z" fill="white"/>
<path d="M18.8672 3.89087C18.8672 4.64576 18.2552 5.25806 17.5 5.25806C16.7448 5.25806 16.1328 4.64576 16.1328 3.89087C16.1328 3.13571 16.7448 2.52368 17.5 2.52368C18.2552 2.52368 18.8672 3.13571 18.8672 3.89087Z" fill="white"/>
<path d="M9.82129 33.6328C9.64131 33.6328 9.46507 33.706 9.33797 33.8331C9.21006 33.9602 9.13769 34.1367 9.13769 34.3164C9.13769 34.4961 9.21006 34.6726 9.33797 34.7997C9.46507 34.9268 9.64078 35 9.82129 35C10.001 35 10.1772 34.9268 10.3043 34.7997C10.4314 34.6726 10.5049 34.4961 10.5049 34.3164C10.5049 34.1367 10.4317 33.9602 10.3043 33.8331C10.1772 33.706 10.001 33.6328 9.82129 33.6328Z" fill="white"/>
</svg>
