<svg width="35" height="35" viewBox="0 0 35 35" fill="none" xmlns="http://www.w3.org/2000/svg">
<path d="M30.7933 23.8075L28.4041 23.0109L29.331 22.084C29.4741 21.9409 29.5464 21.7417 29.5285 21.5401C29.5105 21.3385 29.4042 21.1552 29.2381 21.0396L24.1987 17.5327L24.6067 13.1168C27.1422 12.6602 31.8555 11.4679 31.8555 8.91865C31.8555 6.44773 27.439 5.2632 25.0048 4.79371C25.0143 4.56074 25.0195 4.32579 25.0195 4.09043C25.0195 2.10288 24.6781 0.961412 23.9125 0.389244C22.9921 -0.29852 21.7741 0.0613237 20.4846 0.442291C19.5771 0.710396 18.5485 1.01425 17.4999 1.01425C16.4514 1.01425 15.4228 0.710396 14.5153 0.442291C13.2258 0.0612554 12.0077 -0.298452 11.0874 0.389244C10.3219 0.961412 9.98047 2.10288 9.98047 4.09043C9.98047 4.32592 9.9856 4.56094 9.99517 4.79371C7.55405 5.26457 3.14453 6.44964 3.14453 8.91865C3.14453 11.468 7.85805 12.6603 10.3932 13.1168L10.8012 17.5327L5.76188 21.0396C5.59569 21.1552 5.48939 21.3385 5.47142 21.5401C5.45351 21.7417 5.52583 21.9409 5.66897 22.084L6.59593 23.0109L4.20677 23.8075C1.69053 24.6463 0 26.9917 0 29.6438V34.3155C0 34.6931 0.306045 34.9991 0.683594 34.9991C9.53237 34.9991 27.7784 34.9991 34.3164 34.9991C34.694 34.9991 35 34.6931 35 34.3155V29.6438C35 26.9917 33.3095 24.6462 30.7933 23.8075ZM11.9059 1.48443C12.2775 1.20669 13.1764 1.47226 14.128 1.75342C15.1244 2.04778 16.2537 2.38144 17.5 2.38144C18.7463 2.38144 19.8756 2.04778 20.872 1.75342C21.8236 1.47226 22.7225 1.20675 23.0941 1.48443C23.3025 1.64022 23.6523 2.186 23.6523 4.09043C23.6523 5.34967 23.5015 6.63811 23.1863 7.85812C21.4052 8.10832 19.4946 8.23505 17.5 8.23505C15.5054 8.23505 13.5949 8.10832 11.8137 7.85812C11.4941 6.62102 11.3477 5.33293 11.3477 4.09043C11.3477 2.186 11.6975 1.64029 11.9059 1.48443ZM4.51172 8.91865C4.51172 8.07701 6.43057 6.89569 10.1073 6.16459C10.2121 7.02304 10.3824 7.86031 10.6172 8.66168C10.6917 8.91639 10.907 9.10486 11.1693 9.14519C13.1422 9.4485 15.2722 9.60224 17.5 9.60224C19.7278 9.60224 21.8579 9.44843 23.8307 9.14519C24.093 9.10486 24.3083 8.91639 24.3828 8.66168C24.6176 7.86031 24.7878 7.02304 24.8927 6.16459C28.5694 6.89576 30.4883 8.07701 30.4883 8.91865C30.4883 9.84731 28.2134 11.1547 23.8651 11.8567C21.9239 12.1706 19.7229 12.3366 17.5 12.3366C15.2771 12.3366 13.0761 12.1706 11.1346 11.8566C6.78665 11.1547 4.51172 9.84731 4.51172 8.91865ZM17.5 22.2843C15.932 22.2843 14.4474 21.6005 13.4268 20.4081C12.6871 19.5445 12.2702 18.5025 12.1678 17.4636L11.7864 13.3348C13.5738 13.5767 15.53 13.7038 17.5001 13.7038C19.4702 13.7038 21.4264 13.5767 23.2138 13.3348L22.8326 17.4596C22.7298 18.5048 22.3117 19.546 21.5731 20.4083C20.5526 21.6005 19.068 22.2843 17.5 22.2843ZM20.9841 22.679L20.4971 24.6882C19.9202 25.3531 18.8124 26.3859 17.5 26.3859C16.1876 26.3859 15.0798 25.3531 14.5029 24.6882L14.0159 22.679C15.0551 23.3086 16.2565 23.6515 17.5 23.6515C18.7435 23.6515 19.9449 23.3086 20.9841 22.679ZM1.36719 33.6319V29.6438C1.36719 27.5811 2.68201 25.7569 4.63907 25.1046L7.67669 24.0918L9.18087 25.596L5.77309 27.8679C5.62017 27.9698 5.51469 28.1291 5.48058 28.3097C5.44646 28.4903 5.48645 28.677 5.59166 28.8278L8.94339 33.6319H1.36719ZM10.6104 33.6319L7.11238 28.6181L10.633 26.2711C10.8034 26.1574 10.9138 25.9734 10.934 25.7696C10.9542 25.5659 10.8819 25.3637 10.7371 25.2189L7.21335 21.6951L11.0988 18.9912C11.3447 19.7541 11.7254 20.4687 12.2266 21.1007C12.2752 21.3011 15.2611 33.6214 15.2636 33.6319H10.6104ZM16.6705 33.6319L15.0586 26.9812C15.8514 27.4859 16.6824 27.753 17.5 27.753C18.3176 27.753 19.1486 27.4859 19.9414 26.9812L18.3295 33.6319H16.6705ZM19.7362 33.6319L22.7734 21.1007C23.2746 20.4686 23.6552 19.7541 23.9011 18.9912L27.7865 21.6951L24.2627 25.2189C24.1179 25.3637 24.0457 25.5658 24.0659 25.7696C24.086 25.9734 24.1966 26.1574 24.3669 26.2711L27.8875 28.6181L24.3895 33.6319H19.7362ZM33.6328 33.6319H26.0565L29.4083 28.8278C29.5135 28.677 29.5535 28.4903 29.5194 28.3097C29.4852 28.1291 29.3798 27.9698 29.2268 27.8679L25.8191 25.596L27.3232 24.0918L30.361 25.1046C32.318 25.7569 33.6328 27.5811 33.6328 29.6438V33.6319Z" fill="white"/>
</svg>
