<svg width="150" height="150" viewBox="0 0 150 150" fill="none" xmlns="http://www.w3.org/2000/svg">
<circle cx="75" cy="74.9533" r="53" fill="#BC0C0C"/>
<path d="M99.3 76.8H93V50.7C93 49.17 91.8301 48 90.3 48H50.7C49.17 48 48 49.17 48 50.7V99.3C48 100.83 49.17 102 50.7 102H96.6C99.57 102 102 99.57 102 96.6V79.5C102 77.97 100.83 76.8 99.3 76.8ZM50.7 100.2C50.25 100.2 49.8 99.84 49.8 99.3V50.7C49.8 50.25 50.2501 49.8 50.7 49.8H90.3C90.7501 49.8 91.2 50.16 91.2 50.7V77.7V96.6C91.2 97.95 91.65 99.21 92.55 100.2H50.7ZM100.2 96.6C100.2 98.58 98.58 100.2 96.6 100.2C94.62 100.2 93 98.58 93 96.6V78.6H99.3C99.75 78.6 100.2 78.9599 100.2 79.4999V96.6Z" fill="white"/>
<path d="M53.4 70.5H75C75.54 70.5 75.9 70.14 75.9 69.6V53.4C75.9 52.86 75.54 52.5 75 52.5H53.4C52.86 52.5 52.5 52.86 52.5 53.4V69.6C52.5 70.14 52.86 70.5 53.4 70.5ZM54.3 54.3H74.0999V68.6999H54.3V54.3Z" fill="white"/>
<path d="M82.2 55.2001H86.7C87.24 55.2001 87.6 54.8401 87.6 54.3001C87.6 53.7601 87.24 53.4001 86.7 53.4001H82.2C81.66 53.4001 81.3 53.7601 81.3 54.3001C81.3 54.8401 81.66 55.2001 82.2 55.2001Z" fill="white"/>
<path d="M87.6001 57.9001H79.5001C78.9601 57.9001 78.6001 58.26 78.6001 58.8C78.6001 59.34 78.9601 59.7 79.5001 59.7H87.6001C88.1401 59.7 88.5001 59.34 88.5001 58.8C88.5001 58.26 88.1401 57.9001 87.6001 57.9001Z" fill="white"/>
<path d="M84.9 64.2C85.44 64.2 85.8 63.8401 85.8 63.3001C85.8 62.7601 85.44 62.4001 84.9 62.4001H81.3001C80.7601 62.4001 80.4001 62.7601 80.4001 63.3001C80.4001 63.8401 80.7601 64.2 81.3001 64.2H84.9Z" fill="white"/>
<path d="M87.6 73.2H53.4C52.86 73.2 52.5 73.5599 52.5 74.0999V77.7C52.5 78.24 52.86 78.5999 53.4 78.5999H87.6C88.14 78.5999 88.5 78.24 88.5 77.7V74.1C88.5 73.56 88.14 73.2 87.6 73.2ZM86.7 76.8H54.3V75H86.7V76.8Z" fill="white"/>
<path d="M71.4 81.2999H53.4C52.86 81.2999 52.5 81.6599 52.5 82.1999C52.5 82.7399 52.86 83.0999 53.4 83.0999H71.4C71.94 83.0999 72.3 82.74 72.3 82.2C72.3 81.66 71.94 81.2999 71.4 81.2999Z" fill="white"/>
<path d="M87.6 81.2999H76.8C76.26 81.2999 75.9 81.6599 75.9 82.1999C75.9 82.7399 76.26 83.0998 76.8 83.0998H87.6C88.14 83.0998 88.5 82.7399 88.5 82.1999C88.5 81.6599 88.14 81.2999 87.6 81.2999Z" fill="white"/>
<path d="M82.2001 85.8H75.0001C74.4601 85.8 74.1001 86.16 74.1001 86.7C74.1001 87.24 74.4601 87.5999 75.0001 87.5999H82.2001C82.7401 87.5999 83.1 87.24 83.1 86.7C83.1 86.16 82.7401 85.8 82.2001 85.8Z" fill="white"/>
<path d="M75.9 91.2C75.9 91.74 76.26 92.0999 76.8 92.0999H86.7C87.24 92.0999 87.6 91.74 87.6 91.2C87.6 90.66 87.24 90.3 86.7 90.3H76.8C76.2601 90.3 75.9 90.66 75.9 91.2Z" fill="white"/>
<path d="M87.6001 94.7999H75.0001C74.4601 94.7999 74.1001 95.1599 74.1001 95.6999C74.1001 96.2399 74.4601 96.5998 75.0001 96.5998H87.6001C88.1401 96.5998 88.5 96.2399 88.5 95.6999C88.5 95.16 88.1401 94.7999 87.6001 94.7999Z" fill="white"/>
<path d="M66.8999 94.7999H54.2999C53.7599 94.7999 53.3999 95.1599 53.3999 95.6999C53.3999 96.2399 53.7599 96.5998 54.2999 96.5998H66.8999C67.4399 96.5998 67.7999 96.2399 67.7999 95.6999C67.7999 95.16 67.4399 94.7999 66.8999 94.7999Z" fill="white"/>
<path d="M66.9 90.3H57C56.46 90.3 56.1 90.66 56.1 91.2C56.1 91.74 56.46 92.0999 57 92.0999H66.9C67.44 92.0999 67.8 91.74 67.8 91.2C67.8 90.66 67.44 90.3 66.9 90.3Z" fill="white"/>
<path d="M68.7001 85.8H56.1C55.56 85.8 55.2001 86.16 55.2001 86.7C55.2001 87.24 55.56 87.5999 56.1 87.5999H68.7001C69.2401 87.5999 69.6 87.24 69.6 86.7C69.6 86.16 69.2401 85.8 68.7001 85.8Z" fill="white"/>
<path d="M78.6 68.7C78.6 69.24 78.96 69.5999 79.5 69.5999H85.8C86.34 69.5999 86.7 69.24 86.7 68.7C86.7 68.16 86.34 67.8 85.8 67.8H79.5001C78.9601 67.7999 78.6 68.16 78.6 68.7Z" fill="white"/>
</svg>
