<svg width="15" height="15" viewBox="0 0 15 15" fill="none" xmlns="http://www.w3.org/2000/svg">
<path d="M8.68501 9.13249L11.0258 5.89649C11.0975 5.79724 11.0868 5.66024 10.9998 5.57324C10.9128 5.48674 10.7758 5.47574 10.6765 5.54724L7.44001 7.88874C7.22901 8.04224 7.09626 8.27949 7.07601 8.53974C7.05576 8.79999 7.15001 9.05474 7.33426 9.23899C7.50251 9.40724 7.72601 9.49999 7.96351 9.49999C8.24801 9.49999 8.51751 9.36274 8.68501 9.13249Z" fill="#BC0C0C"/>
<path d="M13.6335 4.891C13.631 4.88575 13.631 4.88025 13.6282 4.875C13.6252 4.87 13.6205 4.86725 13.6172 4.8625C13.3645 4.429 13.0655 4.02575 12.726 3.66025L13.2627 3.1235L13.6162 3.477L14.6767 2.4165L13.6162 1.35575L12.5555 2.4165L12.9092 2.77L12.3725 3.30675C12.007 2.96725 11.604 2.668 11.1702 2.41525C11.1655 2.412 11.1627 2.40725 11.1577 2.40425C11.1525 2.40125 11.147 2.4015 11.1417 2.39875C10.3685 1.95325 9.49973 1.6565 8.57373 1.54775V1.25H8.94873C9.29348 1.25 9.57373 0.96975 9.57373 0.625C9.57373 0.28025 9.29298 0 8.94823 0H6.69823C6.35348 0 6.07323 0.28025 6.07323 0.625C6.07323 0.96975 6.35348 1.25 6.69823 1.25H7.07323V1.539C6.80323 1.56775 6.53373 1.61175 6.26723 1.67275C6.13273 1.7035 6.04848 1.83775 6.07948 1.97225C6.11023 2.10675 6.24448 2.19075 6.37898 2.16C6.61548 2.10575 6.85448 2.0655 7.09398 2.03875L7.34173 2.02C7.42548 2.01375 7.50048 2.00925 7.57298 2.00575V2.5C7.57298 2.63825 7.68473 2.75 7.82298 2.75C7.96123 2.75 8.07298 2.63825 8.07298 2.5V2.0075C9.01323 2.05075 9.89923 2.30325 10.687 2.71875L10.4405 3.14575C10.3715 3.2655 10.4125 3.41825 10.532 3.48725C10.5712 3.51 10.6142 3.52075 10.6567 3.52075C10.7432 3.52075 10.8272 3.47575 10.8735 3.39575L11.1192 2.96975C11.9015 3.466 12.566 4.1305 13.0622 4.91275L12.6365 5.1585C12.5175 5.2275 12.4765 5.38025 12.5457 5.5C12.5922 5.58025 12.676 5.625 12.7625 5.625C12.805 5.625 12.848 5.61425 12.8872 5.5915L13.314 5.345C13.7352 6.144 13.9885 7.0445 14.0262 7.99975H13.5325C13.3942 7.99975 13.2825 8.1115 13.2825 8.24975C13.2825 8.388 13.3942 8.49975 13.5325 8.49975H14.0262C13.9885 9.455 13.7352 10.3555 13.314 11.1545L12.8872 10.908C12.7677 10.8387 12.6147 10.8795 12.5457 10.9995C12.4767 11.1193 12.5177 11.272 12.6372 11.341L13.063 11.5868C12.5667 12.369 11.9022 13.0335 11.12 13.5297L10.8742 13.104C10.805 12.984 10.6517 12.943 10.5327 13.0125C10.413 13.0815 10.372 13.2345 10.4412 13.354L10.6877 13.7808C9.89998 14.1962 9.01398 14.4487 8.07373 14.492V14C8.07373 13.8617 7.96198 13.75 7.82373 13.75C7.68548 13.75 7.57373 13.8617 7.57373 14V14.494C7.17448 14.4803 6.77398 14.4303 6.37973 14.3398C6.24523 14.3085 6.11098 14.393 6.08023 14.5275C6.04923 14.662 6.13348 14.7962 6.26798 14.827C6.76698 14.942 7.27673 15 7.78248 15C7.79473 15 7.80648 14.9992 7.81873 14.999C7.82048 14.999 7.82173 15 7.82323 15C7.82523 15 7.82698 14.9987 7.82898 14.9987C9.03073 14.9905 10.1582 14.666 11.1337 14.1055C11.1415 14.102 11.1497 14.1003 11.1572 14.0957C11.1622 14.0927 11.165 14.088 11.1697 14.0848C12.1795 13.4963 13.0232 12.6535 13.613 11.6445C13.6177 11.6377 13.6237 11.6325 13.628 11.625C13.631 11.6198 13.6307 11.6143 13.6332 11.609C14.2042 10.619 14.5325 9.4725 14.5325 8.25C14.5325 7.0275 14.2042 5.881 13.6335 4.891Z" fill="#BC0C0C"/>
<path d="M5.57324 3.25H4.32324C4.04724 3.25 3.82324 3.474 3.82324 3.75C3.82324 4.026 4.04724 4.25 4.32324 4.25H5.57324C5.84924 4.25 6.07324 4.026 6.07324 3.75C6.07324 3.474 5.84924 3.25 5.57324 3.25Z" fill="#BC0C0C"/>
<path d="M5.57324 5H3.07324C2.79724 5 2.57324 5.224 2.57324 5.5C2.57324 5.776 2.79724 6 3.07324 6H5.57324C5.84924 6 6.07324 5.776 6.07324 5.5C6.07324 5.224 5.84924 5 5.57324 5Z" fill="#BC0C0C"/>
<path d="M5.57324 6.75H1.82324C1.54724 6.75 1.32324 6.974 1.32324 7.25C1.32324 7.526 1.54724 7.75 1.82324 7.75H5.57324C5.84924 7.75 6.07324 7.526 6.07324 7.25C6.07324 6.974 5.84924 6.75 5.57324 6.75Z" fill="#BC0C0C"/>
<path d="M5.57324 8.5H0.823242C0.547242 8.5 0.323242 8.724 0.323242 9C0.323242 9.276 0.547242 9.5 0.823242 9.5H5.57324C5.84924 9.5 6.07324 9.276 6.07324 9C6.07324 8.724 5.84924 8.5 5.57324 8.5Z" fill="#BC0C0C"/>
<path d="M5.57324 10.25H2.32324C2.04724 10.25 1.82324 10.474 1.82324 10.75C1.82324 11.026 2.04724 11.25 2.32324 11.25H5.57324C5.84924 11.25 6.07324 11.026 6.07324 10.75C6.07324 10.474 5.84924 10.25 5.57324 10.25Z" fill="#BC0C0C"/>
<path d="M5.57324 12H3.82324C3.54724 12 3.32324 12.224 3.32324 12.5C3.32324 12.776 3.54724 13 3.82324 13H5.57324C5.84924 13 6.07324 12.776 6.07324 12.5C6.07324 12.224 5.84924 12 5.57324 12Z" fill="#BC0C0C"/>
</svg>
