<svg width="15" height="15" viewBox="0 0 15 15" fill="none" xmlns="http://www.w3.org/2000/svg">
<path d="M3.55205 5.92158H11.4477C11.6291 5.92158 11.7767 5.77426 11.7767 5.59257C11.7767 5.41173 11.6291 5.26384 11.4477 5.26384H11.4308C11.2821 3.45825 9.91785 1.99968 8.15788 1.70419V1.23378H7.58212V0.082252C7.58212 0.0374641 7.54522 0 7.49987 0C7.45452 0 7.41761 0.0374641 7.41761 0.082252V1.2335H6.84213V1.70391C5.08217 1.9994 3.71825 3.45796 3.56867 5.26356H3.55205C3.37065 5.26356 3.22333 5.41145 3.22333 5.59229C3.22333 5.77426 3.37065 5.92158 3.55205 5.92158Z" fill="#BBC2FF"/>
<path d="M13.0927 14.1778H12.6815V10.3942H13.0927C13.3203 10.3942 13.504 10.2111 13.504 9.98291C13.504 9.75672 13.3203 9.57166 13.0927 9.57166H1.90729C1.68025 9.57166 1.49603 9.75672 1.49603 9.98291C1.49603 10.2111 1.68025 10.3942 1.90729 10.3942H2.31855V14.1778H1.90729C1.68025 14.1778 1.49603 14.3626 1.49603 14.5887C1.49603 14.8172 1.68025 15 1.90729 15H13.0927C13.3203 15 13.504 14.8172 13.504 14.5887C13.504 14.3631 13.3203 14.1778 13.0927 14.1778ZM11.5299 14.1778H10.8392V10.3942H11.5299V14.1778ZM7.15452 10.3942H7.84521V14.1778H7.15452V10.3942ZM6.00327 14.1778H5.3123V10.3942H6.00327V14.1778ZM8.99702 10.3942H9.68771V14.1778H8.99702V10.3942ZM3.4698 10.3942H4.16049V14.1778H3.4698V10.3942Z" fill="#BBC2FF"/>
<path d="M3.05881 7.31987H3.47317C3.47317 7.32606 3.46979 7.3317 3.46979 7.3362V9.11138H4.29231V7.3362C4.29231 7.33029 4.28921 7.32437 4.28921 7.31987H4.67991C4.67991 7.32606 4.67681 7.3317 4.67681 7.3362V9.11138H5.49905V7.3362C5.49905 7.33029 5.49595 7.32437 5.49595 7.31987H5.88664C5.88664 7.32606 5.88355 7.3317 5.88355 7.3362V9.11138H6.70607V7.3362C6.70607 7.33029 6.70269 7.32437 6.70269 7.31987H7.09338C7.09338 7.32606 7.09 7.3317 7.09 7.3362V9.11138H7.91252V7.3362C7.91252 7.33029 7.90914 7.32437 7.90914 7.31987H8.29984C8.29984 7.32606 8.29646 7.3317 8.29646 7.3362V9.11138H9.11898V7.3362C9.11898 7.33029 9.11588 7.32437 9.11588 7.31987H9.50658C9.50658 7.32606 9.5032 7.3317 9.5032 7.3362V9.11138H10.3257V7.3362C10.3257 7.33029 10.3223 7.32437 10.3223 7.31987H10.713C10.713 7.32606 10.7099 7.3317 10.7099 7.3362V9.11138H11.5325V7.3362C11.5325 7.33029 11.5291 7.32437 11.5291 7.31987H11.9434C12.171 7.31987 12.3547 7.13649 12.3547 6.9086C12.3547 6.68129 12.171 6.49734 11.9434 6.49734H3.06135C2.83459 6.49734 2.65009 6.68129 2.65009 6.9086C2.65009 7.13536 2.83149 7.31987 3.05881 7.31987Z" fill="#BBC2FF"/>
</svg>
