<svg width="36" height="36" viewBox="0 0 36 36" fill="none" xmlns="http://www.w3.org/2000/svg">
<g clip-path="url(#clip0)">
<path d="M22.4998 19.5026C21.6703 19.5026 20.9999 20.1747 20.9999 21.0025V27.0026C20.9999 27.8291 20.3278 28.5025 19.4997 28.5025H14.9998V6.00275C14.9998 4.72175 14.1838 3.57727 12.9569 3.15127L12.5127 3.00269H19.4997C20.3278 3.00269 20.9999 3.67614 20.9999 4.50285V9.00281C20.9999 9.83062 21.6703 10.5027 22.4998 10.5027C23.3292 10.5027 23.9997 9.83062 23.9997 9.00281V4.50285C23.9997 2.02189 21.9807 0.00289917 19.4997 0.00289917H3.37496C3.31784 0.00289917 3.27005 0.0284422 3.21457 0.0358578C3.14233 0.0298154 3.07339 0.00289917 3.00006 0.00289917C1.34554 0.00289917 0 1.34816 0 3.00269V30.0024C0 31.2834 0.816001 32.4279 2.04289 32.8539L11.07 35.863C11.3759 35.9575 11.6803 36.0025 12 36.0025C13.6545 36.0025 14.9998 34.657 14.9998 33.0025V31.5026H19.4997C21.9807 31.5026 23.9997 29.4836 23.9997 27.0026V21.0025C23.9997 20.1747 23.3292 19.5026 22.4998 19.5026Z" fill="white"/>
<path d="M35.5602 13.9397L29.5601 7.9399C29.1313 7.51089 28.4861 7.3818 27.9253 7.61416C27.3658 7.84679 26.9997 8.39418 26.9997 9.00035V13.5003H20.9999C20.1718 13.5003 19.4997 14.1721 19.4997 15.0002C19.4997 15.8283 20.1718 16.5001 20.9999 16.5001H26.9997V21C26.9997 21.6062 27.3658 22.1536 27.9253 22.3862C28.4861 22.6186 29.1313 22.4895 29.5601 22.0608L35.5602 16.0606C36.1466 15.4742 36.1466 14.5261 35.5602 13.9397Z" fill="white"/>
</g>
<defs>
<clipPath id="clip0">
<rect width="36" height="36" fill="white"/>
</clipPath>
</defs>
</svg>
