<svg width="15" height="15" viewBox="0 0 15 15" fill="none" xmlns="http://www.w3.org/2000/svg">
<path d="M7.50002 8.75051C11.5996 8.75051 12.4201 7.03009 12.4139 7.02798C11.8195 -0.189504 8.21348 3.87408 7.50002 3.87408C6.78653 3.87408 3.1805 -0.189471 2.58616 7.02798C2.57998 7.03012 3.40045 8.75051 7.50002 8.75051Z" fill="#FFBBBB"/>
<path d="M13.2214 7.35312C12.9474 7.90671 12.3812 8.40169 11.5619 8.79101C10.4699 9.30989 9.0274 9.59557 7.50005 9.59557C5.97273 9.59557 4.5302 9.30989 3.43821 8.79101C2.61895 8.40169 2.05268 7.90674 1.77863 7.35312C0.669348 7.87328 0 8.54654 0 9.28208C3.28676e-05 10.93 3.35785 12.2658 7.50002 12.2658C11.6422 12.2658 15 10.9299 15 9.28208C15 8.54657 14.3307 7.87322 13.2214 7.35312Z" fill="#FFBBBB"/>
</svg>
