<svg width="25" height="25" viewBox="0 0 25 25" fill="none" xmlns="http://www.w3.org/2000/svg">
<path d="M24.0234 21.4355H8.78906C8.24966 21.4355 7.8125 20.9984 7.8125 20.459C7.8125 19.9196 8.24966 19.4824 8.78906 19.4824H24.0234C24.5628 19.4824 25 19.9196 25 20.459C25 20.9984 24.5628 21.4355 24.0234 21.4355ZM3.90625 22.4121C3.90625 21.8727 3.46909 21.4355 2.92969 21.4355C2.39124 21.4355 1.95312 20.9974 1.95312 20.459C1.95312 19.9205 2.39124 19.4824 2.92969 19.4824C3.46813 19.4824 3.90625 19.9205 3.90625 20.459C3.90625 20.9984 4.34341 21.4355 4.88281 21.4355C5.42221 21.4355 5.85938 20.9984 5.85938 20.459C5.85938 18.8435 4.54521 17.5293 2.92969 17.5293C1.31416 17.5293 0 18.8435 0 20.459C0 22.0745 1.31416 23.3887 2.92969 23.3887C3.46909 23.3887 3.90625 22.9515 3.90625 22.4121ZM25 12.3047C25 11.7653 24.5628 11.3281 24.0234 11.3281H8.78906C8.24966 11.3281 7.8125 11.7653 7.8125 12.3047C7.8125 12.8441 8.24966 13.2812 8.78906 13.2812H24.0234C24.5628 13.2812 25 12.8441 25 12.3047ZM3.90625 14.2578C3.90625 13.7184 3.46909 13.2812 2.92969 13.2812C2.39124 13.2812 1.95312 12.8431 1.95312 12.3047C1.95312 11.7662 2.39124 11.3281 2.92969 11.3281C3.46813 11.3281 3.90625 11.7662 3.90625 12.3047C3.90625 12.8441 4.34341 13.2812 4.88281 13.2812C5.42221 13.2812 5.85938 12.8441 5.85938 12.3047C5.85938 10.6892 4.54521 9.375 2.92969 9.375C1.31416 9.375 0 10.6892 0 12.3047C0 13.9202 1.31416 15.2344 2.92969 15.2344C3.46909 15.2344 3.90625 14.7972 3.90625 14.2578ZM25 4.49219C25 3.95279 24.5628 3.51562 24.0234 3.51562H8.78906C8.24966 3.51562 7.8125 3.95279 7.8125 4.49219C7.8125 5.03159 8.24966 5.46875 8.78906 5.46875H24.0234C24.5628 5.46875 25 5.03159 25 4.49219ZM3.90625 6.44531C3.90625 5.90591 3.46909 5.46875 2.92969 5.46875C2.39124 5.46875 1.95312 5.03063 1.95312 4.49219C1.95312 3.95374 2.39124 3.51562 2.92969 3.51562C3.46813 3.51562 3.90625 3.95374 3.90625 4.49219C3.90625 5.03159 4.34341 5.46875 4.88281 5.46875C5.42221 5.46875 5.85938 5.03159 5.85938 4.49219C5.85938 2.87666 4.54521 1.5625 2.92969 1.5625C1.31416 1.5625 0 2.87666 0 4.49219C0 6.10771 1.31416 7.42188 2.92969 7.42188C3.46909 7.42188 3.90625 6.98471 3.90625 6.44531Z" fill="white"/>
</svg>
