<svg width="21" height="20" viewBox="0 0 21 20" fill="none" xmlns="http://www.w3.org/2000/svg">
<path d="M19.2202 11.0149C19.6518 11.0149 20.0015 10.6651 20.0015 10.2336V2.34367C20.0015 1.58217 19.6298 0.865785 19.0073 0.427274C18.3846 -0.0111972 17.5849 -0.11976 16.8679 0.136705C16.8459 0.144596 16.8242 0.153503 16.8029 0.163348L10.5436 3.06162C9.16551 3.69964 7.69688 4.02767 6.17841 4.0365L3.12274 4.05431C1.40066 4.05572 0 5.45716 0 7.17959V9.211C0 10.5969 0.91593 11.79 2.18767 12.1915V17.6252C2.18767 18.261 2.4491 18.8822 2.90491 19.3293C3.34682 19.7629 3.92304 20 4.53207 20C4.54699 20 4.56203 19.9998 4.57699 19.9995C5.19364 19.9878 5.77142 19.7388 6.20392 19.2984C6.63704 18.8574 6.87553 18.2742 6.87553 17.656V12.3335C8.19427 12.4329 9.49788 12.7819 10.6866 13.3577L16.7833 16.3106C16.8073 16.3223 16.8319 16.3326 16.857 16.3417C17.5749 16.6027 18.377 16.4968 19.0025 16.0585C19.628 15.6202 20.0015 14.9026 20.0015 14.1388C20.0015 13.7072 19.6518 13.3575 19.2202 13.3575C18.7887 13.3575 18.4389 13.7072 18.4389 14.1388C18.4389 14.3972 18.3175 14.6304 18.1059 14.7787C17.9034 14.9205 17.6561 14.9582 17.4224 14.8839L11.3677 11.9513C9.96796 11.2734 8.42929 10.8692 6.87553 10.7672V5.57595C8.37502 5.48321 9.82674 5.11553 11.2001 4.4797L17.4222 1.59865C17.6567 1.52423 17.9049 1.56221 18.1075 1.70495C18.3181 1.85328 18.4389 2.08611 18.4389 2.34375V10.2337C18.4389 10.6651 18.7887 11.0149 19.2202 11.0149ZM5.31291 17.656C5.31291 18.0787 4.96941 18.4291 4.54711 18.4372C4.34506 18.441 4.14993 18.3617 3.99922 18.2138C3.84104 18.0586 3.75029 17.8441 3.75029 17.6252V11.5491C3.75029 11.1378 3.4314 10.7969 3.02098 10.7695C2.20322 10.7149 1.56262 10.0304 1.56262 9.211V7.17959C1.56262 6.31796 2.26361 5.61697 3.12524 5.61697H3.12981L5.31291 5.60424V17.656Z" fill="#151515"/>
</svg>
