<svg width="46" height="46" viewBox="0 0 46 46" fill="none" xmlns="http://www.w3.org/2000/svg">
<g clip-path="url(#clip0)">
<path d="M43.6166 26.4829V30.129C43.6166 38.8901 36.5142 45.9924 27.7531 45.9924C17.445 45.9924 17.3179 46.0638 15.5819 45.7698C8.08964 44.5051 2.3833 37.9855 2.3833 30.1335V11.1016C2.3833 8.91269 4.15714 7.13755 6.34732 7.13755C8.5375 7.13755 10.3123 8.91232 10.3123 11.1016V7.93035C10.3123 5.30464 12.4403 3.1726 15.07 3.1726C17.6979 3.1726 19.8278 5.30251 19.8278 7.93035V4.75821C19.8278 2.13046 21.9576 0.000453949 24.5855 0.000453949C27.2134 0.000453949 29.3433 2.13036 29.3433 4.75821C29.3433 3.44429 29.8755 2.25462 30.737 1.39412C33.7526 -1.62475 38.8588 0.596309 38.8588 4.84667C38.8588 16.6163 38.8614 15.9202 38.8533 16.0859C38.8529 16.0951 38.5966 15.6308 42.2053 21.4952C43.1279 22.9955 43.6166 24.722 43.6166 26.4829Z" fill="#F9CFAC"/>
<path d="M29.3433 4.75821V11.9973H21.4968V1.13912C24.5418 -1.46406 29.3433 0.669467 29.3433 4.75821Z" fill="#FFE4CC"/>
<path d="M19.8278 7.93037V11.9973H19.035C16.5237 11.9973 14.2135 14.0236 14.3932 17.1371C14.5119 19.28 15.4178 21.217 16.8263 22.6626C16.5185 22.7841 16.1949 22.875 15.8601 22.9315C13.6069 22.5569 11.8887 20.5985 11.8887 18.2387V4.39288C14.9223 1.66294 19.8278 3.80407 19.8278 7.93037Z" fill="#FFE4CC"/>
<path d="M10.3122 11.1016V20.6171C10.3122 22.5866 8.87774 24.2195 6.99634 24.5292C5.11586 24.2195 3.6814 22.5866 3.6814 20.6171V8.16856C6.19779 5.87778 10.3122 7.64439 10.3122 11.1016Z" fill="#FFE4CC"/>
<path d="M38.8587 4.75821V13.9214C37.4502 12.7029 35.6254 11.9973 33.7282 11.9973H31.1978V0.988814C34.273 -1.38672 38.8587 0.7723 38.8587 4.75821Z" fill="#FFE4CC"/>
<path d="M43.6166 26.4829V30.1335C43.6166 35.2112 41.2298 39.7316 37.518 42.6339C35.3093 43.8013 32.7899 44.4624 30.1175 44.4624H20.6067C11.8823 44.4624 4.7478 37.3963 4.7478 28.6035V25.8255C7.2628 26.5993 9.97048 25.461 11.1857 23.1197C12.2521 23.971 13.6022 24.48 15.07 24.48C16.4175 24.48 17.2355 24.0966 18.1114 23.7493C20.6474 25.502 22.8577 25.2728 25.1669 25.2728C21.7546 27.82 19.4615 31.7868 19.1694 36.2896C19.1448 36.7341 19.4917 37.0712 19.8983 37.0787C20.2933 37.0852 20.6252 36.781 20.6503 36.3869C21.1055 29.3537 26.9528 23.7892 34.101 23.7892H22.9999C19.0585 23.7892 15.8628 20.5958 15.8628 16.6531C15.8628 14.9005 17.2834 13.4809 19.035 13.4809H33.7283C35.9314 13.4809 37.977 14.6233 39.1314 16.5001L42.2053 21.4952C43.1279 22.9955 43.6166 24.722 43.6166 26.4829Z" fill="#FFE4CC"/>
</g>
<defs>
<clipPath id="clip0">
<rect width="46" height="46" fill="white"/>
</clipPath>
</defs>
</svg>
