<?xml version="1.0"?>
<svg xmlns="http://www.w3.org/2000/svg" id="Solid" height="512px" viewBox="0 0 512 512" width="512px"><g><path d="m94.225 304.638 42.456-42.456-81.458-9.051-21.737 21.736 12.76 29.771z" data-original="#000000" class="active-path" data-old_color="#000000" fill="#FFFFFF"/><path d="m279.777 141.933a8 8 0 0 1 4.438-1.344h25.571l15.675-19.595-33.936-3.77-48.679 27.044a7.983 7.983 0 0 1 -4.549.979l-132.068-11.005-18.782 18.782 160.634 10.039z" data-original="#000000" class="active-path" data-old_color="#000000" fill="#FFFFFF"/><path d="m188.049 120.305-11.314-11.314-13.912 13.912 20.887 1.74z" data-original="#000000" class="active-path" data-old_color="#000000" fill="#FFFFFF"/><path d="m110.794 285.324h64v32h-64z" transform="matrix(.707 -.707 .707 .707 -171.246 189.23)" data-original="#000000" class="active-path" data-old_color="#000000" fill="#FFFFFF"/><path d="m313.422 161.656a26.269 26.269 0 0 0 36.923 36.922l3.6-2.883-37.643-37.643z" data-original="#000000" class="active-path" data-old_color="#000000" fill="#FFFFFF"/><path d="m389.964 166.882 5.788-34.726a13.823 13.823 0 0 0 -15.908-15.908l-34.725 5.787-18.757 23.446 40.158 40.157z" data-original="#000000" class="active-path" data-old_color="#000000" fill="#FFFFFF"/><path d="m200.324 108.029a47 47 0 0 0 12.8-24.114 47.007 47.007 0 0 0 -24.115 12.8l-.961.961 11.314 11.314z" data-original="#000000" class="active-path" data-old_color="#000000" fill="#FFFFFF"/><path d="m90.642 339.682 13.795 13.794 14.141-8.485-19.451-19.451z" data-original="#000000" class="active-path" data-old_color="#000000" fill="#FFFFFF"/><path d="m415.284 322.99a47 47 0 0 0 12.8-24.115 47 47 0 0 0 -24.113 12.8l-.962.962 11.313 11.313z" data-original="#000000" class="active-path" data-old_color="#000000" fill="#FFFFFF"/><path d="m371.411 202.214v25.571a8 8 0 0 1 -1.344 4.437l-21.13 31.7 10.039 160.634 18.783-18.782-11.007-132.074a8 8 0 0 1 .979-4.55l27.044-48.68-3.77-33.935z" data-original="#000000" class="active-path" data-old_color="#000000" fill="#FFFFFF"/><path d="m389.098 349.176 13.911-13.911-11.313-11.313-4.339 4.338z" data-original="#000000" class="active-path" data-old_color="#000000" fill="#FFFFFF"/><path d="m403.2 108.794a29.493 29.493 0 0 1 8.331 25.993l-.9 5.381 20.208-26.943a221.656 221.656 0 0 0 34.106-66.178 221.665 221.665 0 0 0 -66.177 34.107l-26.938 20.209 5.383-.9a29.485 29.485 0 0 1 25.987 8.331z" data-original="#000000" class="active-path" data-old_color="#000000" fill="#FFFFFF"/><path d="m154.991 248.118a8 8 0 0 1 4.774 2.29l11.313 11.314 11.314-11.314 11.314 11.314-11.314 11.318 11.314 11.314a8 8 0 0 1 0 11.313l-56.568 56.568a88.6 88.6 0 0 0 -24.463 47.09 88.6 88.6 0 0 0 47.086-24.459l56.569-56.569a8 8 0 0 1 11.314 0l11.314 11.314 11.312-11.314 11.315 11.314-11.314 11.314 11.314 11.314a7.963 7.963 0 0 1 2.29 4.774l3.911 35.2 53.17 42.536h22.619l-10.775-172.524a7.993 7.993 0 0 1 1.328-4.937l21.283-31.926v-10.894a42.072 42.072 0 0 1 -45.146-1.419l-37.365 37.363-11.312-11.312 37.363-37.364a42.061 42.061 0 0 1 -1.412-45.146h-10.9l-31.925 21.284a8 8 0 0 1 -4.438 1.343c-.166 0-.332 0-.5-.015l-172.521-10.784v22.62l42.535 53.169zm95.282 2.294 11.315 11.314-11.314 11.314-11.314-11.314z" data-original="#000000" class="active-path" data-old_color="#000000" fill="#FFFFFF"/><path d="m178.676 353.206h64v32h-64z" transform="matrix(.707 -.707 .707 .707 -199.362 257.108)" data-original="#000000" class="active-path" data-old_color="#000000" fill="#FFFFFF"/><path d="m207.362 417.775v47.979l29.772 12.759 21.735-21.735-9.051-81.459z" data-original="#000000" class="active-path" data-old_color="#000000" fill="#FFFFFF"/><path d="m158.524 407.564 13.794 13.794 14.142-8.485-19.451-19.451z" data-original="#000000" class="active-path" data-old_color="#000000" fill="#FFFFFF"/></g> </svg>
