<?xml version="1.0"?>
<svg xmlns="http://www.w3.org/2000/svg" xmlns:xlink="http://www.w3.org/1999/xlink" version="1.1" id="Capa_1" x="0px" y="0px" viewBox="0 0 512 512" style="enable-background:new 0 0 512 512;" xml:space="preserve" width="512px" height="512px" class=""><g><g>
	<path d="M481,144.791v-25.049c0-33.442-21.094-62.681-51.313-71.089c-32.725-9.126-67.397,6.196-82.485,36.387l-41.415,80.845   c-89.268-2.314-172.866-38.174-236.25-101.558L25.605,20.396c-4.277-4.292-10.708-5.581-16.348-3.252   C3.647,19.459,0,24.937,0,31.002v92.739c0,70.723,40.869,133.813,101.279,164.722l12.466,27.056   c6.196,13.462,5.156,28.345-2.842,40.84c-7.983,12.48-21.079,19.644-35.903,19.644H45c-8.291,0-15,6.709-15,15   c0,57.891,47.109,105,105,105h30c8.291,0,15-6.709,15-15v-60c0-8.276,6.724-15,15-15c124.072,0,226-100.928,226-225v-15h38.789   l26.605,26.605c5.859,5.859,15.352,5.859,21.211,0s5.859-15.352,0-21.211L481,144.791z" data-original="#000000" class="active-path" data-old_color="#000000" fill="#FFFFFF"/>
	<path d="M194.341,19.664c-6.255-1.011-12.1,2.109-15.117,7.471c-11.825,20.912-19.252,43.334-22.885,66.403   c35.57,20.603,74.927,33.816,116.036,39.335c-32.095-25.514-55.562-60.98-65.524-101.9C205.4,24.996,200.435,20.499,194.341,19.664   z" data-original="#000000" class="active-path" data-old_color="#000000" fill="#FFFFFF"/>
</g></g> </svg>
