<?xml version="1.0"?>
<svg xmlns="http://www.w3.org/2000/svg" id="Layer_1" height="512px" viewBox="0 0 512 512" width="512px" data-name="Layer 1" class=""><g><path d="m80.68 225.234 144.554-144.554-28.741-28.742a102.216 102.216 0 0 0 -144.555 144.555z" data-original="#000000" class="active-path" data-old_color="#000000" fill="#FFFFFF"/><path d="m490 387.784a101.547 101.547 0 0 0 -29.938-72.277l-47.8-47.8-144.55 144.559 47.8 47.8a102.216 102.216 0 0 0 174.488-72.282z" data-original="#000000" class="active-path" data-old_color="#000000" fill="#FFFFFF"/><path d="m233.719 89.165-144.554 144.555 170.062 170.061 144.554-144.554zm-48.2 96.354a12.024 12.024 0 0 1 16.987 0 12.012 12.012 0 1 1 -16.988 0zm16.988 125.273a12.012 12.012 0 1 1 0-16.987 11.975 11.975 0 0 1 -.001 16.987zm91.3-125.274a12.007 12.007 0 1 1 0 16.988 12.024 12.024 0 0 1 -.002-16.988zm-37.157 71.131a12.011 12.011 0 1 1 -.117-17.094c.038.037.08.069.117.106a12.011 12.011 0 0 1 0 16.987zm45.65 57.656a12.009 12.009 0 1 1 8.493-20.5 12.007 12.007 0 0 1 -8.494 20.5z" data-original="#000000" class="active-path" data-old_color="#000000" fill="#FFFFFF"/></g> </svg>
