<?xml version="1.0"?>
<svg xmlns="http://www.w3.org/2000/svg" xmlns:xlink="http://www.w3.org/1999/xlink" version="1.1" id="Capa_1" x="0px" y="0px" width="512px" height="512px" viewBox="0 0 575.307 575.307" style="enable-background:new 0 0 575.307 575.307;" xml:space="preserve" class=""><g><g>
	<path d="M573.752,235.608c0,0-75.606-131.653-75.631-131.666c-1.628-2.668-4.565-4.456-7.932-4.456   c-0.354,0-0.722,0.024-1.064,0.061c-0.024-0.012-155.718,22.632-155.718,22.632S273.15,11.494,273.138,11.494   c-1.567-2.791-4.517-4.676-7.919-4.676c-1.995,0-3.843,0.661-5.349,1.775L38.228,169.953c-1.065,0.759-1.946,1.762-2.595,2.913   L1.129,235.192c-1.873,3.39-1.383,7.601,1.236,10.465c1.75,1.897,4.186,2.925,6.659,2.925c1.249,0,2.485-0.245,3.66-0.771   l2.265-0.991v225.424c0,3.305,1.799,6.34,4.688,7.906c0,0,159.206,87.236,159.254,87.248c1.249,0.686,2.705,1.09,4.26,1.09   c0.93,0,1.836-0.148,2.68-0.418l359.721-90.783c4.003-1.004,6.818-4.615,6.818-8.752l0.012-221.543l12.081,2.46   c0.6,0.135,1.212,0.196,1.799,0.196c0.05,0,0.099-0.012,0.135-0.012c4.933-0.061,8.911-4.076,8.911-9.008   C575.27,238.766,574.708,237.041,573.752,235.608z M45.878,435.695c0,0.98-0.477,1.91-1.285,2.484   c-0.514,0.332-1.114,0.527-1.726,0.527c-0.343,0-0.71-0.049-1.041-0.195l-18.911-6.953c-1.188-0.428-1.971-1.555-1.971-2.814   V385.23c0-0.895,0.392-1.75,1.089-2.301c0.698-0.576,1.591-0.809,2.473-0.65l18.923,3.539c1.42,0.256,2.448,1.504,2.448,2.961   V435.695z M45.878,365.34c0,0.832-0.355,1.652-0.991,2.229c-0.551,0.514-1.285,0.771-2.02,0.771c-0.098,0-0.196,0-0.282,0   l-18.923-1.838c-1.542-0.17-2.717-1.455-2.717-3.01v-43.525c0-1.555,1.2-2.865,2.766-2.986l18.923-1.555   c0.82-0.074,1.665,0.207,2.289,0.783c0.612,0.551,0.967,1.357,0.967,2.203v46.928H45.878z M45.878,294.947   c0,1.469-1.052,2.719-2.497,2.963l-18.923,3.256c-0.171,0.049-0.331,0.049-0.502,0.049c-0.709,0-1.395-0.244-1.946-0.697   c-0.673-0.564-1.065-1.408-1.065-2.314v-43.5c0-1.273,0.795-2.411,2.007-2.839l18.911-6.671c0.918-0.318,1.946-0.184,2.742,0.379   c0.808,0.563,1.285,1.469,1.285,2.448v46.928H45.878z M94.25,453.504c0,0.98-0.477,1.887-1.297,2.461   c-0.514,0.355-1.114,0.551-1.726,0.551c-0.343,0-0.698-0.074-1.041-0.195l-26.23-9.658c-1.187-0.428-1.971-1.555-1.971-2.814   v-50.895c0-0.906,0.392-1.75,1.089-2.326c0.698-0.562,1.604-0.807,2.473-0.635l26.255,4.92c1.42,0.258,2.448,1.506,2.448,2.961   V453.504L94.25,453.504z M94.25,370.053c0,0.857-0.355,1.652-0.991,2.227c-0.551,0.49-1.261,0.785-2.02,0.785   c-0.098,0-0.196,0-0.282-0.025l-26.255-2.559c-1.542-0.146-2.717-1.443-2.717-2.998v-50.895c0-1.578,1.2-2.863,2.767-3.012   l26.242-2.152c0.833-0.062,1.665,0.219,2.289,0.758c0.624,0.576,0.967,1.383,0.967,2.229V370.053z M94.25,286.6   c0,1.468-1.053,2.718-2.497,2.962l-26.254,4.529c-0.171,0.035-0.331,0.049-0.502,0.049c-0.71,0-1.396-0.258-1.934-0.711   c-0.686-0.574-1.077-1.406-1.077-2.301v-50.894c0-1.273,0.796-2.411,2.007-2.839l26.255-9.266c0.918-0.318,1.934-0.184,2.742,0.379   c0.784,0.563,1.273,1.469,1.273,2.448V286.6H94.25z M164.704,479.416c0,0.98-0.478,1.91-1.285,2.461   c-0.514,0.355-1.114,0.551-1.726,0.551c-0.343,0-0.71-0.074-1.04-0.195l-38.838-14.297c-1.187-0.428-1.971-1.555-1.971-2.814   v-61.322c0-0.895,0.392-1.752,1.089-2.314c0.698-0.574,1.604-0.82,2.473-0.648l38.837,7.295c1.42,0.258,2.448,1.506,2.448,2.963   v68.322H164.704z M164.704,376.932c0,0.832-0.355,1.652-0.979,2.215c-0.563,0.502-1.286,0.795-2.02,0.795   c-0.098,0-0.208-0.023-0.293-0.023l-38.838-3.807c-1.53-0.135-2.717-1.432-2.717-2.986v-61.322c0-1.58,1.212-2.865,2.767-3.012   l38.837-3.207c0.833-0.072,1.677,0.221,2.277,0.797c0.624,0.574,0.967,1.357,0.967,2.227V376.932z M164.704,274.434   c0,1.457-1.053,2.717-2.485,2.962l-38.837,6.708c-0.184,0.025-0.343,0.037-0.514,0.037c-0.71,0-1.396-0.245-1.934-0.71   c-0.685-0.575-1.077-1.408-1.077-2.301v-61.334c0-1.273,0.796-2.412,2.008-2.84l38.837-13.696c0.918-0.318,1.946-0.184,2.742,0.379   s1.273,1.481,1.273,2.448v68.348H164.704z M268.254,473.371c0,1.455-1.065,2.729-2.509,2.961l-61.812,10.465   c-0.171,0.025-0.331,0.049-0.502,0.049c-0.709,0-1.383-0.256-1.934-0.721c-0.686-0.576-1.065-1.408-1.065-2.301V413.32   c0-1.555,1.2-2.84,2.754-2.986l61.812-5.361c0.833-0.072,1.665,0.221,2.289,0.797c0.624,0.562,0.979,1.383,0.979,2.215v65.387   H268.254z M268.254,375.328c0,1.604-1.273,2.926-2.876,2.998l-61.8,2.803c-0.049,0-0.098,0-0.146,0   c-0.759,0-1.518-0.318-2.081-0.844c-0.587-0.562-0.918-1.359-0.918-2.18v-70.502c0-0.807,0.331-1.59,0.918-2.154   c0.587-0.562,1.383-0.881,2.203-0.855l61.812,2.373c1.616,0.037,2.889,1.385,2.889,2.986V375.328z M268.254,277.273   c0,0.832-0.355,1.64-0.967,2.215c-0.563,0.514-1.285,0.795-2.044,0.795c-0.086,0-0.159,0-0.233-0.012l-61.812-4.908   c-1.554-0.135-2.766-1.432-2.766-2.999v-70.49c0-0.881,0.379-1.726,1.053-2.301s1.566-0.808,2.436-0.686l61.8,10.049   c1.457,0.232,2.534,1.481,2.534,2.962V277.273z M345.758,460.25c0,1.455-1.065,2.705-2.51,2.961l-49.854,8.434   c-0.171,0.025-0.33,0.049-0.501,0.049c-0.71,0-1.384-0.258-1.935-0.723c-0.686-0.574-1.064-1.406-1.064-2.301v-63.061   c0-1.578,1.199-2.863,2.754-3.01l49.854-4.309c0.832-0.074,1.677,0.219,2.289,0.783c0.624,0.574,0.979,1.357,0.979,2.203v58.973   H345.758z M345.758,371.84c0,1.592-1.273,2.938-2.864,2.986l-49.854,2.252c-0.049,0-0.098,0-0.146,0   c-0.76,0-1.519-0.281-2.081-0.809c-0.588-0.574-0.918-1.369-0.918-2.178v-63.098c0-0.807,0.33-1.578,0.918-2.154   c0.587-0.574,1.371-0.881,2.203-0.832l49.854,1.885c1.615,0.074,2.889,1.383,2.889,3.023V371.84L345.758,371.84z M345.758,283.442   c0,0.832-0.343,1.64-0.967,2.215c-0.563,0.514-1.285,0.808-2.044,0.808c-0.074,0-0.159-0.012-0.245-0.012l-49.854-3.965   c-1.555-0.123-2.767-1.432-2.767-2.999v-63.061c0-0.881,0.38-1.726,1.053-2.301c0.686-0.575,1.566-0.808,2.436-0.673l49.854,8.09   c1.457,0.245,2.521,1.493,2.521,2.975v58.923H345.758z M198.829,156.477l-1.824-0.367l68.128-121.617l82.975,152.449   L198.829,156.477z M428.121,498.377c0,1.383-0.942,2.582-2.264,2.912l-38.654,9.756c-0.245,0.074-0.489,0.098-0.734,0.098   c-0.673,0-1.31-0.221-1.849-0.648c-0.734-0.576-1.162-1.432-1.162-2.361V397.52c0-1.518,1.15-2.803,2.656-3l38.653-4.564   c0.832-0.111,1.701,0.172,2.338,0.746c0.648,0.551,1.016,1.383,1.016,2.252V498.377L428.121,498.377z M493.373,435.219   c0,1.48-1.053,2.729-2.497,2.961l-30.832,5.24c-0.172,0.023-0.331,0.049-0.502,0.049c-0.71,0-1.396-0.258-1.935-0.723   c-0.686-0.576-1.077-1.408-1.077-2.301v-49.242c0-1.555,1.2-2.863,2.754-2.998l30.845-2.682c0.833-0.072,1.678,0.221,2.289,0.783   c0.624,0.576,0.967,1.359,0.967,2.229v46.684H493.373z M493.373,365.193c0,1.627-1.273,2.938-2.864,3.012l-30.845,1.383   c-0.037,0-0.086,0-0.135,0c-0.771,0-1.518-0.295-2.081-0.832c-0.6-0.576-0.93-1.348-0.93-2.18v-49.229   c0-0.832,0.33-1.604,0.93-2.18c0.588-0.574,1.371-0.881,2.203-0.832l30.833,1.176c1.615,0.049,2.889,1.383,2.889,3.023V365.193z    M493.373,295.18c0,0.834-0.343,1.641-0.967,2.217c-0.551,0.514-1.273,0.783-2.032,0.783c-0.086,0-0.171,0-0.245,0l-30.845-2.449   c-1.566-0.135-2.766-1.432-2.766-2.998v-49.254c0-0.869,0.392-1.726,1.064-2.289c0.674-0.576,1.567-0.82,2.424-0.686l30.833,5.006   c1.456,0.245,2.521,1.494,2.521,2.975v46.695H493.373z M534.046,428.34c0,1.457-1.053,2.729-2.497,2.961l-26.438,4.469   c-0.172,0.049-0.331,0.049-0.502,0.049c-0.71,0-1.383-0.244-1.934-0.723c-0.686-0.551-1.065-1.408-1.065-2.301v-45.496   c0-1.555,1.199-2.865,2.754-2.998l26.427-2.289c0.832-0.074,1.677,0.219,2.301,0.783c0.624,0.562,0.967,1.357,0.967,2.215v43.33   H534.046z M534.046,363.381c0,1.592-1.273,2.914-2.864,2.988l-26.427,1.199c-0.049,0-0.098,0-0.146,0   c-0.759,0-1.518-0.281-2.081-0.832c-0.587-0.551-0.918-1.336-0.918-2.18v-45.484c0-0.82,0.331-1.604,0.918-2.154   c0.588-0.574,1.384-0.881,2.203-0.832l26.427,1.004c1.615,0.037,2.889,1.383,2.889,2.986V363.381z M534.046,298.412   c0,0.832-0.343,1.627-0.967,2.203c-0.551,0.525-1.273,0.783-2.032,0.783c-0.086,0-0.172,0-0.245,0l-26.438-2.105   c-1.554-0.123-2.766-1.42-2.766-2.986v-45.496c0-0.881,0.379-1.726,1.052-2.289c0.686-0.575,1.567-0.82,2.437-0.686l26.426,4.296   c1.457,0.245,2.521,1.493,2.521,2.974v43.306H534.046z M439.724,205.608l12.032-19.094l38.238-60.588l58.458,101.861   L439.724,205.608z" data-original="#000000" class="active-path" data-old_color="#000000" fill="#FFFFFF"/>
</g></g> </svg>
