<?xml version="1.0"?>
<svg xmlns="http://www.w3.org/2000/svg" xmlns:xlink="http://www.w3.org/1999/xlink" version="1.1" id="Capa_1" x="0px" y="0px" viewBox="0 0 293.876 293.876" style="enable-background:new 0 0 293.876 293.876;" xml:space="preserve" width="512px" height="512px" class=""><g><path d="M289.483,34.925c-5.857-5.857-15.355-5.857-21.213,0L243.684,59.51c-1.417-1.664-2.904-3.284-4.469-4.849  s-3.185-3.052-4.849-4.469l24.586-24.586c5.858-5.857,5.858-15.355,0-21.213c-5.857-5.857-15.355-5.857-21.213,0l-30.598,30.598  c-11.306-3.634-23.444-4.721-35.685-2.999c-25.124,3.532-46.585,18.287-58.881,40.479c-0.646,1.165-1.134,2.412-1.45,3.706  c-2.219,9.071-4.908,17.99-8.042,26.729c-8.738,3.134-17.657,5.823-26.729,8.042c-1.295,0.316-2.541,0.804-3.706,1.449  c-22.192,12.296-36.946,33.757-40.48,58.881c-1.722,12.241-0.635,24.379,3,35.686L4.394,237.739c-5.858,5.858-5.858,15.355,0,21.213  c5.857,5.859,15.355,5.857,21.213,0l24.762-24.763c1.417,1.664,2.904,3.284,4.469,4.85c1.566,1.566,3.196,3.04,4.86,4.457  L34.925,268.27c-5.858,5.857-5.858,15.355,0,21.213c2.929,2.929,6.768,4.394,10.606,4.394s7.678-1.465,10.606-4.394l30.784-30.784  c7.781,2.5,15.951,3.81,24.284,3.81c3.771,0,7.579-0.265,11.393-0.801c25.123-3.533,46.585-18.288,58.881-40.48  c0.646-1.165,1.133-2.412,1.449-3.706c2.219-9.071,4.908-17.99,8.042-26.729c8.738-3.134,17.657-5.823,26.729-8.042  c1.294-0.316,2.541-0.804,3.706-1.449c22.192-12.296,36.946-33.756,40.48-58.88c1.722-12.241,0.635-24.38-3-35.687l30.597-30.597  C295.341,50.28,295.341,40.782,289.483,34.925z M81.297,222.381c-1.829-1.389-3.589-2.897-5.246-4.555  c-1.658-1.658-3.167-3.418-4.556-5.247c23.183-25.498,41.692-54.771,54.783-86.478c31.708-13.09,60.98-31.599,86.478-54.782  c1.83,1.389,3.59,2.898,5.248,4.556c1.657,1.657,3.166,3.417,4.554,5.246c-23.183,25.498-41.692,54.771-54.782,86.478  C136.068,180.689,106.795,199.198,81.297,222.381z M139.744,85.404c7.813-12.98,20.795-21.582,35.89-23.705  c0.8-0.113,1.599-0.193,2.397-0.268c-12.141,9.55-25.071,18.012-38.636,25.307C139.51,86.293,139.632,85.85,139.744,85.404z   M85.58,139.567c0.446-0.113,0.89-0.234,1.335-0.349c-7.294,13.565-15.757,26.495-25.307,38.637  c0.074-0.799,0.155-1.598,0.268-2.399C63.999,160.361,72.6,147.381,85.58,139.567z M154.309,208.296  c-7.813,12.98-20.794,21.581-35.889,23.704c-0.801,0.113-1.6,0.193-2.399,0.268c12.141-9.551,25.071-18.013,38.637-25.307  C154.543,207.406,154.421,207.85,154.309,208.296z M208.473,154.132c-0.446,0.113-0.89,0.234-1.335,0.349  c7.294-13.565,15.757-26.495,25.307-38.636c-0.075,0.799-0.155,1.599-0.268,2.4C230.054,133.339,221.452,146.318,208.473,154.132z" data-original="#000000" class="active-path" data-old_color="#000000" fill="#FFFFFF"/></g> </svg>
