<?xml version="1.0"?>
<svg xmlns="http://www.w3.org/2000/svg" xmlns:xlink="http://www.w3.org/1999/xlink" version="1.1" viewBox="0 0 264 264" enable-background="new 0 0 264 264" width="512px" height="512px" class=""><g><g>
    <polygon points="98.805,40.486 95.941,51 101.668,51  " data-original="#000000" class="active-path" data-old_color="#000000" fill="#FFFFFF"/>
    <path d="M208,52.968v-10.16c0-2.668-1.332-3.808-3.529-3.808H201v18h3.471C206.668,57,208,55.636,208,52.968z" data-original="#000000" class="active-path" data-old_color="#000000" fill="#FFFFFF"/>
    <path d="m231,10c0-5.523-4.477-10-10-10h-178c-5.523,0-10,4.477-10,10v244c0,5.523 4.477,10 10,10h178c5.523,0 10-4.477 10-10v-244zm-36,25.393c0-0.98 0.92-1.393 2.527-1.393h6.943c5.414,0 9.529,2.06 9.529,8.808v10.16c0,6.748-4.115,9.032-9.529,9.032h-6.943c-1.607,0-2.527-0.637-2.527-1.617v-24.99zm-26,.04c0-1.256 2.131-1.433 3.465-1.433h13.967c1.295,0 1.844,1.205 1.844,2.461 0,1.451-0.668,2.539-1.844,2.539h-10.432v7h5.803c1.176,0 1.844,0.784 1.844,2.039 0,1.059-0.549,1.961-1.844,1.961h-5.803v7h10.432c1.176,0 1.844,1.088 1.844,2.539 0,1.256-0.549,2.461-1.844,2.461h-13.967c-1.334,0-3.465-0.401-3.465-1.656v-24.911zm-24.346-1.433h16.949c1.293,0 1.844,1.167 1.844,2.461 0,1.491-0.668,2.539-1.844,2.539h-5.603v21.344c0,1.255-1.471,1.883-3,1.883s-3-0.628-3-1.883v-21.344h-5.346c-1.176,0-1.844-1.048-1.844-2.539 0.001-1.294 0.551-2.461 1.844-2.461zm-28.654,1.433c0-1.295 1.738-1.884 3.267-1.884 2.197,0 2.955,0.196 4.445,3.061l6.288,12.121v-13.338c0-1.294 1.47-1.844 3.001-1.844 1.529,0 2.999,0.55 2.999,1.844v24.951c0,1.255-1.299,1.883-2.829,1.883-1.412,0-2.82-0.275-3.566-1.647l-7.605-13.575v13.339c0,1.255-1.471,1.883-3,1.883s-3-0.628-3-1.883v-24.911zm-28.494,23.851l7.297-23.931c0.432-1.373 2.197-2.04 4.002-2.04 1.805,0 3.57,0.667 4.002,2.04l7.336,23.931c0.039,0.157 0.078,0.313 0.078,0.432 0,1.451-2.236,2.511-3.924,2.511-0.98,0-1.764-0.406-2-1.23l-1.334-4.997h-8.277l-1.334,4.996c-0.234,0.824-1.02,1.184-2,1.184-1.688,0-3.924-1.036-3.924-2.487 1.42109e-14-0.119 0.039-0.252 0.078-0.409zm-38.557-23.303c0-1.334 2.197-2.433 3.963-2.433 0.941,0 1.725,0.314 1.961,1.138l5.963,20.126 3.1-13.261c0.234-1.059 1.607-1.608 2.941-1.608 1.334,0 2.707,0.55 2.943,1.608l3.1,13.261 5.963-20.126c0.234-0.823 1.02-1.138 1.961-1.138 1.766,0 3.963,1.099 3.963,2.433 0,0.196-0.041,0.393-0.08,0.51l-7.807,23.931c-0.471,1.373-2.236,2.04-4.041,2.04-1.764,0-3.648-0.667-3.961-2.04l-2.041-9.298-2.039,9.298c-0.314,1.373-2.197,2.04-3.963,2.04-1.805,0-3.609-0.667-4.041-2.04l-7.807-23.931c-0.039-0.117-0.078-0.313-0.078-0.51zm165.051,195.019h-33v-33h-24v-6.782c15-8.595 24.667-24.502 24.667-42.718 0-27.338-22.079-49.5-49.417-49.5s-49.625,22.162-49.625,49.5c0,18.216 10.375,34.123 24.375,42.718v6.782h-25v33h-33v-149h165v149z" data-original="#000000" class="active-path" data-old_color="#000000" fill="#FFFFFF"/>
  </g></g> </svg>
