<?xml version="1.0"?>
<svg xmlns="http://www.w3.org/2000/svg" id="Solid" height="512px" viewBox="0 0 512 512" width="512px"><g><path d="m112.167 349.824h16v31.999h-16z" transform="matrix(.707 -.707 .707 .707 -223.482 192.12)" data-original="#000000" class="active-path" data-old_color="#000000" fill="#FFFFFF"/><path d="m134.794 327.196h16v31.999h-16z" transform="matrix(.707 -.707 .707 .707 -200.853 201.49)" data-original="#000000" class="active-path" data-old_color="#000000" fill="#FFFFFF"/><path d="m176.735 343.2 11.31 11.311a8 8 0 1 0 11.318-11.311l-56.569-56.568a8 8 0 0 0 -11.314 11.308l28.284 28.285z" data-original="#000000" class="active-path" data-old_color="#000000" fill="#FFFFFF"/><path d="m66.912 395.078h15.999v31.999h-15.999z" transform="matrix(.707 -.707 .707 .707 -268.733 173.37)" data-original="#000000" class="active-path" data-old_color="#000000" fill="#FFFFFF"/><path d="m202.823 222.059h11.167v-14.627a8 8 0 0 1 8-8h14.627l.143-29.252h-14.63a8 8 0 0 1 -8-8v-19.317l-86.544-86.544a91.534 91.534 0 0 0 16.469 106.973z" data-original="#000000" class="active-path" data-old_color="#000000" fill="#FFFFFF"/><path d="m33.734 429.629 17.316 34.632 17.063-3.413 3.771-18.856-25.256-25.257z" data-original="#000000" class="active-path" data-old_color="#000000" fill="#FFFFFF"/><path d="m236.524 294.721 131.424-131.421a91.807 91.807 0 0 0 16.462-106.975l-86.538 86.537v19.315a8 8 0 0 1 -8 8h-14.627v14.623a8 8 0 0 1 -8 8h-14.628v14.628a8 8 0 0 1 -8 8h-14.627v14.627a8 8 0 0 1 -8 8h-14.628v14.628a8 8 0 0 1 -8 8h-19.314l-20.283 20.284 11.313 11.313 11.314-11.314 11.314 11.314-11.314 11.32 11.314 11.313 9.978-9.978a36.717 36.717 0 0 1 32.84-10.214z" data-original="#000000" class="active-path" data-old_color="#000000" fill="#FFFFFF"/><path d="m89.539 372.451h16v31.999h-16z" transform="matrix(.707 -.707 .707 .707 -246.106 182.742)" data-original="#000000" class="active-path" data-old_color="#000000" fill="#FFFFFF"/><path d="m421.089 403.078h31.999v15.999h-31.999z" transform="matrix(.707 -.707 .707 .707 -162.656 429.475)" data-original="#000000" class="active-path" data-old_color="#000000" fill="#FFFFFF"/><path d="m282.19 294.11a36.71 36.71 0 0 1 26.127 10.823l9.975 9.981 11.316-11.314-11.314-11.314 11.314-11.314 11.314 11.314 11.313-11.313-20.288-20.283h-19.307a8 8 0 0 1 -8-8v-3.458l-37.327 37.327 8.168 8.168a36.67 36.67 0 0 1 6.709-.617z" data-original="#000000" class="active-path" data-old_color="#000000" fill="#FFFFFF"/><path d="m398.461 380.451h31.999v16h-31.999z" transform="matrix(.707 -.707 .707 .707 -153.283 406.846)" data-original="#000000" class="active-path" data-old_color="#000000" fill="#FFFFFF"/><path d="m440.116 441.992 3.771 18.856 17.063 3.413 17.316-34.632-12.894-12.894z" data-original="#000000" class="active-path" data-old_color="#000000" fill="#FFFFFF"/><path d="m323.951 354.51 11.31-11.311 16.971-16.97 28.288-28.289a8 8 0 1 0 -11.313-11.313l-56.57 56.573a8 8 0 1 0 11.314 11.314z" data-original="#000000" class="active-path" data-old_color="#000000" fill="#FFFFFF"/><path d="m375.834 357.824h31.999v16h-31.999z" transform="matrix(.707 -.707 .707 .707 -143.911 384.213)" data-original="#000000" class="active-path" data-old_color="#000000" fill="#FFFFFF"/><path d="m353.206 335.196h31.999v16h-31.999z" transform="matrix(.707 -.707 .707 .707 -134.538 361.588)" data-original="#000000" class="active-path" data-old_color="#000000" fill="#FFFFFF"/></g> </svg>
